SplineFontDB: 3.2
FontName: Atari-825-Condensed
FullName: Atari 825 Condensed Regular
FamilyName: Atari 825 Condensed
Weight: Book
Copyright: Copyright jeffpiep 2020\n"Atari 825 Regular
Version: 1.0
ItalicAngle: 0
UnderlinePosition: 74.707
UnderlineWidth: 49.8047
Ascent: 800
Descent: 200
InvalidEm: 0
sfntRevision: 0x00010000
LayerCount: 2
Layer: 0 1 "Back" 1
Layer: 1 1 "Fore" 0
XUID: [1021 991 -801047843 10504]
StyleMap: 0x0040
FSType: 4
OS2Version: 2
OS2_WeightWidthSlopeOnly: 0
OS2_UseTypoMetrics: 0
CreationTime: 1592073426
ModificationTime: 1592076077
PfmFamily: 81
TTFWeight: 400
TTFWidth: 5
LineGap: 0
VLineGap: 0
Panose: 0 0 4 0 0 0 0 0 0 0
OS2TypoAscent: 889
OS2TypoAOffset: 0
OS2TypoDescent: -111
OS2TypoDOffset: 0
OS2TypoLinegap: 0
OS2WinAscent: 889
OS2WinAOffset: 0
OS2WinDescent: 111
OS2WinDOffset: 0
HheadAscent: 889
HheadAOffset: 0
HheadDescent: -111
HheadDOffset: 0
OS2SubXSize: 500
OS2SubYSize: 500
OS2SubXOff: 0
OS2SubYOff: -55
OS2SupXSize: 500
OS2SupYSize: 500
OS2SupXOff: 0
OS2SupYOff: 500
OS2StrikeYSize: 50
OS2StrikeYPos: 200
OS2CapHeight: 789
OS2XHeight: 566
OS2Vendor: 'FSTR'
OS2CodePages: 00000001.00000000
OS2UnicodeRanges: 80000001.00000000.00000000.00000000
MarkAttachClasses: 1
DEI: 91125
ShortTable: maxp 16
  1
  0
  102
  318
  14
  0
  0
  2
  0
  0
  0
  0
  0
  0
  0
  0
EndShort
LangName: 1033 "Copyright jeffpiep 2020+AAogHAAA-Atari 825 Regular" "" "Regular" "Atari 825 Condensed" "" "Version 1.0" "" "FontStruct is a trademark of FontStruct.com" "https://fontstruct.com" "jeffpiep" "+IBwA-Atari 825 Condensed+IB0A was built with FontStruct+AAoA-Designer description: <p>need to scale 96% in horizontal</p>+AAogHAAA-Atari 825 Regular" "https://fontstruct.com/fontstructions/show/1773475/atari-825-10-cpi-normal-1" "https://fontstruct.com/fontstructors/show/1011029/jeffpiep" "Open Font License" "" "" "" "" "" "Five big quacking zephyrs jolt my wax bed"
Encoding: win
UnicodeInterp: none
NameList: AGL For New Fonts
DisplaySize: -48
AntiAlias: 1
FitToEm: 0

StartChar: exclam
Encoding: 33 33 1
Width: 360
VWidth: 750
Flags: W
LayerCount: 2
Fore
SplineSet
160 0 m 1,0,1
 143 0 143 0 132 14 c 0,2,3
 120 28 120 28 120 46 c 0,4,5
 120 65 120 65 132 78 c 0,6,7
 144 92 144 92 160 92 c 256,8,9
 177 92 177 92 188 78 c 256,10,11
 199.076923077 65.0769230769 199.076923077 65.0769230769 199.076923077 48.7455621302 c 0,12,13
 199.076923077 28.0979020979 199.076923077 28.0979020979 188 14 c 0,14,15
 176 0 176 0 160 0 c 1,16,-1
 160 0 l 1,0,1
160 250 m 1,17,18
 143 250 143 250 132 263 c 0,19,20
 120 278 120 278 120 296 c 0,21,22
 120 316 120 316 132 328 c 0,23,24
 137 334 137 334 143 338 c 1,25,-1
 143 338 l 1,26,27
 137 340 137 340 132 346 c 0,28,29
 120 360 120 360 120 379 c 256,30,31
 120 398 120 398 132 411 c 0,32,33
 137 417 137 417 143 421 c 1,34,-1
 143 421 l 1,35,36
 137 424 137 424 132 430 c 0,37,38
 120 444 120 444 120 462 c 0,39,40
 120 481 120 481 132 495 c 0,41,42
 137 501 137 501 143 504 c 1,43,-1
 143 504 l 1,44,45
 137 507 137 507 132 513 c 0,46,47
 120 527 120 527 120 546 c 256,48,49
 120 565 120 565 132 578 c 0,50,51
 144 592 144 592 160 592 c 256,52,53
 177 592 177 592 188 578 c 0,54,55
 199.076923077 565.076923077 199.076923077 565.076923077 199.076923077 548.74556213 c 0,56,57
 199.076923077 527.097902098 199.076923077 527.097902098 188 513 c 0,58,59
 183 507 183 507 177 504 c 1,60,-1
 177 504 l 1,61,62
 183 501 183 501 188 495 c 0,63,64
 199.076923077 482.076923077 199.076923077 482.076923077 199.076923077 464.893491124 c 0,65,66
 199.076923077 443.090909091 199.076923077 443.090909091 188 430 c 0,67,68
 183 424 183 424 177 421 c 1,69,-1
 177 421 l 1,70,71
 183 418 183 418 188 411 c 0,72,73
 199.076923077 398.076923077 199.076923077 398.076923077 199.076923077 381.74556213 c 0,74,75
 199.076923077 360.097902098 199.076923077 360.097902098 188 346 c 0,76,77
 183 340 183 340 177 338 c 1,78,-1
 177 338 l 1,79,80
 183 334 183 334 188 328 c 0,81,82
 199.076923077 315.076923077 199.076923077 315.076923077 199.076923077 298.74556213 c 0,83,84
 199.076923077 277.097902098 199.076923077 277.097902098 188 263 c 256,85,86
 176.8 249.933333333 176.8 249.933333333 162.115555556 249.933333333 c 0,87,88
 161.066666667 249.933333333 161.066666667 249.933333333 160 250 c 1,89,-1
 160 250 l 1,17,18
EndSplineSet
EndChar

StartChar: quotedbl
Encoding: 34 34 2
Width: 360
VWidth: 750
Flags: W
LayerCount: 2
Fore
SplineSet
120 333 m 1,0,1
 118.866666667 332.933333333 118.866666667 332.933333333 117.755555556 332.933333333 c 0,2,3
 102.2 332.933333333 102.2 332.933333333 91 346 c 128,-1,4
 79.9230769231 358.923076923 79.9230769231 358.923076923 79.9230769231 376.106508876 c 0,5,6
 79.9230769231 397.909090909 79.9230769231 397.909090909 91 411 c 0,7,8
 96 417 96 417 103 421 c 1,9,-1
 103 421 l 1,10,11
 97 424 97 424 91 430 c 0,12,13
 79.9230769231 442.923076923 79.9230769231 442.923076923 79.9230769231 459.25443787 c 0,14,15
 79.9230769231 480.902097902 79.9230769231 480.902097902 91 495 c 0,16,17
 96 501 96 501 103 504 c 1,18,-1
 103 504 l 1,19,20
 97 507 97 507 91 513 c 0,21,22
 79.9230769231 525.923076923 79.9230769231 525.923076923 79.9230769231 543.106508876 c 0,23,24
 79.9230769231 564.909090909 79.9230769231 564.909090909 91 578 c 0,25,26
 103 592 103 592 120 592 c 256,27,28
 137 592 137 592 148 578 c 0,29,30
 160 564 160 564 160 546 c 256,31,32
 160 527 160 527 148 513 c 0,33,34
 143 507 143 507 137 504 c 1,35,-1
 137 504 l 1,36,37
 143 501 143 501 148 495 c 0,38,39
 160 481 160 481 160 462 c 128,-1,40
 160 443 160 443 148 430 c 0,41,42
 143 424 143 424 137 421 c 1,43,-1
 137 421 l 1,44,45
 143 418 143 418 148 411 c 0,46,47
 160 397 160 397 160 379 c 256,48,49
 160 360 160 360 148 346 c 0,50,51
 136.8 332.933333333 136.8 332.933333333 122.115555556 332.933333333 c 0,52,53
 121.066666667 332.933333333 121.066666667 332.933333333 120 333 c 1,54,-1
 120 333 l 1,0,1
280 333 m 1,55,56
 278.866666667 332.933333333 278.866666667 332.933333333 277.755555556 332.933333333 c 0,57,58
 262.2 332.933333333 262.2 332.933333333 251 346 c 128,-1,59
 239.923076923 358.923076923 239.923076923 358.923076923 239.923076923 376.106508876 c 0,60,61
 239.923076923 397.909090909 239.923076923 397.909090909 251 411 c 0,62,63
 256 417 256 417 263 421 c 1,64,-1
 263 421 l 1,65,66
 257 424 257 424 251 430 c 0,67,68
 239.923076923 442.923076923 239.923076923 442.923076923 239.923076923 459.25443787 c 0,69,70
 239.923076923 480.902097902 239.923076923 480.902097902 251 495 c 0,71,72
 256 501 256 501 263 504 c 1,73,-1
 263 504 l 1,74,75
 257 507 257 507 251 513 c 0,76,77
 239.923076923 525.923076923 239.923076923 525.923076923 239.923076923 543.106508876 c 0,78,79
 239.923076923 564.909090909 239.923076923 564.909090909 251 578 c 0,80,81
 263 592 263 592 280 592 c 256,82,83
 297 592 297 592 308 578 c 0,84,85
 320 564 320 564 320 546 c 256,86,87
 320 527 320 527 308 513 c 0,88,89
 303 507 303 507 297 504 c 1,90,-1
 297 504 l 1,91,92
 303 501 303 501 308 495 c 0,93,94
 320 481 320 481 320 462 c 128,-1,95
 320 443 320 443 308 430 c 0,96,97
 303 424 303 424 297 421 c 1,98,-1
 297 421 l 1,99,100
 303 418 303 418 308 411 c 0,101,102
 320 397 320 397 320 379 c 256,103,104
 320 360 320 360 308 346 c 0,105,106
 296.8 332.933333333 296.8 332.933333333 282.115555556 332.933333333 c 0,107,108
 281.066666667 332.933333333 281.066666667 332.933333333 280 333 c 1,109,-1
 280 333 l 1,55,56
EndSplineSet
EndChar

StartChar: numbersign
Encoding: 35 35 3
Width: 360
VWidth: 750
Flags: W
LayerCount: 2
Fore
SplineSet
40 166 m 1,0,1
 23 166 23 166 12 180 c 0,2,3
 0 194 0 194 0 212 c 256,4,5
 0 230 0 230 12 244 c 128,-1,6
 24 258 24 258 40 258 c 256,7,8
 57 258 57 258 68 244 c 0,9,10
 80 230 80 230 80 212 c 256,11,12
 80 193 80 193 68 180 c 0,13,14
 56 166 56 166 40 166 c 1,15,-1
 40 166 l 1,0,1
280 166 m 1,16,17
 263 166 263 166 251 180 c 0,18,19
 239.923076923 192.923076923 239.923076923 192.923076923 239.923076923 209.25443787 c 0,20,21
 239.923076923 229.902097902 239.923076923 229.902097902 251 244 c 0,22,23
 263 258 263 258 280 258 c 256,24,25
 297 258 297 258 308 244 c 0,26,27
 320 230 320 230 320 212 c 256,28,29
 320 193 320 193 308 180 c 0,30,31
 296 166 296 166 280 166 c 1,32,-1
 280 166 l 1,16,17
40 333 m 1,33,34
 38.8666666667 332.933333333 38.8666666667 332.933333333 37.76 332.933333333 c 0,35,36
 22.2666666667 332.933333333 22.2666666667 332.933333333 12 346 c 0,37,38
 0 360 0 360 0 379 c 256,39,40
 0 398 0 398 12 411 c 128,-1,41
 24 424 24 424 40 424 c 256,42,43
 57 424 57 424 68 411 c 0,44,45
 80 397 80 397 80 379 c 256,46,47
 80 360 80 360 68 346 c 0,48,49
 56.8 332.933333333 56.8 332.933333333 42.1155555556 332.933333333 c 0,50,51
 41.0666666667 332.933333333 41.0666666667 332.933333333 40 333 c 1,52,-1
 40 333 l 1,33,34
280 333 m 1,53,54
 278.866666667 332.933333333 278.866666667 332.933333333 277.755555556 332.933333333 c 0,55,56
 262.2 332.933333333 262.2 332.933333333 251 346 c 128,-1,57
 239.923076923 358.923076923 239.923076923 358.923076923 239.923076923 376.106508876 c 0,58,59
 239.923076923 397.909090909 239.923076923 397.909090909 251 411 c 0,60,61
 263 424 263 424 280 424 c 256,62,63
 297 424 297 424 308 411 c 0,64,65
 320 397 320 397 320 379 c 256,66,67
 320 360 320 360 308 346 c 0,68,69
 296.8 332.933333333 296.8 332.933333333 282.115555556 332.933333333 c 0,70,71
 281.066666667 332.933333333 281.066666667 332.933333333 280 333 c 1,72,-1
 280 333 l 1,53,54
120 0 m 1,73,74
 103 0 103 0 91 14 c 0,75,76
 79.9230769231 26.9230769231 79.9230769231 26.9230769231 79.9230769231 43.2544378698 c 0,77,78
 79.9230769231 64.9090909091 79.9230769231 64.9090909091 91 78 c 0,79,80
 96 84 96 84 103 87 c 1,81,-1
 103 87 l 1,82,83
 97 90 97 90 91 97 c 0,84,85
 79.9230769231 109.923076923 79.9230769231 109.923076923 79.9230769231 126.25443787 c 0,86,87
 79.9230769231 147.909090909 79.9230769231 147.909090909 91 161 c 0,88,89
 96 167 96 167 103 171 c 1,90,-1
 103 171 l 1,91,92
 97 174 97 174 91 180 c 0,93,94
 79.9230769231 192.923076923 79.9230769231 192.923076923 79.9230769231 209.25443787 c 0,95,96
 79.9230769231 229.902097902 79.9230769231 229.902097902 91 244 c 0,97,98
 96 250 96 250 103 254 c 1,99,-1
 103 254 l 1,100,101
 97 257 97 257 91 263 c 0,102,103
 79.9230769231 276.846153846 79.9230769231 276.846153846 79.9230769231 293.24852071 c 0,104,105
 79.9230769231 315.916083916 79.9230769231 315.916083916 91 328 c 0,106,107
 96 334 96 334 103 338 c 1,108,-1
 103 338 l 1,109,110
 97 340 97 340 91 346 c 0,111,112
 79.9230769231 358.923076923 79.9230769231 358.923076923 79.9230769231 376.106508876 c 0,113,114
 79.9230769231 397.909090909 79.9230769231 397.909090909 91 411 c 0,115,116
 96 417 96 417 103 421 c 1,117,-1
 103 421 l 1,118,119
 97 424 97 424 91 430 c 0,120,121
 79.9230769231 442.923076923 79.9230769231 442.923076923 79.9230769231 459.25443787 c 0,122,123
 79.9230769231 480.902097902 79.9230769231 480.902097902 91 495 c 0,124,125
 96 501 96 501 103 504 c 1,126,-1
 103 504 l 1,127,128
 97 507 97 507 91 513 c 0,129,130
 79.9230769231 525.923076923 79.9230769231 525.923076923 79.9230769231 543.106508876 c 0,131,132
 79.9230769231 564.909090909 79.9230769231 564.909090909 91 578 c 0,133,134
 103 592 103 592 120 592 c 256,135,136
 137 592 137 592 148 578 c 0,137,138
 160 564 160 564 160 546 c 256,139,140
 160 527 160 527 148 513 c 0,141,142
 143 507 143 507 137 504 c 1,143,-1
 137 504 l 1,144,145
 143 501 143 501 148 495 c 0,146,147
 160 481 160 481 160 462 c 128,-1,148
 160 443 160 443 148 430 c 0,149,150
 143 424 143 424 137 421 c 1,151,-1
 137 421 l 1,152,153
 143 418 143 418 148 411 c 0,154,155
 160 397 160 397 160 379 c 256,156,157
 160 360 160 360 148 346 c 0,158,159
 143 340 143 340 137 338 c 1,160,-1
 137 338 l 1,161,162
 143 334 143 334 148 328 c 0,163,164
 160 314 160 314 160 296 c 0,165,166
 160 277 160 277 148 263 c 0,167,168
 143 257 143 257 137 254 c 1,169,-1
 137 254 l 1,170,171
 143 250 143 250 148 244 c 0,172,173
 160 230 160 230 160 212 c 256,174,175
 160 193 160 193 148 180 c 0,176,177
 143 174 143 174 137 171 c 1,178,-1
 137 171 l 1,179,180
 143 168 143 168 148 161 c 0,181,182
 160 147 160 147 160 129 c 256,183,184
 160 110 160 110 148 97 c 0,185,186
 143 91 143 91 137 87 c 1,187,-1
 137 87 l 1,188,189
 143 84 143 84 148 78 c 0,190,191
 160 64 160 64 160 46 c 128,-1,192
 160 28 160 28 148 14 c 128,-1,193
 136 0 136 0 120 0 c 1,194,-1
 120 0 l 1,73,74
199 0 m 1,195,196
 182 0 182 0 171 14 c 0,197,198
 159.923076923 26.9230769231 159.923076923 26.9230769231 159.923076923 43.2544378698 c 0,199,200
 159.923076923 64.9090909091 159.923076923 64.9090909091 171 78 c 0,201,202
 176 84 176 84 183 87 c 1,203,-1
 183 87 l 1,204,205
 177 90 177 90 171 97 c 0,206,207
 159.923076923 109.923076923 159.923076923 109.923076923 159.923076923 126.25443787 c 0,208,209
 159.923076923 147.909090909 159.923076923 147.909090909 171 161 c 0,210,211
 176 167 176 167 183 171 c 1,212,-1
 183 171 l 1,213,214
 177 174 177 174 171 180 c 0,215,216
 159.923076923 192.923076923 159.923076923 192.923076923 159.923076923 209.25443787 c 0,217,218
 159.923076923 229.902097902 159.923076923 229.902097902 171 244 c 0,219,220
 176 250 176 250 183 254 c 1,221,-1
 183 254 l 1,222,223
 177 257 177 257 171 263 c 0,224,225
 159.923076923 276.846153846 159.923076923 276.846153846 159.923076923 293.24852071 c 0,226,227
 159.923076923 315.916083916 159.923076923 315.916083916 171 328 c 0,228,229
 176 334 176 334 183 338 c 1,230,-1
 183 338 l 1,231,232
 177 340 177 340 171 346 c 0,233,234
 159.923076923 358.923076923 159.923076923 358.923076923 159.923076923 376.106508876 c 0,235,236
 159.923076923 397.909090909 159.923076923 397.909090909 171 411 c 0,237,238
 176 417 176 417 183 421 c 1,239,-1
 183 421 l 1,240,241
 177 424 177 424 171 430 c 0,242,243
 159.923076923 442.923076923 159.923076923 442.923076923 159.923076923 459.25443787 c 0,244,245
 159.923076923 480.902097902 159.923076923 480.902097902 171 495 c 0,246,247
 176 501 176 501 183 504 c 1,248,-1
 183 504 l 1,249,250
 177 507 177 507 171 513 c 0,251,252
 159.923076923 525.923076923 159.923076923 525.923076923 159.923076923 543.106508876 c 0,253,254
 159.923076923 564.909090909 159.923076923 564.909090909 171 578 c 0,255,256
 183 592 183 592 199 592 c 256,257,258
 216 592 216 592 228 578 c 128,-1,259
 240 564 240 564 240 546 c 256,260,261
 240 527 240 527 228 513 c 0,262,263
 223 507 223 507 217 504 c 1,264,-1
 217 504 l 1,265,266
 223 501 223 501 228 495 c 0,267,268
 240 481 240 481 240 462 c 128,-1,269
 240 443 240 443 228 430 c 0,270,271
 223 424 223 424 217 421 c 1,272,-1
 217 421 l 1,273,274
 223 418 223 418 228 411 c 0,275,276
 240 397 240 397 240 379 c 256,277,278
 240 360 240 360 228 346 c 0,279,280
 223 340 223 340 217 338 c 1,281,-1
 217 338 l 1,282,283
 223 334 223 334 228 328 c 0,284,285
 240 314 240 314 240 296 c 0,286,287
 240 277 240 277 228 263 c 0,288,289
 223 257 223 257 217 254 c 1,290,-1
 217 254 l 1,291,292
 223 250 223 250 228 244 c 0,293,294
 240 230 240 230 240 212 c 256,295,296
 240 193 240 193 228 180 c 0,297,298
 223 174 223 174 217 171 c 1,299,-1
 217 171 l 1,300,301
 223 168 223 168 228 161 c 0,302,303
 240 147 240 147 240 129 c 256,304,305
 240 110 240 110 228 97 c 0,306,307
 223 91 223 91 217 87 c 1,308,-1
 217 87 l 1,309,310
 223 84 223 84 228 78 c 0,311,312
 240 64 240 64 240 46 c 128,-1,313
 240 28 240 28 228 14 c 128,-1,314
 216 0 216 0 199 0 c 1,315,-1
 199 0 l 1,195,196
EndSplineSet
EndChar

StartChar: dollar
Encoding: 36 36 4
Width: 360
VWidth: 750
Flags: W
LayerCount: 2
Fore
SplineSet
80 83 m 1,0,1
 63 83 63 83 52 97 c 0,2,3
 40 111 40 111 40 129 c 256,4,5
 40 148 40 148 52 161 c 0,6,7
 64 175 64 175 80 175 c 256,8,9
 97 175 97 175 108 161 c 0,10,11
 120 147 120 147 120 129 c 256,12,13
 120 110 120 110 108 97 c 0,14,15
 96 83 96 83 80 83 c 1,16,-1
 80 83 l 1,0,1
240 83 m 1,17,18
 223 83 223 83 212 97 c 0,19,20
 200 111 200 111 199 129 c 256,21,22
 199 148 199 148 212 161 c 0,23,24
 224 175 224 175 240 175 c 256,25,26
 257 175 257 175 269 161 c 0,27,28
 280.076923077 148.076923077 280.076923077 148.076923077 280.076923077 131.74556213 c 0,29,30
 280.076923077 110.090909091 280.076923077 110.090909091 269 97 c 0,31,32
 257 83 257 83 240 83 c 1,33,-1
 240 83 l 1,17,18
280 166 m 1,34,35
 263 166 263 166 251 180 c 0,36,37
 239.923076923 192.923076923 239.923076923 192.923076923 239.923076923 209.25443787 c 0,38,39
 239.923076923 229.902097902 239.923076923 229.902097902 251 244 c 0,40,41
 263 258 263 258 280 258 c 256,42,43
 297 258 297 258 308 244 c 0,44,45
 320 230 320 230 320 212 c 256,46,47
 320 193 320 193 308 180 c 0,48,49
 296 166 296 166 280 166 c 1,50,-1
 280 166 l 1,34,35
80 250 m 1,51,52
 63 250 63 250 52 263 c 0,53,54
 40 278 40 278 40 296 c 0,55,56
 40 316 40 316 52 328 c 0,57,58
 63.2 341.066666667 63.2 341.066666667 77.8844444444 341.066666667 c 0,59,60
 78.9333333333 341.066666667 78.9333333333 341.066666667 80 341 c 256,61,62
 81.1333333333 341.066666667 81.1333333333 341.066666667 82.24 341.066666667 c 0,63,64
 97.7333333333 341.066666667 97.7333333333 341.066666667 108 328 c 0,65,66
 120 314 120 314 120 296 c 0,67,68
 120 277 120 277 108 263 c 0,69,70
 96.8 249.933333333 96.8 249.933333333 82.1155555556 249.933333333 c 0,71,72
 81.0666666667 249.933333333 81.0666666667 249.933333333 80 250 c 1,73,-1
 80 250 l 1,51,52
240 250 m 1,74,75
 223 250 223 250 212 263 c 0,76,77
 200 278 200 278 199 296 c 0,78,79
 199 316 199 316 212 328 c 0,80,81
 223.2 341.066666667 223.2 341.066666667 237.884444444 341.066666667 c 0,82,83
 238.933333333 341.066666667 238.933333333 341.066666667 240 341 c 256,84,85
 241.133333333 341.066666667 241.133333333 341.066666667 242.244444444 341.066666667 c 0,86,87
 257.8 341.066666667 257.8 341.066666667 269 328 c 128,-1,88
 280.076923077 315.076923077 280.076923077 315.076923077 280.076923077 298.74556213 c 0,89,90
 280.076923077 277.097902098 280.076923077 277.097902098 269 263 c 0,91,92
 257.8 249.933333333 257.8 249.933333333 242.244444444 249.933333333 c 0,93,94
 241.133333333 249.933333333 241.133333333 249.933333333 240 250 c 1,95,-1
 240 250 l 1,74,75
40 333 m 1,96,97
 38.8666666667 332.933333333 38.8666666667 332.933333333 37.76 332.933333333 c 0,98,99
 22.2666666667 332.933333333 22.2666666667 332.933333333 12 346 c 0,100,101
 0 360 0 360 0 379 c 256,102,103
 0 398 0 398 12 411 c 128,-1,104
 24 424 24 424 40 424 c 256,105,106
 57 424 57 424 68 411 c 0,107,108
 80 397 80 397 80 379 c 256,109,110
 80 360 80 360 68 346 c 0,111,112
 56.8 332.933333333 56.8 332.933333333 42.1155555556 332.933333333 c 0,113,114
 41.0666666667 332.933333333 41.0666666667 332.933333333 40 333 c 1,115,-1
 40 333 l 1,96,97
80 416 m 1,116,117
 63 416 63 416 52 430 c 0,118,119
 40 444 40 444 40 462 c 0,120,121
 40 481 40 481 52 495 c 0,122,123
 64 508 64 508 80 508 c 256,124,125
 97 508 97 508 108 495 c 0,126,127
 120 481 120 481 120 462 c 128,-1,128
 120 443 120 443 108 430 c 0,129,130
 96 416 96 416 80 416 c 1,131,-1
 80 416 l 1,116,117
240 416 m 1,132,133
 223 416 223 416 212 430 c 0,134,135
 200 444 200 444 199 462 c 0,136,137
 199 481 199 481 212 495 c 0,138,139
 224 508 224 508 240 508 c 256,140,141
 257 508 257 508 269 495 c 0,142,143
 280.076923077 482.076923077 280.076923077 482.076923077 280.076923077 464.893491124 c 0,144,145
 280.076923077 443.090909091 280.076923077 443.090909091 269 430 c 0,146,147
 257 416 257 416 240 416 c 1,148,-1
 240 416 l 1,132,133
160 0 m 1,149,150
 143 0 143 0 132 14 c 0,151,152
 120 28 120 28 120 46 c 0,153,154
 120 65 120 65 132 78 c 0,155,156
 137 84 137 84 143 87 c 1,157,-1
 143 87 l 1,158,159
 137 90 137 90 132 97 c 0,160,161
 120 111 120 111 120 129 c 256,162,163
 120 148 120 148 132 161 c 0,164,165
 137 167 137 167 143 171 c 1,166,-1
 143 171 l 1,167,168
 137 174 137 174 132 180 c 0,169,170
 120 194 120 194 120 212 c 256,171,172
 120 230 120 230 132 244 c 0,173,174
 137 250 137 250 143 254 c 1,175,-1
 143 254 l 1,176,177
 137 257 137 257 132 263 c 0,178,179
 120 278 120 278 120 296 c 0,180,181
 120 316 120 316 132 328 c 0,182,183
 137 334 137 334 143 338 c 1,184,-1
 143 338 l 1,185,186
 137 340 137 340 132 346 c 0,187,188
 120 360 120 360 120 379 c 256,189,190
 120 398 120 398 132 411 c 0,191,192
 137 417 137 417 143 421 c 1,193,-1
 143 421 l 1,194,195
 137 424 137 424 132 430 c 0,196,197
 120 444 120 444 120 462 c 0,198,199
 120 481 120 481 132 495 c 0,200,201
 137 501 137 501 143 504 c 1,202,-1
 143 504 l 1,203,204
 137 507 137 507 132 513 c 0,205,206
 120 527 120 527 120 546 c 256,207,208
 120 565 120 565 132 578 c 0,209,210
 144 592 144 592 160 592 c 256,211,212
 177 592 177 592 188 578 c 0,213,214
 199.076923077 565.076923077 199.076923077 565.076923077 199.076923077 548.74556213 c 0,215,216
 199.076923077 527.097902098 199.076923077 527.097902098 188 513 c 0,217,218
 183 507 183 507 177 504 c 1,219,-1
 177 504 l 1,220,221
 183 501 183 501 188 495 c 0,222,223
 199.076923077 482.076923077 199.076923077 482.076923077 199.076923077 464.893491124 c 0,224,225
 199.076923077 443.090909091 199.076923077 443.090909091 188 430 c 0,226,227
 183 424 183 424 177 421 c 1,228,-1
 177 421 l 1,229,230
 183 418 183 418 188 411 c 0,231,232
 199.076923077 398.076923077 199.076923077 398.076923077 199.076923077 381.74556213 c 0,233,234
 199.076923077 360.097902098 199.076923077 360.097902098 188 346 c 0,235,236
 183 340 183 340 177 338 c 1,237,-1
 177 338 l 1,238,239
 183 334 183 334 188 328 c 0,240,241
 199.076923077 315.076923077 199.076923077 315.076923077 199.076923077 298.74556213 c 0,242,243
 199.076923077 277.097902098 199.076923077 277.097902098 188 263 c 0,244,245
 183 257 183 257 177 254 c 1,246,-1
 177 254 l 1,247,248
 183 250 183 250 188 244 c 0,249,250
 199.076923077 231.076923077 199.076923077 231.076923077 199.076923077 214.74556213 c 0,251,252
 199.076923077 193.090909091 199.076923077 193.090909091 188 180 c 0,253,254
 183 174 183 174 177 171 c 1,255,-1
 177 171 l 1,256,257
 183 168 183 168 188 161 c 0,258,259
 199.076923077 148.076923077 199.076923077 148.076923077 199.076923077 131.74556213 c 0,260,261
 199.076923077 110.090909091 199.076923077 110.090909091 188 97 c 0,262,263
 183 91 183 91 177 87 c 1,264,-1
 177 87 l 1,265,266
 183 84 183 84 188 78 c 0,267,268
 199.076923077 65.0769230769 199.076923077 65.0769230769 199.076923077 48.7455621302 c 0,269,270
 199.076923077 28.0979020979 199.076923077 28.0979020979 188 14 c 0,271,272
 176 0 176 0 160 0 c 1,273,-1
 160 0 l 1,149,150
EndSplineSet
EndChar

StartChar: percent
Encoding: 37 37 5
Width: 360
VWidth: 750
Flags: W
LayerCount: 2
Fore
SplineSet
40 0 m 1,0,1
 23 0 23 0 12 14 c 0,2,3
 0 28 0 28 0 46 c 0,4,5
 0 65 0 65 12 78 c 256,6,7
 24 92 24 92 40 92 c 256,8,9
 57 92 57 92 68 78 c 0,10,11
 80 64 80 64 80 46 c 128,-1,12
 80 28 80 28 68 14 c 128,-1,13
 56 0 56 0 40 0 c 1,14,-1
 40 0 l 1,0,1
80 83 m 1,15,16
 63 83 63 83 52 97 c 0,17,18
 40 111 40 111 40 129 c 256,19,20
 40 148 40 148 52 161 c 0,21,22
 64 175 64 175 80 175 c 256,23,24
 97 175 97 175 108 161 c 0,25,26
 120 147 120 147 120 129 c 256,27,28
 120 110 120 110 108 97 c 0,29,30
 96 83 96 83 80 83 c 1,31,-1
 80 83 l 1,15,16
199 0 m 1,32,33
 182 0 182 0 171 14 c 0,34,35
 159.923076923 26.9230769231 159.923076923 26.9230769231 159.923076923 43.2544378698 c 0,36,37
 159.923076923 64.9090909091 159.923076923 64.9090909091 171 78 c 0,38,39
 176 84 176 84 183 87 c 1,40,-1
 183 87 l 1,41,42
 177 90 177 90 171 97 c 0,43,44
 159.923076923 109.923076923 159.923076923 109.923076923 159.923076923 126.25443787 c 0,45,46
 159.923076923 147.909090909 159.923076923 147.909090909 171 161 c 0,47,48
 183 175 183 175 199 175 c 256,49,50
 216 175 216 175 228 161 c 128,-1,51
 240 147 240 147 240 129 c 256,52,53
 240 110 240 110 228 97 c 0,54,55
 223 91 223 91 217 87 c 1,56,-1
 217 87 l 1,57,58
 223 84 223 84 228 78 c 0,59,60
 240 64 240 64 240 46 c 128,-1,61
 240 28 240 28 228 14 c 128,-1,62
 216 0 216 0 199 0 c 1,63,-1
 199 0 l 1,32,33
280 0 m 1,64,65
 263 0 263 0 251 14 c 0,66,67
 239.923076923 26.9230769231 239.923076923 26.9230769231 239.923076923 43.2544378698 c 0,68,69
 239.923076923 64.9090909091 239.923076923 64.9090909091 251 78 c 0,70,71
 256 84 256 84 263 87 c 1,72,-1
 263 87 l 1,73,74
 257 90 257 90 251 97 c 0,75,76
 239.923076923 109.923076923 239.923076923 109.923076923 239.923076923 126.25443787 c 0,77,78
 239.923076923 147.909090909 239.923076923 147.909090909 251 161 c 0,79,80
 263 175 263 175 280 175 c 256,81,82
 297 175 297 175 308 161 c 0,83,84
 320 147 320 147 320 129 c 256,85,86
 320 110 320 110 308 97 c 0,87,88
 303 91 303 91 297 87 c 1,89,-1
 297 87 l 1,90,91
 303 84 303 84 308 78 c 0,92,93
 320 64 320 64 320 46 c 128,-1,94
 320 28 320 28 308 14 c 128,-1,95
 296 0 296 0 280 0 c 1,96,-1
 280 0 l 1,64,65
120 166 m 1,97,98
 103 166 103 166 91 180 c 0,99,100
 79.9230769231 192.923076923 79.9230769231 192.923076923 79.9230769231 209.25443787 c 0,101,102
 79.9230769231 229.902097902 79.9230769231 229.902097902 91 244 c 0,103,104
 103 258 103 258 120 258 c 256,105,106
 137 258 137 258 148 244 c 0,107,108
 160 230 160 230 160 212 c 256,109,110
 160 193 160 193 148 180 c 0,111,112
 136 166 136 166 120 166 c 1,113,-1
 120 166 l 1,97,98
160 250 m 1,114,115
 143 250 143 250 132 263 c 0,116,117
 120 278 120 278 120 296 c 0,118,119
 120 316 120 316 132 328 c 0,120,121
 143.2 341.066666667 143.2 341.066666667 157.884444444 341.066666667 c 0,122,123
 158.933333333 341.066666667 158.933333333 341.066666667 160 341 c 256,124,125
 161.133333333 341.066666667 161.133333333 341.066666667 162.24 341.066666667 c 0,126,127
 177.733333333 341.066666667 177.733333333 341.066666667 188 328 c 0,128,129
 199.076923077 315.076923077 199.076923077 315.076923077 199.076923077 298.74556213 c 0,130,131
 199.076923077 277.097902098 199.076923077 277.097902098 188 263 c 256,132,133
 176.8 249.933333333 176.8 249.933333333 162.115555556 249.933333333 c 0,134,135
 161.066666667 249.933333333 161.066666667 249.933333333 160 250 c 1,136,-1
 160 250 l 1,114,115
199 333 m 1,137,138
 197.866666667 332.933333333 197.866666667 332.933333333 196.76 332.933333333 c 0,139,140
 181.266666667 332.933333333 181.266666667 332.933333333 171 346 c 0,141,142
 159.923076923 358.923076923 159.923076923 358.923076923 159.923076923 376.106508876 c 0,143,144
 159.923076923 397.909090909 159.923076923 397.909090909 171 411 c 0,145,146
 183 424 183 424 199 424 c 256,147,148
 216 424 216 424 228 411 c 0,149,150
 240 397 240 397 240 379 c 256,151,152
 240 360 240 360 228 346 c 0,153,154
 216.8 332.933333333 216.8 332.933333333 201.244444444 332.933333333 c 0,155,156
 200.133333333 332.933333333 200.133333333 332.933333333 199 333 c 1,157,-1
 199 333 l 1,137,138
240 416 m 1,158,159
 223 416 223 416 212 430 c 0,160,161
 200 444 200 444 199 462 c 0,162,163
 199 481 199 481 212 495 c 0,164,165
 224 508 224 508 240 508 c 256,166,167
 257 508 257 508 269 495 c 0,168,169
 280.076923077 482.076923077 280.076923077 482.076923077 280.076923077 464.893491124 c 0,170,171
 280.076923077 443.090909091 280.076923077 443.090909091 269 430 c 0,172,173
 257 416 257 416 240 416 c 1,174,-1
 240 416 l 1,158,159
40 416 m 1,175,176
 23 416 23 416 12 430 c 256,177,178
 0 444 0 444 0 462 c 0,179,180
 0 481 0 481 12 495 c 0,181,182
 17 501 17 501 23 504 c 1,183,-1
 23 504 l 1,184,185
 17 507 17 507 12 513 c 0,186,187
 0 527 0 527 0 546 c 256,188,189
 0 565 0 565 12 578 c 0,190,191
 24 592 24 592 40 592 c 256,192,193
 57 592 57 592 68 578 c 0,194,195
 80 564 80 564 80 546 c 256,196,197
 80 527 80 527 68 513 c 0,198,199
 63 507 63 507 57 504 c 1,200,-1
 57 504 l 1,201,202
 63 501 63 501 68 495 c 0,203,204
 80 481 80 481 80 462 c 128,-1,205
 80 443 80 443 68 430 c 0,206,207
 56 416 56 416 40 416 c 1,208,-1
 40 416 l 1,175,176
120 416 m 1,209,210
 103 416 103 416 91 430 c 0,211,212
 79.9230769231 442.923076923 79.9230769231 442.923076923 79.9230769231 459.25443787 c 0,213,214
 79.9230769231 480.902097902 79.9230769231 480.902097902 91 495 c 0,215,216
 96 501 96 501 103 504 c 1,217,-1
 103 504 l 1,218,219
 97 507 97 507 91 513 c 0,220,221
 79.9230769231 525.923076923 79.9230769231 525.923076923 79.9230769231 543.106508876 c 0,222,223
 79.9230769231 564.909090909 79.9230769231 564.909090909 91 578 c 0,224,225
 103 592 103 592 120 592 c 256,226,227
 137 592 137 592 148 578 c 0,228,229
 160 564 160 564 160 546 c 256,230,231
 160 527 160 527 148 513 c 0,232,233
 143 507 143 507 137 504 c 1,234,-1
 137 504 l 1,235,236
 143 501 143 501 148 495 c 0,237,238
 160 481 160 481 160 462 c 128,-1,239
 160 443 160 443 148 430 c 0,240,241
 136 416 136 416 120 416 c 1,242,-1
 120 416 l 1,209,210
280 500 m 1,243,244
 263 500 263 500 251 513 c 0,245,246
 239.923076923 525.923076923 239.923076923 525.923076923 239.923076923 543.106508876 c 0,247,248
 239.923076923 564.909090909 239.923076923 564.909090909 251 578 c 0,249,250
 263 592 263 592 280 592 c 256,251,252
 297 592 297 592 308 578 c 0,253,254
 320 564 320 564 320 546 c 256,255,256
 320 527 320 527 308 513 c 0,257,258
 296.8 499.933333333 296.8 499.933333333 282.115555556 499.933333333 c 0,259,260
 281.066666667 499.933333333 281.066666667 499.933333333 280 500 c 1,261,-1
 280 500 l 1,243,244
EndSplineSet
EndChar

StartChar: ampersand
Encoding: 38 38 6
Width: 360
VWidth: 750
Flags: W
LayerCount: 2
Fore
SplineSet
80 0 m 1,0,1
 63 0 63 0 52 14 c 0,2,3
 40 28 40 28 40 46 c 0,4,5
 40 65 40 65 52 78 c 0,6,7
 64 92 64 92 80 92 c 256,8,9
 97 92 97 92 108 78 c 0,10,11
 120 64 120 64 120 46 c 128,-1,12
 120 28 120 28 108 14 c 128,-1,13
 96 0 96 0 80 0 c 1,14,-1
 80 0 l 1,0,1
160 0 m 1,15,16
 143 0 143 0 132 14 c 0,17,18
 120 28 120 28 120 46 c 0,19,20
 120 65 120 65 132 78 c 0,21,22
 144 92 144 92 160 92 c 256,23,24
 177 92 177 92 188 78 c 256,25,26
 199.076923077 65.0769230769 199.076923077 65.0769230769 199.076923077 48.7455621302 c 0,27,28
 199.076923077 28.0979020979 199.076923077 28.0979020979 188 14 c 0,29,30
 176 0 176 0 160 0 c 1,31,-1
 160 0 l 1,15,16
280 0 m 1,32,33
 263 0 263 0 251 14 c 0,34,35
 239.923076923 26.9230769231 239.923076923 26.9230769231 239.923076923 43.2544378698 c 0,36,37
 239.923076923 64.9090909091 239.923076923 64.9090909091 251 78 c 0,38,39
 263 92 263 92 280 92 c 256,40,41
 297 92 297 92 308 78 c 0,42,43
 320 64 320 64 320 46 c 128,-1,44
 320 28 320 28 308 14 c 128,-1,45
 296 0 296 0 280 0 c 1,46,-1
 280 0 l 1,32,33
240 83 m 1,47,48
 223 83 223 83 212 97 c 0,49,50
 200 111 200 111 199 129 c 256,51,52
 199 148 199 148 212 161 c 0,53,54
 224 175 224 175 240 175 c 256,55,56
 257 175 257 175 269 161 c 0,57,58
 280.076923077 148.076923077 280.076923077 148.076923077 280.076923077 131.74556213 c 0,59,60
 280.076923077 110.090909091 280.076923077 110.090909091 269 97 c 0,61,62
 257 83 257 83 240 83 c 1,63,-1
 240 83 l 1,47,48
40 83 m 1,64,65
 23 83 23 83 12 97 c 0,66,67
 0 111 0 111 0 129 c 256,68,69
 0 148 0 148 12 161 c 0,70,71
 17 167 17 167 23 171 c 1,72,-1
 23 171 l 1,73,74
 17 174 17 174 12 180 c 0,75,76
 0 194 0 194 0 212 c 256,77,78
 0 230 0 230 12 244 c 128,-1,79
 24 258 24 258 40 258 c 256,80,81
 57 258 57 258 68 244 c 0,82,83
 80 230 80 230 80 212 c 256,84,85
 80 193 80 193 68 180 c 0,86,87
 63 174 63 174 57 171 c 1,88,-1
 57 171 l 1,89,90
 63 168 63 168 68 161 c 0,91,92
 80 147 80 147 80 129 c 256,93,94
 80 110 80 110 68 97 c 0,95,96
 56 83 56 83 40 83 c 1,97,-1
 40 83 l 1,64,65
199 166 m 1,98,99
 182 166 182 166 171 180 c 0,100,101
 159.923076923 192.923076923 159.923076923 192.923076923 159.923076923 209.25443787 c 0,102,103
 159.923076923 229.902097902 159.923076923 229.902097902 171 244 c 0,104,105
 183 258 183 258 199 258 c 256,106,107
 216 258 216 258 228 244 c 128,-1,108
 240 230 240 230 240 212 c 256,109,110
 240 193 240 193 228 180 c 0,111,112
 216 166 216 166 199 166 c 1,113,-1
 199 166 l 1,98,99
80 250 m 1,114,115
 63 250 63 250 52 263 c 0,116,117
 40 278 40 278 40 296 c 0,118,119
 40 316 40 316 52 328 c 0,120,121
 63.2 341.066666667 63.2 341.066666667 77.8844444444 341.066666667 c 0,122,123
 78.9333333333 341.066666667 78.9333333333 341.066666667 80 341 c 256,124,125
 81.1333333333 341.066666667 81.1333333333 341.066666667 82.24 341.066666667 c 0,126,127
 97.7333333333 341.066666667 97.7333333333 341.066666667 108 328 c 0,128,129
 120 314 120 314 120 296 c 0,130,131
 120 277 120 277 108 263 c 0,132,133
 96.8 249.933333333 96.8 249.933333333 82.1155555556 249.933333333 c 0,134,135
 81.0666666667 249.933333333 81.0666666667 249.933333333 80 250 c 1,136,-1
 80 250 l 1,114,115
160 250 m 1,137,138
 143 250 143 250 132 263 c 0,139,140
 120 278 120 278 120 296 c 0,141,142
 120 316 120 316 132 328 c 0,143,144
 143.2 341.066666667 143.2 341.066666667 157.884444444 341.066666667 c 0,145,146
 158.933333333 341.066666667 158.933333333 341.066666667 160 341 c 256,147,148
 161.133333333 341.066666667 161.133333333 341.066666667 162.24 341.066666667 c 0,149,150
 177.733333333 341.066666667 177.733333333 341.066666667 188 328 c 0,151,152
 199.076923077 315.076923077 199.076923077 315.076923077 199.076923077 298.74556213 c 0,153,154
 199.076923077 277.097902098 199.076923077 277.097902098 188 263 c 256,155,156
 176.8 249.933333333 176.8 249.933333333 162.115555556 249.933333333 c 0,157,158
 161.066666667 249.933333333 161.066666667 249.933333333 160 250 c 1,159,-1
 160 250 l 1,137,138
120 333 m 1,160,161
 118.866666667 332.933333333 118.866666667 332.933333333 117.755555556 332.933333333 c 0,162,163
 102.2 332.933333333 102.2 332.933333333 91 346 c 128,-1,164
 79.9230769231 358.923076923 79.9230769231 358.923076923 79.9230769231 376.106508876 c 0,165,166
 79.9230769231 397.909090909 79.9230769231 397.909090909 91 411 c 0,167,168
 103 424 103 424 120 424 c 256,169,170
 137 424 137 424 148 411 c 0,171,172
 160 397 160 397 160 379 c 256,173,174
 160 360 160 360 148 346 c 0,175,176
 136.8 332.933333333 136.8 332.933333333 122.115555556 332.933333333 c 0,177,178
 121.066666667 332.933333333 121.066666667 332.933333333 120 333 c 1,179,-1
 120 333 l 1,160,161
199 333 m 1,180,181
 197.866666667 332.933333333 197.866666667 332.933333333 196.76 332.933333333 c 0,182,183
 181.266666667 332.933333333 181.266666667 332.933333333 171 346 c 0,184,185
 159.923076923 358.923076923 159.923076923 358.923076923 159.923076923 376.106508876 c 0,186,187
 159.923076923 397.909090909 159.923076923 397.909090909 171 411 c 0,188,189
 183 424 183 424 199 424 c 256,190,191
 216 424 216 424 228 411 c 0,192,193
 240 397 240 397 240 379 c 256,194,195
 240 360 240 360 228 346 c 0,196,197
 216.8 332.933333333 216.8 332.933333333 201.244444444 332.933333333 c 0,198,199
 200.133333333 332.933333333 200.133333333 332.933333333 199 333 c 1,200,-1
 199 333 l 1,180,181
80 416 m 1,201,202
 63 416 63 416 52 430 c 0,203,204
 40 444 40 444 40 462 c 0,205,206
 40 481 40 481 52 495 c 0,207,208
 64 508 64 508 80 508 c 256,209,210
 97 508 97 508 108 495 c 0,211,212
 120 481 120 481 120 462 c 128,-1,213
 120 443 120 443 108 430 c 0,214,215
 96 416 96 416 80 416 c 1,216,-1
 80 416 l 1,201,202
240 416 m 1,217,218
 223 416 223 416 212 430 c 0,219,220
 200 444 200 444 199 462 c 0,221,222
 199 481 199 481 212 495 c 0,223,224
 224 508 224 508 240 508 c 256,225,226
 257 508 257 508 269 495 c 0,227,228
 280.076923077 482.076923077 280.076923077 482.076923077 280.076923077 464.893491124 c 0,229,230
 280.076923077 443.090909091 280.076923077 443.090909091 269 430 c 0,231,232
 257 416 257 416 240 416 c 1,233,-1
 240 416 l 1,217,218
120 500 m 1,234,235
 103 500 103 500 91 513 c 0,236,237
 79.9230769231 525.923076923 79.9230769231 525.923076923 79.9230769231 543.106508876 c 0,238,239
 79.9230769231 564.909090909 79.9230769231 564.909090909 91 578 c 0,240,241
 103 592 103 592 120 592 c 256,242,243
 137 592 137 592 148 578 c 0,244,245
 160 564 160 564 160 546 c 256,246,247
 160 527 160 527 148 513 c 0,248,249
 136.8 499.933333333 136.8 499.933333333 122.115555556 499.933333333 c 0,250,251
 121.066666667 499.933333333 121.066666667 499.933333333 120 500 c 1,252,-1
 120 500 l 1,234,235
199 500 m 1,253,254
 182 500 182 500 171 513 c 128,-1,255
 159.923076923 525.923076923 159.923076923 525.923076923 159.923076923 543.106508876 c 0,256,257
 159.923076923 564.909090909 159.923076923 564.909090909 171 578 c 0,258,259
 183 592 183 592 199 592 c 256,260,261
 216 592 216 592 228 578 c 128,-1,262
 240 564 240 564 240 546 c 256,263,264
 240 527 240 527 228 513 c 0,265,266
 216.8 499.933333333 216.8 499.933333333 201.244444444 499.933333333 c 0,267,268
 200.133333333 499.933333333 200.133333333 499.933333333 199 500 c 1,269,-1
 199 500 l 1,253,254
EndSplineSet
EndChar

StartChar: quotesingle
Encoding: 39 39 7
Width: 360
VWidth: 750
Flags: W
LayerCount: 2
Fore
SplineSet
120 333 m 1,0,1
 118.866666667 332.933333333 118.866666667 332.933333333 117.755555556 332.933333333 c 0,2,3
 102.2 332.933333333 102.2 332.933333333 91 346 c 128,-1,4
 79.9230769231 358.923076923 79.9230769231 358.923076923 79.9230769231 376.106508876 c 0,5,6
 79.9230769231 397.909090909 79.9230769231 397.909090909 91 411 c 0,7,8
 103 424 103 424 120 424 c 256,9,10
 137 424 137 424 148 411 c 0,11,12
 160 397 160 397 160 379 c 256,13,14
 160 360 160 360 148 346 c 0,15,16
 136.8 332.933333333 136.8 332.933333333 122.115555556 332.933333333 c 0,17,18
 121.066666667 332.933333333 121.066666667 332.933333333 120 333 c 1,19,-1
 120 333 l 1,0,1
160 416 m 1,20,21
 143 416 143 416 132 430 c 0,22,23
 120 444 120 444 120 462 c 0,24,25
 120 481 120 481 132 495 c 0,26,27
 144 508 144 508 160 508 c 256,28,29
 177 508 177 508 188 495 c 256,30,31
 199.076923077 482.076923077 199.076923077 482.076923077 199.076923077 464.893491124 c 0,32,33
 199.076923077 443.090909091 199.076923077 443.090909091 188 430 c 256,34,35
 176 416 176 416 160 416 c 1,36,-1
 160 416 l 1,20,21
199 500 m 1,37,38
 182 500 182 500 171 513 c 128,-1,39
 159.923076923 525.923076923 159.923076923 525.923076923 159.923076923 543.106508876 c 0,40,41
 159.923076923 564.909090909 159.923076923 564.909090909 171 578 c 0,42,43
 183 592 183 592 199 592 c 256,44,45
 216 592 216 592 228 578 c 128,-1,46
 240 564 240 564 240 546 c 256,47,48
 240 527 240 527 228 513 c 0,49,50
 216.8 499.933333333 216.8 499.933333333 201.244444444 499.933333333 c 0,51,52
 200.133333333 499.933333333 200.133333333 499.933333333 199 500 c 1,53,-1
 199 500 l 1,37,38
EndSplineSet
EndChar

StartChar: parenleft
Encoding: 40 40 8
Width: 360
VWidth: 750
Flags: W
LayerCount: 2
Fore
SplineSet
199 0 m 1,0,1
 182 0 182 0 171 14 c 0,2,3
 159.923076923 26.9230769231 159.923076923 26.9230769231 159.923076923 43.2544378698 c 0,4,5
 159.923076923 64.9090909091 159.923076923 64.9090909091 171 78 c 256,6,7
 183 92 183 92 199 92 c 256,8,9
 216 92 216 92 228 78 c 128,-1,10
 240 64 240 64 240 46 c 128,-1,11
 240 28 240 28 228 14 c 128,-1,12
 216 0 216 0 199 0 c 1,13,-1
 199 0 l 1,0,1
160 83 m 1,14,15
 143 83 143 83 132 97 c 0,16,17
 120 111 120 111 120 129 c 256,18,19
 120 148 120 148 132 161 c 0,20,21
 144 175 144 175 160 175 c 256,22,23
 177 175 177 175 188 161 c 0,24,25
 199.076923077 148.076923077 199.076923077 148.076923077 199.076923077 131.74556213 c 0,26,27
 199.076923077 110.090909091 199.076923077 110.090909091 188 97 c 0,28,29
 176 83 176 83 160 83 c 1,30,-1
 160 83 l 1,14,15
120 166 m 1,31,32
 103 166 103 166 91 180 c 0,33,34
 79.9230769231 192.923076923 79.9230769231 192.923076923 79.9230769231 209.25443787 c 0,35,36
 79.9230769231 229.902097902 79.9230769231 229.902097902 91 244 c 0,37,38
 96 250 96 250 103 254 c 1,39,-1
 103 254 l 1,40,41
 97 257 97 257 91 263 c 0,42,43
 79.9230769231 276.846153846 79.9230769231 276.846153846 79.9230769231 293.24852071 c 0,44,45
 79.9230769231 315.916083916 79.9230769231 315.916083916 91 328 c 0,46,47
 96 334 96 334 103 338 c 1,48,-1
 103 338 l 1,49,50
 97 340 97 340 91 346 c 0,51,52
 79.9230769231 358.923076923 79.9230769231 358.923076923 79.9230769231 376.106508876 c 0,53,54
 79.9230769231 397.909090909 79.9230769231 397.909090909 91 411 c 0,55,56
 103 424 103 424 120 424 c 256,57,58
 137 424 137 424 148 411 c 0,59,60
 160 397 160 397 160 379 c 256,61,62
 160 360 160 360 148 346 c 0,63,64
 143 340 143 340 137 338 c 1,65,-1
 137 338 l 1,66,67
 143 334 143 334 148 328 c 0,68,69
 160 314 160 314 160 296 c 0,70,71
 160 277 160 277 148 263 c 0,72,73
 143 257 143 257 137 254 c 1,74,-1
 137 254 l 1,75,76
 143 250 143 250 148 244 c 0,77,78
 160 230 160 230 160 212 c 256,79,80
 160 193 160 193 148 180 c 0,81,82
 136 166 136 166 120 166 c 1,83,-1
 120 166 l 1,31,32
160 416 m 1,84,85
 143 416 143 416 132 430 c 0,86,87
 120 444 120 444 120 462 c 0,88,89
 120 481 120 481 132 495 c 0,90,91
 144 508 144 508 160 508 c 256,92,93
 177 508 177 508 188 495 c 256,94,95
 199.076923077 482.076923077 199.076923077 482.076923077 199.076923077 464.893491124 c 0,96,97
 199.076923077 443.090909091 199.076923077 443.090909091 188 430 c 256,98,99
 176 416 176 416 160 416 c 1,100,-1
 160 416 l 1,84,85
199 500 m 1,101,102
 182 500 182 500 171 513 c 128,-1,103
 159.923076923 525.923076923 159.923076923 525.923076923 159.923076923 543.106508876 c 0,104,105
 159.923076923 564.909090909 159.923076923 564.909090909 171 578 c 0,106,107
 183 592 183 592 199 592 c 256,108,109
 216 592 216 592 228 578 c 128,-1,110
 240 564 240 564 240 546 c 256,111,112
 240 527 240 527 228 513 c 0,113,114
 216.8 499.933333333 216.8 499.933333333 201.244444444 499.933333333 c 0,115,116
 200.133333333 499.933333333 200.133333333 499.933333333 199 500 c 1,117,-1
 199 500 l 1,101,102
EndSplineSet
EndChar

StartChar: parenright
Encoding: 41 41 9
Width: 360
VWidth: 750
Flags: W
LayerCount: 2
Fore
SplineSet
120 0 m 1,0,1
 103 0 103 0 91 14 c 0,2,3
 79.9230769231 26.9230769231 79.9230769231 26.9230769231 79.9230769231 43.2544378698 c 0,4,5
 79.9230769231 64.9090909091 79.9230769231 64.9090909091 91 78 c 0,6,7
 103 92 103 92 120 92 c 256,8,9
 137 92 137 92 148 78 c 0,10,11
 160 64 160 64 160 46 c 128,-1,12
 160 28 160 28 148 14 c 128,-1,13
 136 0 136 0 120 0 c 1,14,-1
 120 0 l 1,0,1
160 83 m 1,15,16
 143 83 143 83 132 97 c 0,17,18
 120 111 120 111 120 129 c 256,19,20
 120 148 120 148 132 161 c 0,21,22
 144 175 144 175 160 175 c 256,23,24
 177 175 177 175 188 161 c 0,25,26
 199.076923077 148.076923077 199.076923077 148.076923077 199.076923077 131.74556213 c 0,27,28
 199.076923077 110.090909091 199.076923077 110.090909091 188 97 c 0,29,30
 176 83 176 83 160 83 c 1,31,-1
 160 83 l 1,15,16
199 166 m 1,32,33
 182 166 182 166 171 180 c 0,34,35
 159.923076923 192.923076923 159.923076923 192.923076923 159.923076923 209.25443787 c 0,36,37
 159.923076923 229.902097902 159.923076923 229.902097902 171 244 c 0,38,39
 176 250 176 250 183 254 c 1,40,-1
 183 254 l 1,41,42
 177 257 177 257 171 263 c 0,43,44
 159.923076923 276.846153846 159.923076923 276.846153846 159.923076923 293.24852071 c 0,45,46
 159.923076923 315.916083916 159.923076923 315.916083916 171 328 c 0,47,48
 176 334 176 334 183 338 c 1,49,-1
 183 338 l 1,50,51
 177 340 177 340 171 346 c 0,52,53
 159.923076923 358.923076923 159.923076923 358.923076923 159.923076923 376.106508876 c 0,54,55
 159.923076923 397.909090909 159.923076923 397.909090909 171 411 c 0,56,57
 183 424 183 424 199 424 c 256,58,59
 216 424 216 424 228 411 c 0,60,61
 240 397 240 397 240 379 c 256,62,63
 240 360 240 360 228 346 c 0,64,65
 223 340 223 340 217 338 c 1,66,-1
 217 338 l 1,67,68
 223 334 223 334 228 328 c 0,69,70
 240 314 240 314 240 296 c 0,71,72
 240 277 240 277 228 263 c 0,73,74
 223 257 223 257 217 254 c 1,75,-1
 217 254 l 1,76,77
 223 250 223 250 228 244 c 0,78,79
 240 230 240 230 240 212 c 256,80,81
 240 193 240 193 228 180 c 0,82,83
 216 166 216 166 199 166 c 1,84,-1
 199 166 l 1,32,33
160 416 m 1,85,86
 143 416 143 416 132 430 c 0,87,88
 120 444 120 444 120 462 c 0,89,90
 120 481 120 481 132 495 c 0,91,92
 144 508 144 508 160 508 c 256,93,94
 177 508 177 508 188 495 c 256,95,96
 199.076923077 482.076923077 199.076923077 482.076923077 199.076923077 464.893491124 c 0,97,98
 199.076923077 443.090909091 199.076923077 443.090909091 188 430 c 256,99,100
 176 416 176 416 160 416 c 1,101,-1
 160 416 l 1,85,86
120 500 m 1,102,103
 103 500 103 500 91 513 c 0,104,105
 79.9230769231 525.923076923 79.9230769231 525.923076923 79.9230769231 543.106508876 c 0,106,107
 79.9230769231 564.909090909 79.9230769231 564.909090909 91 578 c 0,108,109
 103 592 103 592 120 592 c 256,110,111
 137 592 137 592 148 578 c 0,112,113
 160 564 160 564 160 546 c 256,114,115
 160 527 160 527 148 513 c 0,116,117
 136.8 499.933333333 136.8 499.933333333 122.115555556 499.933333333 c 0,118,119
 121.066666667 499.933333333 121.066666667 499.933333333 120 500 c 1,120,-1
 120 500 l 1,102,103
EndSplineSet
EndChar

StartChar: asterisk
Encoding: 42 42 10
Width: 360
VWidth: 750
Flags: W
LayerCount: 2
Fore
SplineSet
40 83 m 1,0,1
 23 83 23 83 12 97 c 0,2,3
 0 111 0 111 0 129 c 256,4,5
 0 148 0 148 12 161 c 0,6,7
 24 175 24 175 40 175 c 256,8,9
 57 175 57 175 68 161 c 0,10,11
 80 147 80 147 80 129 c 256,12,13
 80 110 80 110 68 97 c 0,14,15
 56 83 56 83 40 83 c 1,16,-1
 40 83 l 1,0,1
280 83 m 1,17,18
 263 83 263 83 251 97 c 0,19,20
 239.923076923 109.923076923 239.923076923 109.923076923 239.923076923 126.25443787 c 0,21,22
 239.923076923 147.909090909 239.923076923 147.909090909 251 161 c 0,23,24
 263 175 263 175 280 175 c 256,25,26
 297 175 297 175 308 161 c 0,27,28
 320 147 320 147 320 129 c 256,29,30
 320 110 320 110 308 97 c 0,31,32
 296 83 296 83 280 83 c 1,33,-1
 280 83 l 1,17,18
80 166 m 1,34,35
 63 166 63 166 52 180 c 0,36,37
 40 194 40 194 40 212 c 256,38,39
 40 230 40 230 52 244 c 128,-1,40
 64 258 64 258 80 258 c 256,41,42
 97 258 97 258 108 244 c 0,43,44
 120 230 120 230 120 212 c 256,45,46
 120 193 120 193 108 180 c 0,47,48
 96 166 96 166 80 166 c 1,49,-1
 80 166 l 1,34,35
160 83 m 1,50,51
 143 83 143 83 132 97 c 0,52,53
 120 111 120 111 120 129 c 256,54,55
 120 148 120 148 132 161 c 0,56,57
 137 167 137 167 143 171 c 1,58,-1
 143 171 l 1,59,60
 137 174 137 174 132 180 c 0,61,62
 120 194 120 194 120 212 c 256,63,64
 120 230 120 230 132 244 c 128,-1,65
 144 258 144 258 160 258 c 256,66,67
 177 258 177 258 188 244 c 0,68,69
 199.076923077 231.076923077 199.076923077 231.076923077 199.076923077 214.74556213 c 0,70,71
 199.076923077 193.090909091 199.076923077 193.090909091 188 180 c 0,72,73
 183 174 183 174 177 171 c 1,74,-1
 177 171 l 1,75,76
 183 168 183 168 188 161 c 0,77,78
 199.076923077 148.076923077 199.076923077 148.076923077 199.076923077 131.74556213 c 0,79,80
 199.076923077 110.090909091 199.076923077 110.090909091 188 97 c 0,81,82
 176 83 176 83 160 83 c 1,83,-1
 160 83 l 1,50,51
240 166 m 1,84,85
 223 166 223 166 212 180 c 0,86,87
 200 194 200 194 199 212 c 256,88,89
 199 230 199 230 212 244 c 0,90,91
 224 258 224 258 240 258 c 256,92,93
 257 258 257 258 269 244 c 0,94,95
 280.076923077 231.076923077 280.076923077 231.076923077 280.076923077 214.74556213 c 0,96,97
 280.076923077 193.090909091 280.076923077 193.090909091 269 180 c 0,98,99
 257 166 257 166 240 166 c 1,100,-1
 240 166 l 1,84,85
120 250 m 1,101,102
 103 250 103 250 91 263 c 0,103,104
 79.9230769231 276.846153846 79.9230769231 276.846153846 79.9230769231 293.24852071 c 0,105,106
 79.9230769231 315.916083916 79.9230769231 315.916083916 91 328 c 0,107,108
 102.2 341.066666667 102.2 341.066666667 117.755555556 341.066666667 c 0,109,110
 118.866666667 341.066666667 118.866666667 341.066666667 120 341 c 256,111,112
 121.133333333 341.066666667 121.133333333 341.066666667 122.24 341.066666667 c 0,113,114
 137.733333333 341.066666667 137.733333333 341.066666667 148 328 c 0,115,116
 160 314 160 314 160 296 c 0,117,118
 160 277 160 277 148 263 c 0,119,120
 136.8 249.933333333 136.8 249.933333333 122.115555556 249.933333333 c 0,121,122
 121.066666667 249.933333333 121.066666667 249.933333333 120 250 c 1,123,-1
 120 250 l 1,101,102
199 250 m 1,124,125
 182 250 182 250 171 263 c 256,126,127
 159.923076923 276.846153846 159.923076923 276.846153846 159.923076923 293.24852071 c 0,128,129
 159.923076923 315.916083916 159.923076923 315.916083916 171 328 c 0,130,131
 182.2 341.066666667 182.2 341.066666667 196.884444444 341.066666667 c 0,132,133
 197.933333333 341.066666667 197.933333333 341.066666667 199 341 c 256,134,135
 200.133333333 341.066666667 200.133333333 341.066666667 201.244444444 341.066666667 c 0,136,137
 216.8 341.066666667 216.8 341.066666667 228 328 c 0,138,139
 240 314 240 314 240 296 c 0,140,141
 240 277 240 277 228 263 c 0,142,143
 216.8 249.933333333 216.8 249.933333333 201.244444444 249.933333333 c 0,144,145
 200.133333333 249.933333333 200.133333333 249.933333333 199 250 c 1,146,-1
 199 250 l 1,124,125
80 333 m 1,147,148
 78.8666666667 332.933333333 78.8666666667 332.933333333 77.76 332.933333333 c 0,149,150
 62.2666666667 332.933333333 62.2666666667 332.933333333 52 346 c 0,151,152
 40 360 40 360 40 379 c 256,153,154
 40 398 40 398 52 411 c 128,-1,155
 64 424 64 424 80 424 c 256,156,157
 97 424 97 424 108 411 c 0,158,159
 120 397 120 397 120 379 c 256,160,161
 120 360 120 360 108 346 c 0,162,163
 96.8 332.933333333 96.8 332.933333333 82.1155555556 332.933333333 c 0,164,165
 81.0666666667 332.933333333 81.0666666667 332.933333333 80 333 c 1,166,-1
 80 333 l 1,147,148
240 333 m 1,167,168
 238.866666667 332.933333333 238.866666667 332.933333333 237.76 332.933333333 c 0,169,170
 222.266666667 332.933333333 222.266666667 332.933333333 212 346 c 0,171,172
 200 360 200 360 199 379 c 256,173,174
 199 398 199 398 212 411 c 0,175,176
 224 424 224 424 240 424 c 256,177,178
 257 424 257 424 269 411 c 0,179,180
 280.076923077 398.076923077 280.076923077 398.076923077 280.076923077 381.74556213 c 0,181,182
 280.076923077 360.097902098 280.076923077 360.097902098 269 346 c 0,183,184
 257.8 332.933333333 257.8 332.933333333 242.244444444 332.933333333 c 0,185,186
 241.133333333 332.933333333 241.133333333 332.933333333 240 333 c 1,187,-1
 240 333 l 1,167,168
40 416 m 1,188,189
 23 416 23 416 12 430 c 256,190,191
 0 444 0 444 0 462 c 0,192,193
 0 481 0 481 12 495 c 256,194,195
 24 508 24 508 40 508 c 256,196,197
 57 508 57 508 68 495 c 0,198,199
 80 481 80 481 80 462 c 128,-1,200
 80 443 80 443 68 430 c 0,201,202
 56 416 56 416 40 416 c 1,203,-1
 40 416 l 1,188,189
160 333 m 1,204,205
 158.866666667 332.933333333 158.866666667 332.933333333 157.76 332.933333333 c 0,206,207
 142.266666667 332.933333333 142.266666667 332.933333333 132 346 c 0,208,209
 120 360 120 360 120 379 c 256,210,211
 120 398 120 398 132 411 c 0,212,213
 137 417 137 417 143 421 c 1,214,-1
 143 421 l 1,215,216
 137 424 137 424 132 430 c 0,217,218
 120 444 120 444 120 462 c 0,219,220
 120 481 120 481 132 495 c 0,221,222
 144 508 144 508 160 508 c 256,223,224
 177 508 177 508 188 495 c 256,225,226
 199.076923077 482.076923077 199.076923077 482.076923077 199.076923077 464.893491124 c 0,227,228
 199.076923077 443.090909091 199.076923077 443.090909091 188 430 c 0,229,230
 183 424 183 424 177 421 c 1,231,-1
 177 421 l 1,232,233
 183 418 183 418 188 411 c 0,234,235
 199.076923077 398.076923077 199.076923077 398.076923077 199.076923077 381.74556213 c 0,236,237
 199.076923077 360.097902098 199.076923077 360.097902098 188 346 c 0,238,239
 176.8 332.933333333 176.8 332.933333333 162.115555556 332.933333333 c 0,240,241
 161.066666667 332.933333333 161.066666667 332.933333333 160 333 c 1,242,-1
 160 333 l 1,204,205
280 416 m 1,243,244
 263 416 263 416 251 430 c 0,245,246
 239.923076923 442.923076923 239.923076923 442.923076923 239.923076923 459.25443787 c 0,247,248
 239.923076923 480.902097902 239.923076923 480.902097902 251 495 c 0,249,250
 263 508 263 508 280 508 c 256,251,252
 297 508 297 508 308 495 c 0,253,254
 320 481 320 481 320 462 c 128,-1,255
 320 443 320 443 308 430 c 0,256,257
 296 416 296 416 280 416 c 1,258,-1
 280 416 l 1,243,244
EndSplineSet
EndChar

StartChar: plus
Encoding: 43 43 11
Width: 360
VWidth: 750
Flags: W
LayerCount: 2
Fore
SplineSet
160 83 m 1,0,1
 143 83 143 83 132 97 c 0,2,3
 120 111 120 111 120 129 c 256,4,5
 120 148 120 148 132 161 c 0,6,7
 137 167 137 167 143 171 c 1,8,-1
 143 171 l 1,9,10
 137 174 137 174 132 180 c 0,11,12
 120 194 120 194 120 212 c 256,13,14
 120 230 120 230 132 244 c 128,-1,15
 144 258 144 258 160 258 c 256,16,17
 177 258 177 258 188 244 c 0,18,19
 199.076923077 231.076923077 199.076923077 231.076923077 199.076923077 214.74556213 c 0,20,21
 199.076923077 193.090909091 199.076923077 193.090909091 188 180 c 0,22,23
 183 174 183 174 177 171 c 1,24,-1
 177 171 l 1,25,26
 183 168 183 168 188 161 c 0,27,28
 199.076923077 148.076923077 199.076923077 148.076923077 199.076923077 131.74556213 c 0,29,30
 199.076923077 110.090909091 199.076923077 110.090909091 188 97 c 0,31,32
 176 83 176 83 160 83 c 1,33,-1
 160 83 l 1,0,1
40 250 m 1,34,35
 23 250 23 250 12 263 c 256,36,37
 0 278 0 278 0 296 c 0,38,39
 0 316 0 316 12 328 c 0,40,41
 23.2 341.066666667 23.2 341.066666667 37.8844444444 341.066666667 c 0,42,43
 38.9333333333 341.066666667 38.9333333333 341.066666667 40 341 c 256,44,45
 41.1333333333 341.066666667 41.1333333333 341.066666667 42.24 341.066666667 c 0,46,47
 57.7333333333 341.066666667 57.7333333333 341.066666667 68 328 c 0,48,49
 80 314 80 314 80 296 c 0,50,51
 80 277 80 277 68 263 c 0,52,53
 56.8 249.933333333 56.8 249.933333333 42.1155555556 249.933333333 c 0,54,55
 41.0666666667 249.933333333 41.0666666667 249.933333333 40 250 c 1,56,-1
 40 250 l 1,34,35
120 250 m 1,57,58
 103 250 103 250 91 263 c 0,59,60
 79.9230769231 276.846153846 79.9230769231 276.846153846 79.9230769231 293.24852071 c 0,61,62
 79.9230769231 315.916083916 79.9230769231 315.916083916 91 328 c 0,63,64
 102.2 341.066666667 102.2 341.066666667 117.755555556 341.066666667 c 0,65,66
 118.866666667 341.066666667 118.866666667 341.066666667 120 341 c 256,67,68
 121.133333333 341.066666667 121.133333333 341.066666667 122.24 341.066666667 c 0,69,70
 137.733333333 341.066666667 137.733333333 341.066666667 148 328 c 0,71,72
 160 314 160 314 160 296 c 0,73,74
 160 277 160 277 148 263 c 0,75,76
 136.8 249.933333333 136.8 249.933333333 122.115555556 249.933333333 c 0,77,78
 121.066666667 249.933333333 121.066666667 249.933333333 120 250 c 1,79,-1
 120 250 l 1,57,58
199 250 m 1,80,81
 182 250 182 250 171 263 c 256,82,83
 159.923076923 276.846153846 159.923076923 276.846153846 159.923076923 293.24852071 c 0,84,85
 159.923076923 315.916083916 159.923076923 315.916083916 171 328 c 0,86,87
 182.2 341.066666667 182.2 341.066666667 196.884444444 341.066666667 c 0,88,89
 197.933333333 341.066666667 197.933333333 341.066666667 199 341 c 256,90,91
 200.133333333 341.066666667 200.133333333 341.066666667 201.244444444 341.066666667 c 0,92,93
 216.8 341.066666667 216.8 341.066666667 228 328 c 0,94,95
 240 314 240 314 240 296 c 0,96,97
 240 277 240 277 228 263 c 0,98,99
 216.8 249.933333333 216.8 249.933333333 201.244444444 249.933333333 c 0,100,101
 200.133333333 249.933333333 200.133333333 249.933333333 199 250 c 1,102,-1
 199 250 l 1,80,81
280 250 m 1,103,104
 263 250 263 250 251 263 c 0,105,106
 239.923076923 276.846153846 239.923076923 276.846153846 239.923076923 293.24852071 c 0,107,108
 239.923076923 315.916083916 239.923076923 315.916083916 251 328 c 0,109,110
 262.2 341.066666667 262.2 341.066666667 277.755555556 341.066666667 c 0,111,112
 278.866666667 341.066666667 278.866666667 341.066666667 280 341 c 256,113,114
 281.133333333 341.066666667 281.133333333 341.066666667 282.24 341.066666667 c 0,115,116
 297.733333333 341.066666667 297.733333333 341.066666667 308 328 c 0,117,118
 320 314 320 314 320 296 c 0,119,120
 320 277 320 277 308 263 c 0,121,122
 296.8 249.933333333 296.8 249.933333333 282.115555556 249.933333333 c 0,123,124
 281.066666667 249.933333333 281.066666667 249.933333333 280 250 c 1,125,-1
 280 250 l 1,103,104
160 333 m 1,126,127
 158.866666667 332.933333333 158.866666667 332.933333333 157.76 332.933333333 c 0,128,129
 142.266666667 332.933333333 142.266666667 332.933333333 132 346 c 0,130,131
 120 360 120 360 120 379 c 256,132,133
 120 398 120 398 132 411 c 0,134,135
 137 417 137 417 143 421 c 1,136,-1
 143 421 l 1,137,138
 137 424 137 424 132 430 c 0,139,140
 120 444 120 444 120 462 c 0,141,142
 120 481 120 481 132 495 c 0,143,144
 144 508 144 508 160 508 c 256,145,146
 177 508 177 508 188 495 c 256,147,148
 199.076923077 482.076923077 199.076923077 482.076923077 199.076923077 464.893491124 c 0,149,150
 199.076923077 443.090909091 199.076923077 443.090909091 188 430 c 0,151,152
 183 424 183 424 177 421 c 1,153,-1
 177 421 l 1,154,155
 183 418 183 418 188 411 c 0,156,157
 199.076923077 398.076923077 199.076923077 398.076923077 199.076923077 381.74556213 c 0,158,159
 199.076923077 360.097902098 199.076923077 360.097902098 188 346 c 0,160,161
 176.8 332.933333333 176.8 332.933333333 162.115555556 332.933333333 c 0,162,163
 161.066666667 332.933333333 161.066666667 332.933333333 160 333 c 1,164,-1
 160 333 l 1,126,127
EndSplineSet
EndChar

StartChar: comma
Encoding: 44 44 12
Width: 360
VWidth: 750
Flags: W
LayerCount: 2
Fore
SplineSet
120 -83 m 1,0,1
 103 -83 103 -83 91 -70 c 0,2,3
 79.9230769231 -57.0769230769 79.9230769231 -57.0769230769 79.9230769231 -40.7455621302 c 0,4,5
 79.9230769231 -18.0979020979 79.9230769231 -18.0979020979 91 -4 c 0,6,7
 102.142857143 8.07142857143 102.142857143 8.07142857143 117.596938776 8.07142857143 c 0,8,9
 118.785714286 8.07142857143 118.785714286 8.07142857143 120 8 c 256,10,11
 137 8 137 8 148 -4 c 0,12,13
 160 -18 160 -18 160 -38 c 256,14,15
 160 -57 160 -57 148 -70 c 0,16,17
 136.8 -83.0666666667 136.8 -83.0666666667 122.115555556 -83.0666666667 c 0,18,19
 121.066666667 -83.0666666667 121.066666667 -83.0666666667 120 -83 c 1,20,-1
 120 -83 l 1,0,1
160 0 m 1,21,22
 143 0 143 0 132 14 c 0,23,24
 120 28 120 28 120 46 c 0,25,26
 120 65 120 65 132 78 c 0,27,28
 144 92 144 92 160 92 c 256,29,30
 177 92 177 92 188 78 c 256,31,32
 199.076923077 65.0769230769 199.076923077 65.0769230769 199.076923077 48.7455621302 c 0,33,34
 199.076923077 28.0979020979 199.076923077 28.0979020979 188 14 c 0,35,36
 176 0 176 0 160 0 c 1,37,-1
 160 0 l 1,21,22
120 83 m 1,38,39
 103 83 103 83 91 97 c 0,40,41
 79.9230769231 109.923076923 79.9230769231 109.923076923 79.9230769231 126.25443787 c 0,42,43
 79.9230769231 147.909090909 79.9230769231 147.909090909 91 161 c 0,44,45
 103 175 103 175 120 175 c 256,46,47
 137 175 137 175 148 161 c 0,48,49
 160 147 160 147 160 129 c 256,50,51
 160 110 160 110 148 97 c 0,52,53
 136 83 136 83 120 83 c 1,54,-1
 120 83 l 1,38,39
199 83 m 1,55,56
 182 83 182 83 171 97 c 0,57,58
 159.923076923 109.923076923 159.923076923 109.923076923 159.923076923 126.25443787 c 0,59,60
 159.923076923 147.909090909 159.923076923 147.909090909 171 161 c 0,61,62
 183 175 183 175 199 175 c 256,63,64
 216 175 216 175 228 161 c 128,-1,65
 240 147 240 147 240 129 c 256,66,67
 240 110 240 110 228 97 c 0,68,69
 216 83 216 83 199 83 c 1,70,-1
 199 83 l 1,55,56
160 166 m 1,71,72
 143 166 143 166 132 180 c 0,73,74
 120 194 120 194 120 212 c 256,75,76
 120 230 120 230 132 244 c 128,-1,77
 144 258 144 258 160 258 c 256,78,79
 177 258 177 258 188 244 c 0,80,81
 199.076923077 231.076923077 199.076923077 231.076923077 199.076923077 214.74556213 c 0,82,83
 199.076923077 193.090909091 199.076923077 193.090909091 188 180 c 0,84,85
 176 166 176 166 160 166 c 1,86,-1
 160 166 l 1,71,72
EndSplineSet
EndChar

StartChar: hyphen
Encoding: 45 45 13
Width: 360
VWidth: 750
Flags: W
LayerCount: 2
Fore
SplineSet
40 250 m 1,0,1
 23 250 23 250 12 263 c 256,2,3
 0 278 0 278 0 296 c 0,4,5
 0 316 0 316 12 328 c 0,6,7
 23.2 341.066666667 23.2 341.066666667 37.8844444444 341.066666667 c 0,8,9
 38.9333333333 341.066666667 38.9333333333 341.066666667 40 341 c 256,10,11
 41.1333333333 341.066666667 41.1333333333 341.066666667 42.24 341.066666667 c 0,12,13
 57.7333333333 341.066666667 57.7333333333 341.066666667 68 328 c 0,14,15
 80 314 80 314 80 296 c 0,16,17
 80 277 80 277 68 263 c 0,18,19
 56.8 249.933333333 56.8 249.933333333 42.1155555556 249.933333333 c 0,20,21
 41.0666666667 249.933333333 41.0666666667 249.933333333 40 250 c 1,22,-1
 40 250 l 1,0,1
120 250 m 1,23,24
 103 250 103 250 91 263 c 0,25,26
 79.9230769231 276.846153846 79.9230769231 276.846153846 79.9230769231 293.24852071 c 0,27,28
 79.9230769231 315.916083916 79.9230769231 315.916083916 91 328 c 0,29,30
 102.2 341.066666667 102.2 341.066666667 117.755555556 341.066666667 c 0,31,32
 118.866666667 341.066666667 118.866666667 341.066666667 120 341 c 256,33,34
 121.133333333 341.066666667 121.133333333 341.066666667 122.24 341.066666667 c 0,35,36
 137.733333333 341.066666667 137.733333333 341.066666667 148 328 c 0,37,38
 160 314 160 314 160 296 c 0,39,40
 160 277 160 277 148 263 c 0,41,42
 136.8 249.933333333 136.8 249.933333333 122.115555556 249.933333333 c 0,43,44
 121.066666667 249.933333333 121.066666667 249.933333333 120 250 c 1,45,-1
 120 250 l 1,23,24
199 250 m 1,46,47
 182 250 182 250 171 263 c 256,48,49
 159.923076923 276.846153846 159.923076923 276.846153846 159.923076923 293.24852071 c 0,50,51
 159.923076923 315.916083916 159.923076923 315.916083916 171 328 c 0,52,53
 182.2 341.066666667 182.2 341.066666667 196.884444444 341.066666667 c 0,54,55
 197.933333333 341.066666667 197.933333333 341.066666667 199 341 c 256,56,57
 200.133333333 341.066666667 200.133333333 341.066666667 201.244444444 341.066666667 c 0,58,59
 216.8 341.066666667 216.8 341.066666667 228 328 c 0,60,61
 240 314 240 314 240 296 c 0,62,63
 240 277 240 277 228 263 c 0,64,65
 216.8 249.933333333 216.8 249.933333333 201.244444444 249.933333333 c 0,66,67
 200.133333333 249.933333333 200.133333333 249.933333333 199 250 c 1,68,-1
 199 250 l 1,46,47
280 250 m 1,69,70
 263 250 263 250 251 263 c 0,71,72
 239.923076923 276.846153846 239.923076923 276.846153846 239.923076923 293.24852071 c 0,73,74
 239.923076923 315.916083916 239.923076923 315.916083916 251 328 c 0,75,76
 262.2 341.066666667 262.2 341.066666667 277.755555556 341.066666667 c 0,77,78
 278.866666667 341.066666667 278.866666667 341.066666667 280 341 c 256,79,80
 281.133333333 341.066666667 281.133333333 341.066666667 282.24 341.066666667 c 0,81,82
 297.733333333 341.066666667 297.733333333 341.066666667 308 328 c 0,83,84
 320 314 320 314 320 296 c 0,85,86
 320 277 320 277 308 263 c 0,87,88
 296.8 249.933333333 296.8 249.933333333 282.115555556 249.933333333 c 0,89,90
 281.066666667 249.933333333 281.066666667 249.933333333 280 250 c 1,91,-1
 280 250 l 1,69,70
EndSplineSet
EndChar

StartChar: period
Encoding: 46 46 14
Width: 360
VWidth: 750
Flags: W
LayerCount: 2
Fore
SplineSet
160 0 m 1,0,1
 143 0 143 0 132 14 c 0,2,3
 120 28 120 28 120 46 c 0,4,5
 120 65 120 65 132 78 c 0,6,7
 144 92 144 92 160 92 c 256,8,9
 177 92 177 92 188 78 c 256,10,11
 199.076923077 65.0769230769 199.076923077 65.0769230769 199.076923077 48.7455621302 c 0,12,13
 199.076923077 28.0979020979 199.076923077 28.0979020979 188 14 c 0,14,15
 176 0 176 0 160 0 c 1,16,-1
 160 0 l 1,0,1
120 83 m 1,17,18
 103 83 103 83 91 97 c 0,19,20
 79.9230769231 109.923076923 79.9230769231 109.923076923 79.9230769231 126.25443787 c 0,21,22
 79.9230769231 147.909090909 79.9230769231 147.909090909 91 161 c 0,23,24
 103 175 103 175 120 175 c 256,25,26
 137 175 137 175 148 161 c 0,27,28
 160 147 160 147 160 129 c 256,29,30
 160 110 160 110 148 97 c 0,31,32
 136 83 136 83 120 83 c 1,33,-1
 120 83 l 1,17,18
199 83 m 1,34,35
 182 83 182 83 171 97 c 0,36,37
 159.923076923 109.923076923 159.923076923 109.923076923 159.923076923 126.25443787 c 0,38,39
 159.923076923 147.909090909 159.923076923 147.909090909 171 161 c 0,40,41
 183 175 183 175 199 175 c 256,42,43
 216 175 216 175 228 161 c 128,-1,44
 240 147 240 147 240 129 c 256,45,46
 240 110 240 110 228 97 c 0,47,48
 216 83 216 83 199 83 c 1,49,-1
 199 83 l 1,34,35
160 166 m 1,50,51
 143 166 143 166 132 180 c 0,52,53
 120 194 120 194 120 212 c 256,54,55
 120 230 120 230 132 244 c 128,-1,56
 144 258 144 258 160 258 c 256,57,58
 177 258 177 258 188 244 c 0,59,60
 199.076923077 231.076923077 199.076923077 231.076923077 199.076923077 214.74556213 c 0,61,62
 199.076923077 193.090909091 199.076923077 193.090909091 188 180 c 0,63,64
 176 166 176 166 160 166 c 1,65,-1
 160 166 l 1,50,51
EndSplineSet
EndChar

StartChar: slash
Encoding: 47 47 15
Width: 360
VWidth: 750
Flags: W
LayerCount: 2
Fore
SplineSet
40 0 m 1,0,1
 23 0 23 0 12 14 c 0,2,3
 0 28 0 28 0 46 c 0,4,5
 0 65 0 65 12 78 c 256,6,7
 24 92 24 92 40 92 c 256,8,9
 57 92 57 92 68 78 c 0,10,11
 80 64 80 64 80 46 c 128,-1,12
 80 28 80 28 68 14 c 128,-1,13
 56 0 56 0 40 0 c 1,14,-1
 40 0 l 1,0,1
80 83 m 1,15,16
 63 83 63 83 52 97 c 0,17,18
 40 111 40 111 40 129 c 256,19,20
 40 148 40 148 52 161 c 0,21,22
 64 175 64 175 80 175 c 256,23,24
 97 175 97 175 108 161 c 0,25,26
 120 147 120 147 120 129 c 256,27,28
 120 110 120 110 108 97 c 0,29,30
 96 83 96 83 80 83 c 1,31,-1
 80 83 l 1,15,16
120 166 m 1,32,33
 103 166 103 166 91 180 c 0,34,35
 79.9230769231 192.923076923 79.9230769231 192.923076923 79.9230769231 209.25443787 c 0,36,37
 79.9230769231 229.902097902 79.9230769231 229.902097902 91 244 c 0,38,39
 103 258 103 258 120 258 c 256,40,41
 137 258 137 258 148 244 c 0,42,43
 160 230 160 230 160 212 c 256,44,45
 160 193 160 193 148 180 c 0,46,47
 136 166 136 166 120 166 c 1,48,-1
 120 166 l 1,32,33
160 250 m 1,49,50
 143 250 143 250 132 263 c 0,51,52
 120 278 120 278 120 296 c 0,53,54
 120 316 120 316 132 328 c 0,55,56
 143.2 341.066666667 143.2 341.066666667 157.884444444 341.066666667 c 0,57,58
 158.933333333 341.066666667 158.933333333 341.066666667 160 341 c 256,59,60
 161.133333333 341.066666667 161.133333333 341.066666667 162.24 341.066666667 c 0,61,62
 177.733333333 341.066666667 177.733333333 341.066666667 188 328 c 0,63,64
 199.076923077 315.076923077 199.076923077 315.076923077 199.076923077 298.74556213 c 0,65,66
 199.076923077 277.097902098 199.076923077 277.097902098 188 263 c 256,67,68
 176.8 249.933333333 176.8 249.933333333 162.115555556 249.933333333 c 0,69,70
 161.066666667 249.933333333 161.066666667 249.933333333 160 250 c 1,71,-1
 160 250 l 1,49,50
199 333 m 1,72,73
 197.866666667 332.933333333 197.866666667 332.933333333 196.76 332.933333333 c 0,74,75
 181.266666667 332.933333333 181.266666667 332.933333333 171 346 c 0,76,77
 159.923076923 358.923076923 159.923076923 358.923076923 159.923076923 376.106508876 c 0,78,79
 159.923076923 397.909090909 159.923076923 397.909090909 171 411 c 0,80,81
 183 424 183 424 199 424 c 256,82,83
 216 424 216 424 228 411 c 0,84,85
 240 397 240 397 240 379 c 256,86,87
 240 360 240 360 228 346 c 0,88,89
 216.8 332.933333333 216.8 332.933333333 201.244444444 332.933333333 c 0,90,91
 200.133333333 332.933333333 200.133333333 332.933333333 199 333 c 1,92,-1
 199 333 l 1,72,73
240 416 m 1,93,94
 223 416 223 416 212 430 c 0,95,96
 200 444 200 444 199 462 c 0,97,98
 199 481 199 481 212 495 c 0,99,100
 224 508 224 508 240 508 c 256,101,102
 257 508 257 508 269 495 c 0,103,104
 280.076923077 482.076923077 280.076923077 482.076923077 280.076923077 464.893491124 c 0,105,106
 280.076923077 443.090909091 280.076923077 443.090909091 269 430 c 0,107,108
 257 416 257 416 240 416 c 1,109,-1
 240 416 l 1,93,94
280 500 m 1,110,111
 263 500 263 500 251 513 c 0,112,113
 239.923076923 525.923076923 239.923076923 525.923076923 239.923076923 543.106508876 c 0,114,115
 239.923076923 564.909090909 239.923076923 564.909090909 251 578 c 0,116,117
 263 592 263 592 280 592 c 256,118,119
 297 592 297 592 308 578 c 0,120,121
 320 564 320 564 320 546 c 256,122,123
 320 527 320 527 308 513 c 0,124,125
 296.8 499.933333333 296.8 499.933333333 282.115555556 499.933333333 c 0,126,127
 281.066666667 499.933333333 281.066666667 499.933333333 280 500 c 1,128,-1
 280 500 l 1,110,111
EndSplineSet
EndChar

StartChar: zero
Encoding: 48 48 16
Width: 360
VWidth: 750
Flags: W
LayerCount: 2
Fore
SplineSet
120 0 m 1,0,1
 103 0 103 0 91 14 c 0,2,3
 79.9230769231 26.9230769231 79.9230769231 26.9230769231 79.9230769231 43.2544378698 c 0,4,5
 79.9230769231 64.9090909091 79.9230769231 64.9090909091 91 78 c 0,6,7
 103 92 103 92 120 92 c 256,8,9
 137 92 137 92 148 78 c 0,10,11
 160 64 160 64 160 46 c 128,-1,12
 160 28 160 28 148 14 c 128,-1,13
 136 0 136 0 120 0 c 1,14,-1
 120 0 l 1,0,1
199 0 m 1,15,16
 182 0 182 0 171 14 c 0,17,18
 159.923076923 26.9230769231 159.923076923 26.9230769231 159.923076923 43.2544378698 c 0,19,20
 159.923076923 64.9090909091 159.923076923 64.9090909091 171 78 c 256,21,22
 183 92 183 92 199 92 c 256,23,24
 216 92 216 92 228 78 c 128,-1,25
 240 64 240 64 240 46 c 128,-1,26
 240 28 240 28 228 14 c 128,-1,27
 216 0 216 0 199 0 c 1,28,-1
 199 0 l 1,15,16
80 83 m 1,29,30
 63 83 63 83 52 97 c 0,31,32
 40 111 40 111 40 129 c 256,33,34
 40 148 40 148 52 161 c 0,35,36
 57 167 57 167 63 171 c 1,37,-1
 63 171 l 1,38,39
 57 174 57 174 52 180 c 0,40,41
 40 194 40 194 40 212 c 256,42,43
 40 230 40 230 52 244 c 0,44,45
 57 250 57 250 63 254 c 1,46,-1
 63 254 l 1,47,48
 57 257 57 257 52 263 c 0,49,50
 40 278 40 278 40 296 c 0,51,52
 40 316 40 316 52 328 c 0,53,54
 57 334 57 334 63 338 c 1,55,-1
 63 338 l 1,56,57
 57 340 57 340 52 346 c 0,58,59
 40 360 40 360 40 379 c 256,60,61
 40 398 40 398 52 411 c 0,62,63
 57 417 57 417 63 421 c 1,64,-1
 63 421 l 1,65,66
 57 424 57 424 52 430 c 0,67,68
 40 444 40 444 40 462 c 0,69,70
 40 481 40 481 52 495 c 0,71,72
 64 508 64 508 80 508 c 256,73,74
 97 508 97 508 108 495 c 0,75,76
 120 481 120 481 120 462 c 128,-1,77
 120 443 120 443 108 430 c 0,78,79
 103 424 103 424 96 421 c 1,80,-1
 96 421 l 1,81,82
 102 418 102 418 108 411 c 0,83,84
 120 397 120 397 120 379 c 256,85,86
 120 360 120 360 108 346 c 0,87,88
 103 340 103 340 96 338 c 1,89,-1
 96 338 l 1,90,91
 102 334 102 334 108 328 c 0,92,93
 120 314 120 314 120 296 c 0,94,95
 120 277 120 277 108 263 c 0,96,97
 103 257 103 257 96 254 c 1,98,-1
 96 254 l 1,99,100
 102 250 102 250 108 244 c 0,101,102
 120 230 120 230 120 212 c 256,103,104
 120 193 120 193 108 180 c 0,105,106
 103 174 103 174 96 171 c 1,107,-1
 96 171 l 1,108,109
 102 168 102 168 108 161 c 0,110,111
 120 147 120 147 120 129 c 256,112,113
 120 110 120 110 108 97 c 0,114,115
 96 83 96 83 80 83 c 1,116,-1
 80 83 l 1,29,30
240 83 m 1,117,118
 223 83 223 83 212 97 c 0,119,120
 200 111 200 111 199 129 c 256,121,122
 199 148 199 148 212 161 c 0,123,124
 217 167 217 167 223 171 c 1,125,-1
 223 171 l 1,126,127
 217 174 217 174 212 180 c 0,128,129
 200 194 200 194 199 212 c 256,130,131
 199 230 199 230 212 244 c 0,132,133
 217 250 217 250 223 254 c 1,134,-1
 223 254 l 1,135,136
 217 257 217 257 212 263 c 0,137,138
 200 278 200 278 199 296 c 0,139,140
 199 316 199 316 212 328 c 0,141,142
 217 334 217 334 223 338 c 1,143,-1
 223 338 l 1,144,145
 217 340 217 340 212 346 c 0,146,147
 200 360 200 360 199 379 c 256,148,149
 199 398 199 398 212 411 c 0,150,151
 217 417 217 417 223 421 c 1,152,-1
 223 421 l 1,153,154
 217 424 217 424 212 430 c 0,155,156
 200 444 200 444 199 462 c 0,157,158
 199 481 199 481 212 495 c 0,159,160
 224 508 224 508 240 508 c 256,161,162
 257 508 257 508 269 495 c 0,163,164
 280.076923077 482.076923077 280.076923077 482.076923077 280.076923077 464.893491124 c 0,165,166
 280.076923077 443.090909091 280.076923077 443.090909091 269 430 c 0,167,168
 264 424 264 424 256 421 c 1,169,-1
 256 421 l 1,170,171
 262 418 262 418 269 411 c 0,172,173
 280.076923077 398.076923077 280.076923077 398.076923077 280.076923077 381.74556213 c 0,174,175
 280.076923077 360.097902098 280.076923077 360.097902098 269 346 c 0,176,177
 264 340 264 340 256 338 c 1,178,-1
 256 338 l 1,179,180
 262 334 262 334 269 328 c 0,181,182
 280.076923077 315.076923077 280.076923077 315.076923077 280.076923077 298.74556213 c 0,183,184
 280.076923077 277.097902098 280.076923077 277.097902098 269 263 c 0,185,186
 264 257 264 257 256 254 c 1,187,-1
 256 254 l 1,188,189
 262 250 262 250 269 244 c 0,190,191
 280.076923077 231.076923077 280.076923077 231.076923077 280.076923077 214.74556213 c 0,192,193
 280.076923077 193.090909091 280.076923077 193.090909091 269 180 c 0,194,195
 264 174 264 174 256 171 c 1,196,-1
 256 171 l 1,197,198
 262 168 262 168 269 161 c 0,199,200
 280.076923077 148.076923077 280.076923077 148.076923077 280.076923077 131.74556213 c 0,201,202
 280.076923077 110.090909091 280.076923077 110.090909091 269 97 c 0,203,204
 257 83 257 83 240 83 c 1,205,-1
 240 83 l 1,117,118
120 500 m 1,206,207
 103 500 103 500 91 513 c 0,208,209
 79.9230769231 525.923076923 79.9230769231 525.923076923 79.9230769231 543.106508876 c 0,210,211
 79.9230769231 564.909090909 79.9230769231 564.909090909 91 578 c 0,212,213
 103 592 103 592 120 592 c 256,214,215
 137 592 137 592 148 578 c 0,216,217
 160 564 160 564 160 546 c 256,218,219
 160 527 160 527 148 513 c 0,220,221
 136.8 499.933333333 136.8 499.933333333 122.115555556 499.933333333 c 0,222,223
 121.066666667 499.933333333 121.066666667 499.933333333 120 500 c 1,224,-1
 120 500 l 1,206,207
199 500 m 1,225,226
 182 500 182 500 171 513 c 128,-1,227
 159.923076923 525.923076923 159.923076923 525.923076923 159.923076923 543.106508876 c 0,228,229
 159.923076923 564.909090909 159.923076923 564.909090909 171 578 c 0,230,231
 183 592 183 592 199 592 c 256,232,233
 216 592 216 592 228 578 c 128,-1,234
 240 564 240 564 240 546 c 256,235,236
 240 527 240 527 228 513 c 0,237,238
 216.8 499.933333333 216.8 499.933333333 201.244444444 499.933333333 c 0,239,240
 200.133333333 499.933333333 200.133333333 499.933333333 199 500 c 1,241,-1
 199 500 l 1,225,226
EndSplineSet
EndChar

StartChar: one
Encoding: 49 49 17
Width: 360
VWidth: 750
Flags: W
LayerCount: 2
Fore
SplineSet
80 0 m 1,0,1
 63 0 63 0 52 14 c 0,2,3
 40 28 40 28 40 46 c 0,4,5
 40 65 40 65 52 78 c 0,6,7
 64 92 64 92 80 92 c 256,8,9
 97 92 97 92 108 78 c 0,10,11
 120 64 120 64 120 46 c 128,-1,12
 120 28 120 28 108 14 c 128,-1,13
 96 0 96 0 80 0 c 1,14,-1
 80 0 l 1,0,1
240 0 m 1,15,16
 223 0 223 0 212 14 c 0,17,18
 200 28 200 28 199 46 c 0,19,20
 199 65 199 65 212 78 c 0,21,22
 224 92 224 92 240 92 c 256,23,24
 257 92 257 92 269 78 c 0,25,26
 280.076923077 65.0769230769 280.076923077 65.0769230769 280.076923077 48.7455621302 c 0,27,28
 280.076923077 28.0979020979 280.076923077 28.0979020979 269 14 c 0,29,30
 257 0 257 0 240 0 c 1,31,-1
 240 0 l 1,15,16
80 416 m 1,32,33
 63 416 63 416 52 430 c 0,34,35
 40 444 40 444 40 462 c 0,36,37
 40 481 40 481 52 495 c 0,38,39
 64 508 64 508 80 508 c 256,40,41
 97 508 97 508 108 495 c 0,42,43
 120 481 120 481 120 462 c 128,-1,44
 120 443 120 443 108 430 c 0,45,46
 96 416 96 416 80 416 c 1,47,-1
 80 416 l 1,32,33
160 0 m 1,48,49
 143 0 143 0 132 14 c 0,50,51
 120 28 120 28 120 46 c 0,52,53
 120 65 120 65 132 78 c 0,54,55
 137 84 137 84 143 87 c 1,56,-1
 143 87 l 1,57,58
 137 90 137 90 132 97 c 0,59,60
 120 111 120 111 120 129 c 256,61,62
 120 148 120 148 132 161 c 0,63,64
 137 167 137 167 143 171 c 1,65,-1
 143 171 l 1,66,67
 137 174 137 174 132 180 c 0,68,69
 120 194 120 194 120 212 c 256,70,71
 120 230 120 230 132 244 c 0,72,73
 137 250 137 250 143 254 c 1,74,-1
 143 254 l 1,75,76
 137 257 137 257 132 263 c 0,77,78
 120 278 120 278 120 296 c 0,79,80
 120 316 120 316 132 328 c 0,81,82
 137 334 137 334 143 338 c 1,83,-1
 143 338 l 1,84,85
 137 340 137 340 132 346 c 0,86,87
 120 360 120 360 120 379 c 256,88,89
 120 398 120 398 132 411 c 0,90,91
 137 417 137 417 143 421 c 1,92,-1
 143 421 l 1,93,94
 137 424 137 424 132 430 c 0,95,96
 120 444 120 444 120 462 c 0,97,98
 120 481 120 481 132 495 c 0,99,100
 137 501 137 501 143 504 c 1,101,-1
 143 504 l 1,102,103
 137 507 137 507 132 513 c 0,104,105
 120 527 120 527 120 546 c 256,106,107
 120 565 120 565 132 578 c 0,108,109
 144 592 144 592 160 592 c 256,110,111
 177 592 177 592 188 578 c 0,112,113
 199.076923077 565.076923077 199.076923077 565.076923077 199.076923077 548.74556213 c 0,114,115
 199.076923077 527.097902098 199.076923077 527.097902098 188 513 c 0,116,117
 183 507 183 507 177 504 c 1,118,-1
 177 504 l 1,119,120
 183 501 183 501 188 495 c 0,121,122
 199.076923077 482.076923077 199.076923077 482.076923077 199.076923077 464.893491124 c 0,123,124
 199.076923077 443.090909091 199.076923077 443.090909091 188 430 c 0,125,126
 183 424 183 424 177 421 c 1,127,-1
 177 421 l 1,128,129
 183 418 183 418 188 411 c 0,130,131
 199.076923077 398.076923077 199.076923077 398.076923077 199.076923077 381.74556213 c 0,132,133
 199.076923077 360.097902098 199.076923077 360.097902098 188 346 c 0,134,135
 183 340 183 340 177 338 c 1,136,-1
 177 338 l 1,137,138
 183 334 183 334 188 328 c 0,139,140
 199.076923077 315.076923077 199.076923077 315.076923077 199.076923077 298.74556213 c 0,141,142
 199.076923077 277.097902098 199.076923077 277.097902098 188 263 c 0,143,144
 183 257 183 257 177 254 c 1,145,-1
 177 254 l 1,146,147
 183 250 183 250 188 244 c 0,148,149
 199.076923077 231.076923077 199.076923077 231.076923077 199.076923077 214.74556213 c 0,150,151
 199.076923077 193.090909091 199.076923077 193.090909091 188 180 c 0,152,153
 183 174 183 174 177 171 c 1,154,-1
 177 171 l 1,155,156
 183 168 183 168 188 161 c 0,157,158
 199.076923077 148.076923077 199.076923077 148.076923077 199.076923077 131.74556213 c 0,159,160
 199.076923077 110.090909091 199.076923077 110.090909091 188 97 c 0,161,162
 183 91 183 91 177 87 c 1,163,-1
 177 87 l 1,164,165
 183 84 183 84 188 78 c 0,166,167
 199.076923077 65.0769230769 199.076923077 65.0769230769 199.076923077 48.7455621302 c 0,168,169
 199.076923077 28.0979020979 199.076923077 28.0979020979 188 14 c 0,170,171
 176 0 176 0 160 0 c 1,172,-1
 160 0 l 1,48,49
EndSplineSet
EndChar

StartChar: two
Encoding: 50 50 18
Width: 360
VWidth: 750
Flags: W
LayerCount: 2
Fore
SplineSet
40 0 m 1,0,1
 23 0 23 0 12 14 c 0,2,3
 0 28 0 28 0 46 c 0,4,5
 0 65 0 65 12 78 c 256,6,7
 24 92 24 92 40 92 c 256,8,9
 57 92 57 92 68 78 c 0,10,11
 80 64 80 64 80 46 c 128,-1,12
 80 28 80 28 68 14 c 128,-1,13
 56 0 56 0 40 0 c 1,14,-1
 40 0 l 1,0,1
120 0 m 1,15,16
 103 0 103 0 91 14 c 0,17,18
 79.9230769231 26.9230769231 79.9230769231 26.9230769231 79.9230769231 43.2544378698 c 0,19,20
 79.9230769231 64.9090909091 79.9230769231 64.9090909091 91 78 c 0,21,22
 103 92 103 92 120 92 c 256,23,24
 137 92 137 92 148 78 c 0,25,26
 160 64 160 64 160 46 c 128,-1,27
 160 28 160 28 148 14 c 128,-1,28
 136 0 136 0 120 0 c 1,29,-1
 120 0 l 1,15,16
199 0 m 1,30,31
 182 0 182 0 171 14 c 0,32,33
 159.923076923 26.9230769231 159.923076923 26.9230769231 159.923076923 43.2544378698 c 0,34,35
 159.923076923 64.9090909091 159.923076923 64.9090909091 171 78 c 256,36,37
 183 92 183 92 199 92 c 256,38,39
 216 92 216 92 228 78 c 128,-1,40
 240 64 240 64 240 46 c 128,-1,41
 240 28 240 28 228 14 c 128,-1,42
 216 0 216 0 199 0 c 1,43,-1
 199 0 l 1,30,31
280 0 m 1,44,45
 263 0 263 0 251 14 c 0,46,47
 239.923076923 26.9230769231 239.923076923 26.9230769231 239.923076923 43.2544378698 c 0,48,49
 239.923076923 64.9090909091 239.923076923 64.9090909091 251 78 c 0,50,51
 263 92 263 92 280 92 c 256,52,53
 297 92 297 92 308 78 c 0,54,55
 320 64 320 64 320 46 c 128,-1,56
 320 28 320 28 308 14 c 128,-1,57
 296 0 296 0 280 0 c 1,58,-1
 280 0 l 1,44,45
80 83 m 1,59,60
 63 83 63 83 52 97 c 0,61,62
 40 111 40 111 40 129 c 256,63,64
 40 148 40 148 52 161 c 0,65,66
 64 175 64 175 80 175 c 256,67,68
 97 175 97 175 108 161 c 0,69,70
 120 147 120 147 120 129 c 256,71,72
 120 110 120 110 108 97 c 0,73,74
 96 83 96 83 80 83 c 1,75,-1
 80 83 l 1,59,60
120 166 m 1,76,77
 103 166 103 166 91 180 c 0,78,79
 79.9230769231 192.923076923 79.9230769231 192.923076923 79.9230769231 209.25443787 c 0,80,81
 79.9230769231 229.902097902 79.9230769231 229.902097902 91 244 c 0,82,83
 103 258 103 258 120 258 c 256,84,85
 137 258 137 258 148 244 c 0,86,87
 160 230 160 230 160 212 c 256,88,89
 160 193 160 193 148 180 c 0,90,91
 136 166 136 166 120 166 c 1,92,-1
 120 166 l 1,76,77
199 250 m 1,93,94
 182 250 182 250 171 263 c 256,95,96
 159.923076923 276.846153846 159.923076923 276.846153846 159.923076923 293.24852071 c 0,97,98
 159.923076923 315.916083916 159.923076923 315.916083916 171 328 c 0,99,100
 182.2 341.066666667 182.2 341.066666667 196.884444444 341.066666667 c 0,101,102
 197.933333333 341.066666667 197.933333333 341.066666667 199 341 c 256,103,104
 200.133333333 341.066666667 200.133333333 341.066666667 201.244444444 341.066666667 c 0,105,106
 216.8 341.066666667 216.8 341.066666667 228 328 c 0,107,108
 240 314 240 314 240 296 c 0,109,110
 240 277 240 277 228 263 c 0,111,112
 216.8 249.933333333 216.8 249.933333333 201.244444444 249.933333333 c 0,113,114
 200.133333333 249.933333333 200.133333333 249.933333333 199 250 c 1,115,-1
 199 250 l 1,93,94
240 333 m 1,116,117
 238.866666667 332.933333333 238.866666667 332.933333333 237.76 332.933333333 c 0,118,119
 222.266666667 332.933333333 222.266666667 332.933333333 212 346 c 0,120,121
 200 360 200 360 199 379 c 256,122,123
 199 398 199 398 212 411 c 0,124,125
 224 424 224 424 240 424 c 256,126,127
 257 424 257 424 269 411 c 0,128,129
 280.076923077 398.076923077 280.076923077 398.076923077 280.076923077 381.74556213 c 0,130,131
 280.076923077 360.097902098 280.076923077 360.097902098 269 346 c 0,132,133
 257.8 332.933333333 257.8 332.933333333 242.244444444 332.933333333 c 0,134,135
 241.133333333 332.933333333 241.133333333 332.933333333 240 333 c 1,136,-1
 240 333 l 1,116,117
40 416 m 1,137,138
 23 416 23 416 12 430 c 256,139,140
 0 444 0 444 0 462 c 0,141,142
 0 481 0 481 12 495 c 256,143,144
 24 508 24 508 40 508 c 256,145,146
 57 508 57 508 68 495 c 0,147,148
 80 481 80 481 80 462 c 128,-1,149
 80 443 80 443 68 430 c 0,150,151
 56 416 56 416 40 416 c 1,152,-1
 40 416 l 1,137,138
280 416 m 1,153,154
 263 416 263 416 251 430 c 0,155,156
 239.923076923 442.923076923 239.923076923 442.923076923 239.923076923 459.25443787 c 0,157,158
 239.923076923 480.902097902 239.923076923 480.902097902 251 495 c 0,159,160
 263 508 263 508 280 508 c 256,161,162
 297 508 297 508 308 495 c 0,163,164
 320 481 320 481 320 462 c 128,-1,165
 320 443 320 443 308 430 c 0,166,167
 296 416 296 416 280 416 c 1,168,-1
 280 416 l 1,153,154
80 500 m 1,169,170
 63 500 63 500 52 513 c 0,171,172
 40 527 40 527 40 546 c 256,173,174
 40 565 40 565 52 578 c 0,175,176
 64 592 64 592 80 592 c 256,177,178
 97 592 97 592 108 578 c 0,179,180
 120 564 120 564 120 546 c 256,181,182
 120 527 120 527 108 513 c 0,183,184
 96.8 499.933333333 96.8 499.933333333 82.1155555556 499.933333333 c 0,185,186
 81.0666666667 499.933333333 81.0666666667 499.933333333 80 500 c 1,187,-1
 80 500 l 1,169,170
160 500 m 1,188,189
 143 500 143 500 132 513 c 0,190,191
 120 527 120 527 120 546 c 256,192,193
 120 565 120 565 132 578 c 0,194,195
 144 592 144 592 160 592 c 256,196,197
 177 592 177 592 188 578 c 0,198,199
 199.076923077 565.076923077 199.076923077 565.076923077 199.076923077 548.74556213 c 0,200,201
 199.076923077 527.097902098 199.076923077 527.097902098 188 513 c 0,202,203
 176.8 499.933333333 176.8 499.933333333 162.115555556 499.933333333 c 0,204,205
 161.066666667 499.933333333 161.066666667 499.933333333 160 500 c 1,206,-1
 160 500 l 1,188,189
240 500 m 1,207,208
 223 500 223 500 212 513 c 0,209,210
 200 527 200 527 199 546 c 256,211,212
 199 565 199 565 212 578 c 0,213,214
 224 592 224 592 240 592 c 256,215,216
 257 592 257 592 269 578 c 0,217,218
 280.076923077 565.076923077 280.076923077 565.076923077 280.076923077 548.74556213 c 0,219,220
 280.076923077 527.097902098 280.076923077 527.097902098 269 513 c 0,221,222
 257.8 499.933333333 257.8 499.933333333 242.244444444 499.933333333 c 0,223,224
 241.133333333 499.933333333 241.133333333 499.933333333 240 500 c 1,225,-1
 240 500 l 1,207,208
EndSplineSet
EndChar

StartChar: three
Encoding: 51 51 19
Width: 360
VWidth: 750
Flags: W
LayerCount: 2
Fore
SplineSet
80 0 m 1,0,1
 63 0 63 0 52 14 c 0,2,3
 40 28 40 28 40 46 c 0,4,5
 40 65 40 65 52 78 c 0,6,7
 64 92 64 92 80 92 c 256,8,9
 97 92 97 92 108 78 c 0,10,11
 120 64 120 64 120 46 c 128,-1,12
 120 28 120 28 108 14 c 128,-1,13
 96 0 96 0 80 0 c 1,14,-1
 80 0 l 1,0,1
160 0 m 1,15,16
 143 0 143 0 132 14 c 0,17,18
 120 28 120 28 120 46 c 0,19,20
 120 65 120 65 132 78 c 0,21,22
 144 92 144 92 160 92 c 256,23,24
 177 92 177 92 188 78 c 256,25,26
 199.076923077 65.0769230769 199.076923077 65.0769230769 199.076923077 48.7455621302 c 0,27,28
 199.076923077 28.0979020979 199.076923077 28.0979020979 188 14 c 0,29,30
 176 0 176 0 160 0 c 1,31,-1
 160 0 l 1,15,16
240 0 m 1,32,33
 223 0 223 0 212 14 c 0,34,35
 200 28 200 28 199 46 c 0,36,37
 199 65 199 65 212 78 c 0,38,39
 224 92 224 92 240 92 c 256,40,41
 257 92 257 92 269 78 c 0,42,43
 280.076923077 65.0769230769 280.076923077 65.0769230769 280.076923077 48.7455621302 c 0,44,45
 280.076923077 28.0979020979 280.076923077 28.0979020979 269 14 c 0,46,47
 257 0 257 0 240 0 c 1,48,-1
 240 0 l 1,32,33
40 83 m 1,49,50
 23 83 23 83 12 97 c 0,51,52
 0 111 0 111 0 129 c 256,53,54
 0 148 0 148 12 161 c 0,55,56
 24 175 24 175 40 175 c 256,57,58
 57 175 57 175 68 161 c 0,59,60
 80 147 80 147 80 129 c 256,61,62
 80 110 80 110 68 97 c 0,63,64
 56 83 56 83 40 83 c 1,65,-1
 40 83 l 1,49,50
280 83 m 1,66,67
 263 83 263 83 251 97 c 0,68,69
 239.923076923 109.923076923 239.923076923 109.923076923 239.923076923 126.25443787 c 0,70,71
 239.923076923 147.909090909 239.923076923 147.909090909 251 161 c 0,72,73
 256 167 256 167 263 171 c 1,74,-1
 263 171 l 1,75,76
 257 174 257 174 251 180 c 0,77,78
 239.923076923 192.923076923 239.923076923 192.923076923 239.923076923 209.25443787 c 0,79,80
 239.923076923 229.902097902 239.923076923 229.902097902 251 244 c 0,81,82
 263 258 263 258 280 258 c 256,83,84
 297 258 297 258 308 244 c 0,85,86
 320 230 320 230 320 212 c 256,87,88
 320 193 320 193 308 180 c 0,89,90
 303 174 303 174 297 171 c 1,91,-1
 297 171 l 1,92,93
 303 168 303 168 308 161 c 0,94,95
 320 147 320 147 320 129 c 256,96,97
 320 110 320 110 308 97 c 0,98,99
 296 83 296 83 280 83 c 1,100,-1
 280 83 l 1,66,67
160 250 m 1,101,102
 143 250 143 250 132 263 c 0,103,104
 120 278 120 278 120 296 c 0,105,106
 120 316 120 316 132 328 c 0,107,108
 143.2 341.066666667 143.2 341.066666667 157.884444444 341.066666667 c 0,109,110
 158.933333333 341.066666667 158.933333333 341.066666667 160 341 c 256,111,112
 161.133333333 341.066666667 161.133333333 341.066666667 162.24 341.066666667 c 0,113,114
 177.733333333 341.066666667 177.733333333 341.066666667 188 328 c 0,115,116
 199.076923077 315.076923077 199.076923077 315.076923077 199.076923077 298.74556213 c 0,117,118
 199.076923077 277.097902098 199.076923077 277.097902098 188 263 c 256,119,120
 176.8 249.933333333 176.8 249.933333333 162.115555556 249.933333333 c 0,121,122
 161.066666667 249.933333333 161.066666667 249.933333333 160 250 c 1,123,-1
 160 250 l 1,101,102
240 250 m 1,124,125
 223 250 223 250 212 263 c 0,126,127
 200 278 200 278 199 296 c 0,128,129
 199 316 199 316 212 328 c 0,130,131
 223.2 341.066666667 223.2 341.066666667 237.884444444 341.066666667 c 0,132,133
 238.933333333 341.066666667 238.933333333 341.066666667 240 341 c 256,134,135
 241.133333333 341.066666667 241.133333333 341.066666667 242.244444444 341.066666667 c 0,136,137
 257.8 341.066666667 257.8 341.066666667 269 328 c 128,-1,138
 280.076923077 315.076923077 280.076923077 315.076923077 280.076923077 298.74556213 c 0,139,140
 280.076923077 277.097902098 280.076923077 277.097902098 269 263 c 0,141,142
 257.8 249.933333333 257.8 249.933333333 242.244444444 249.933333333 c 0,143,144
 241.133333333 249.933333333 241.133333333 249.933333333 240 250 c 1,145,-1
 240 250 l 1,124,125
40 416 m 1,146,147
 23 416 23 416 12 430 c 256,148,149
 0 444 0 444 0 462 c 0,150,151
 0 481 0 481 12 495 c 256,152,153
 24 508 24 508 40 508 c 256,154,155
 57 508 57 508 68 495 c 0,156,157
 80 481 80 481 80 462 c 128,-1,158
 80 443 80 443 68 430 c 0,159,160
 56 416 56 416 40 416 c 1,161,-1
 40 416 l 1,146,147
280 333 m 1,162,163
 278.866666667 332.933333333 278.866666667 332.933333333 277.755555556 332.933333333 c 0,164,165
 262.2 332.933333333 262.2 332.933333333 251 346 c 128,-1,166
 239.923076923 358.923076923 239.923076923 358.923076923 239.923076923 376.106508876 c 0,167,168
 239.923076923 397.909090909 239.923076923 397.909090909 251 411 c 0,169,170
 256 417 256 417 263 421 c 1,171,-1
 263 421 l 1,172,173
 257 424 257 424 251 430 c 0,174,175
 239.923076923 442.923076923 239.923076923 442.923076923 239.923076923 459.25443787 c 0,176,177
 239.923076923 480.902097902 239.923076923 480.902097902 251 495 c 0,178,179
 263 508 263 508 280 508 c 256,180,181
 297 508 297 508 308 495 c 0,182,183
 320 481 320 481 320 462 c 128,-1,184
 320 443 320 443 308 430 c 0,185,186
 303 424 303 424 297 421 c 1,187,-1
 297 421 l 1,188,189
 303 418 303 418 308 411 c 0,190,191
 320 397 320 397 320 379 c 256,192,193
 320 360 320 360 308 346 c 0,194,195
 296.8 332.933333333 296.8 332.933333333 282.115555556 332.933333333 c 0,196,197
 281.066666667 332.933333333 281.066666667 332.933333333 280 333 c 1,198,-1
 280 333 l 1,162,163
80 500 m 1,199,200
 63 500 63 500 52 513 c 0,201,202
 40 527 40 527 40 546 c 256,203,204
 40 565 40 565 52 578 c 0,205,206
 64 592 64 592 80 592 c 256,207,208
 97 592 97 592 108 578 c 0,209,210
 120 564 120 564 120 546 c 256,211,212
 120 527 120 527 108 513 c 0,213,214
 96.8 499.933333333 96.8 499.933333333 82.1155555556 499.933333333 c 0,215,216
 81.0666666667 499.933333333 81.0666666667 499.933333333 80 500 c 1,217,-1
 80 500 l 1,199,200
160 500 m 1,218,219
 143 500 143 500 132 513 c 0,220,221
 120 527 120 527 120 546 c 256,222,223
 120 565 120 565 132 578 c 0,224,225
 144 592 144 592 160 592 c 256,226,227
 177 592 177 592 188 578 c 0,228,229
 199.076923077 565.076923077 199.076923077 565.076923077 199.076923077 548.74556213 c 0,230,231
 199.076923077 527.097902098 199.076923077 527.097902098 188 513 c 0,232,233
 176.8 499.933333333 176.8 499.933333333 162.115555556 499.933333333 c 0,234,235
 161.066666667 499.933333333 161.066666667 499.933333333 160 500 c 1,236,-1
 160 500 l 1,218,219
240 500 m 1,237,238
 223 500 223 500 212 513 c 0,239,240
 200 527 200 527 199 546 c 256,241,242
 199 565 199 565 212 578 c 0,243,244
 224 592 224 592 240 592 c 256,245,246
 257 592 257 592 269 578 c 0,247,248
 280.076923077 565.076923077 280.076923077 565.076923077 280.076923077 548.74556213 c 0,249,250
 280.076923077 527.097902098 280.076923077 527.097902098 269 513 c 0,251,252
 257.8 499.933333333 257.8 499.933333333 242.244444444 499.933333333 c 0,253,254
 241.133333333 499.933333333 241.133333333 499.933333333 240 500 c 1,255,-1
 240 500 l 1,237,238
EndSplineSet
EndChar

StartChar: four
Encoding: 52 52 20
Width: 360
VWidth: 750
Flags: W
LayerCount: 2
Fore
SplineSet
240 0 m 1,0,1
 223 0 223 0 212 14 c 0,2,3
 200 28 200 28 199 46 c 0,4,5
 199 65 199 65 212 78 c 0,6,7
 217 84 217 84 223 87 c 1,8,-1
 223 87 l 1,9,10
 217 90 217 90 212 97 c 0,11,12
 200 111 200 111 199 129 c 256,13,14
 199 148 199 148 212 161 c 0,15,16
 217 167 217 167 223 171 c 1,17,-1
 223 171 l 1,18,19
 217 174 217 174 212 180 c 0,20,21
 200 194 200 194 199 212 c 256,22,23
 199 230 199 230 212 244 c 0,24,25
 224 258 224 258 240 258 c 256,26,27
 257 258 257 258 269 244 c 0,28,29
 280.076923077 231.076923077 280.076923077 231.076923077 280.076923077 214.74556213 c 0,30,31
 280.076923077 193.090909091 280.076923077 193.090909091 269 180 c 0,32,33
 264 174 264 174 256 171 c 1,34,-1
 256 171 l 1,35,36
 262 168 262 168 269 161 c 0,37,38
 280.076923077 148.076923077 280.076923077 148.076923077 280.076923077 131.74556213 c 0,39,40
 280.076923077 110.090909091 280.076923077 110.090909091 269 97 c 0,41,42
 264 91 264 91 256 87 c 1,43,-1
 256 87 l 1,44,45
 262 84 262 84 269 78 c 0,46,47
 280.076923077 65.0769230769 280.076923077 65.0769230769 280.076923077 48.7455621302 c 0,48,49
 280.076923077 28.0979020979 280.076923077 28.0979020979 269 14 c 0,50,51
 257 0 257 0 240 0 c 1,52,-1
 240 0 l 1,0,1
40 250 m 1,53,54
 23 250 23 250 12 263 c 256,55,56
 0 278 0 278 0 296 c 0,57,58
 0 316 0 316 12 328 c 0,59,60
 23.2 341.066666667 23.2 341.066666667 37.8844444444 341.066666667 c 0,61,62
 38.9333333333 341.066666667 38.9333333333 341.066666667 40 341 c 256,63,64
 41.1333333333 341.066666667 41.1333333333 341.066666667 42.24 341.066666667 c 0,65,66
 57.7333333333 341.066666667 57.7333333333 341.066666667 68 328 c 0,67,68
 80 314 80 314 80 296 c 0,69,70
 80 277 80 277 68 263 c 0,71,72
 56.8 249.933333333 56.8 249.933333333 42.1155555556 249.933333333 c 0,73,74
 41.0666666667 249.933333333 41.0666666667 249.933333333 40 250 c 1,75,-1
 40 250 l 1,53,54
120 250 m 1,76,77
 103 250 103 250 91 263 c 0,78,79
 79.9230769231 276.846153846 79.9230769231 276.846153846 79.9230769231 293.24852071 c 0,80,81
 79.9230769231 315.916083916 79.9230769231 315.916083916 91 328 c 0,82,83
 102.2 341.066666667 102.2 341.066666667 117.755555556 341.066666667 c 0,84,85
 118.866666667 341.066666667 118.866666667 341.066666667 120 341 c 256,86,87
 121.133333333 341.066666667 121.133333333 341.066666667 122.24 341.066666667 c 0,88,89
 137.733333333 341.066666667 137.733333333 341.066666667 148 328 c 0,90,91
 160 314 160 314 160 296 c 0,92,93
 160 277 160 277 148 263 c 0,94,95
 136.8 249.933333333 136.8 249.933333333 122.115555556 249.933333333 c 0,96,97
 121.066666667 249.933333333 121.066666667 249.933333333 120 250 c 1,98,-1
 120 250 l 1,76,77
199 250 m 1,99,100
 182 250 182 250 171 263 c 256,101,102
 159.923076923 276.846153846 159.923076923 276.846153846 159.923076923 293.24852071 c 0,103,104
 159.923076923 315.916083916 159.923076923 315.916083916 171 328 c 0,105,106
 182.2 341.066666667 182.2 341.066666667 196.884444444 341.066666667 c 0,107,108
 197.933333333 341.066666667 197.933333333 341.066666667 199 341 c 256,109,110
 200.133333333 341.066666667 200.133333333 341.066666667 201.244444444 341.066666667 c 0,111,112
 216.8 341.066666667 216.8 341.066666667 228 328 c 0,113,114
 240 314 240 314 240 296 c 0,115,116
 240 277 240 277 228 263 c 0,117,118
 216.8 249.933333333 216.8 249.933333333 201.244444444 249.933333333 c 0,119,120
 200.133333333 249.933333333 200.133333333 249.933333333 199 250 c 1,121,-1
 199 250 l 1,99,100
280 250 m 1,122,123
 263 250 263 250 251 263 c 0,124,125
 239.923076923 276.846153846 239.923076923 276.846153846 239.923076923 293.24852071 c 0,126,127
 239.923076923 315.916083916 239.923076923 315.916083916 251 328 c 0,128,129
 262.2 341.066666667 262.2 341.066666667 277.755555556 341.066666667 c 0,130,131
 278.866666667 341.066666667 278.866666667 341.066666667 280 341 c 256,132,133
 281.133333333 341.066666667 281.133333333 341.066666667 282.24 341.066666667 c 0,134,135
 297.733333333 341.066666667 297.733333333 341.066666667 308 328 c 0,136,137
 320 314 320 314 320 296 c 0,138,139
 320 277 320 277 308 263 c 0,140,141
 296.8 249.933333333 296.8 249.933333333 282.115555556 249.933333333 c 0,142,143
 281.066666667 249.933333333 281.066666667 249.933333333 280 250 c 1,144,-1
 280 250 l 1,122,123
80 333 m 1,145,146
 78.8666666667 332.933333333 78.8666666667 332.933333333 77.76 332.933333333 c 0,147,148
 62.2666666667 332.933333333 62.2666666667 332.933333333 52 346 c 0,149,150
 40 360 40 360 40 379 c 256,151,152
 40 398 40 398 52 411 c 128,-1,153
 64 424 64 424 80 424 c 256,154,155
 97 424 97 424 108 411 c 0,156,157
 120 397 120 397 120 379 c 256,158,159
 120 360 120 360 108 346 c 0,160,161
 96.8 332.933333333 96.8 332.933333333 82.1155555556 332.933333333 c 0,162,163
 81.0666666667 332.933333333 81.0666666667 332.933333333 80 333 c 1,164,-1
 80 333 l 1,145,146
120 416 m 1,165,166
 103 416 103 416 91 430 c 0,167,168
 79.9230769231 442.923076923 79.9230769231 442.923076923 79.9230769231 459.25443787 c 0,169,170
 79.9230769231 480.902097902 79.9230769231 480.902097902 91 495 c 0,171,172
 103 508 103 508 120 508 c 256,173,174
 137 508 137 508 148 495 c 0,175,176
 160 481 160 481 160 462 c 128,-1,177
 160 443 160 443 148 430 c 0,178,179
 136 416 136 416 120 416 c 1,180,-1
 120 416 l 1,165,166
160 500 m 1,181,182
 143 500 143 500 132 513 c 0,183,184
 120 527 120 527 120 546 c 256,185,186
 120 565 120 565 132 578 c 0,187,188
 144 592 144 592 160 592 c 256,189,190
 177 592 177 592 188 578 c 0,191,192
 199.076923077 565.076923077 199.076923077 565.076923077 199.076923077 548.74556213 c 0,193,194
 199.076923077 527.097902098 199.076923077 527.097902098 188 513 c 0,195,196
 176.8 499.933333333 176.8 499.933333333 162.115555556 499.933333333 c 0,197,198
 161.066666667 499.933333333 161.066666667 499.933333333 160 500 c 1,199,-1
 160 500 l 1,181,182
240 333 m 1,200,201
 238.866666667 332.933333333 238.866666667 332.933333333 237.76 332.933333333 c 0,202,203
 222.266666667 332.933333333 222.266666667 332.933333333 212 346 c 0,204,205
 200 360 200 360 199 379 c 256,206,207
 199 398 199 398 212 411 c 0,208,209
 217 417 217 417 223 421 c 1,210,-1
 223 421 l 1,211,212
 217 424 217 424 212 430 c 0,213,214
 200 444 200 444 199 462 c 0,215,216
 199 481 199 481 212 495 c 0,217,218
 217 501 217 501 223 504 c 1,219,-1
 223 504 l 1,220,221
 217 507 217 507 212 513 c 0,222,223
 200 527 200 527 199 546 c 256,224,225
 199 565 199 565 212 578 c 0,226,227
 224 592 224 592 240 592 c 256,228,229
 257 592 257 592 269 578 c 0,230,231
 280.076923077 565.076923077 280.076923077 565.076923077 280.076923077 548.74556213 c 0,232,233
 280.076923077 527.097902098 280.076923077 527.097902098 269 513 c 0,234,235
 264 507 264 507 256 504 c 1,236,-1
 256 504 l 1,237,238
 262 501 262 501 269 495 c 0,239,240
 280.076923077 482.076923077 280.076923077 482.076923077 280.076923077 464.893491124 c 0,241,242
 280.076923077 443.090909091 280.076923077 443.090909091 269 430 c 0,243,244
 264 424 264 424 256 421 c 1,245,-1
 256 421 l 1,246,247
 262 418 262 418 269 411 c 0,248,249
 280.076923077 398.076923077 280.076923077 398.076923077 280.076923077 381.74556213 c 0,250,251
 280.076923077 360.097902098 280.076923077 360.097902098 269 346 c 0,252,253
 257.8 332.933333333 257.8 332.933333333 242.244444444 332.933333333 c 0,254,255
 241.133333333 332.933333333 241.133333333 332.933333333 240 333 c 1,256,-1
 240 333 l 1,200,201
EndSplineSet
EndChar

StartChar: five
Encoding: 53 53 21
Width: 360
VWidth: 750
Flags: W
LayerCount: 2
Fore
SplineSet
80 0 m 1,0,1
 63 0 63 0 52 14 c 0,2,3
 40 28 40 28 40 46 c 0,4,5
 40 65 40 65 52 78 c 0,6,7
 64 92 64 92 80 92 c 256,8,9
 97 92 97 92 108 78 c 0,10,11
 120 64 120 64 120 46 c 128,-1,12
 120 28 120 28 108 14 c 128,-1,13
 96 0 96 0 80 0 c 1,14,-1
 80 0 l 1,0,1
160 0 m 1,15,16
 143 0 143 0 132 14 c 0,17,18
 120 28 120 28 120 46 c 0,19,20
 120 65 120 65 132 78 c 0,21,22
 144 92 144 92 160 92 c 256,23,24
 177 92 177 92 188 78 c 256,25,26
 199.076923077 65.0769230769 199.076923077 65.0769230769 199.076923077 48.7455621302 c 0,27,28
 199.076923077 28.0979020979 199.076923077 28.0979020979 188 14 c 0,29,30
 176 0 176 0 160 0 c 1,31,-1
 160 0 l 1,15,16
240 0 m 1,32,33
 223 0 223 0 212 14 c 0,34,35
 200 28 200 28 199 46 c 0,36,37
 199 65 199 65 212 78 c 0,38,39
 224 92 224 92 240 92 c 256,40,41
 257 92 257 92 269 78 c 0,42,43
 280.076923077 65.0769230769 280.076923077 65.0769230769 280.076923077 48.7455621302 c 0,44,45
 280.076923077 28.0979020979 280.076923077 28.0979020979 269 14 c 0,46,47
 257 0 257 0 240 0 c 1,48,-1
 240 0 l 1,32,33
40 83 m 1,49,50
 23 83 23 83 12 97 c 0,51,52
 0 111 0 111 0 129 c 256,53,54
 0 148 0 148 12 161 c 0,55,56
 24 175 24 175 40 175 c 256,57,58
 57 175 57 175 68 161 c 0,59,60
 80 147 80 147 80 129 c 256,61,62
 80 110 80 110 68 97 c 0,63,64
 56 83 56 83 40 83 c 1,65,-1
 40 83 l 1,49,50
280 83 m 1,66,67
 263 83 263 83 251 97 c 0,68,69
 239.923076923 109.923076923 239.923076923 109.923076923 239.923076923 126.25443787 c 0,70,71
 239.923076923 147.909090909 239.923076923 147.909090909 251 161 c 0,72,73
 256 167 256 167 263 171 c 1,74,-1
 263 171 l 1,75,76
 257 174 257 174 251 180 c 0,77,78
 239.923076923 192.923076923 239.923076923 192.923076923 239.923076923 209.25443787 c 0,79,80
 239.923076923 229.902097902 239.923076923 229.902097902 251 244 c 0,81,82
 256 250 256 250 263 254 c 1,83,-1
 263 254 l 1,84,85
 257 257 257 257 251 263 c 0,86,87
 239.923076923 276.846153846 239.923076923 276.846153846 239.923076923 293.24852071 c 0,88,89
 239.923076923 315.916083916 239.923076923 315.916083916 251 328 c 0,90,91
 262.2 341.066666667 262.2 341.066666667 277.755555556 341.066666667 c 0,92,93
 278.866666667 341.066666667 278.866666667 341.066666667 280 341 c 256,94,95
 281.133333333 341.066666667 281.133333333 341.066666667 282.24 341.066666667 c 0,96,97
 297.733333333 341.066666667 297.733333333 341.066666667 308 328 c 0,98,99
 320 314 320 314 320 296 c 0,100,101
 320 277 320 277 308 263 c 0,102,103
 303 257 303 257 297 254 c 1,104,-1
 297 254 l 1,105,106
 303 250 303 250 308 244 c 0,107,108
 320 230 320 230 320 212 c 256,109,110
 320 193 320 193 308 180 c 0,111,112
 303 174 303 174 297 171 c 1,113,-1
 297 171 l 1,114,115
 303 168 303 168 308 161 c 0,116,117
 320 147 320 147 320 129 c 256,118,119
 320 110 320 110 308 97 c 0,120,121
 296 83 296 83 280 83 c 1,122,-1
 280 83 l 1,66,67
120 333 m 1,123,124
 118.866666667 332.933333333 118.866666667 332.933333333 117.755555556 332.933333333 c 0,125,126
 102.2 332.933333333 102.2 332.933333333 91 346 c 128,-1,127
 79.9230769231 358.923076923 79.9230769231 358.923076923 79.9230769231 376.106508876 c 0,128,129
 79.9230769231 397.909090909 79.9230769231 397.909090909 91 411 c 0,130,131
 103 424 103 424 120 424 c 256,132,133
 137 424 137 424 148 411 c 0,134,135
 160 397 160 397 160 379 c 256,136,137
 160 360 160 360 148 346 c 0,138,139
 136.8 332.933333333 136.8 332.933333333 122.115555556 332.933333333 c 0,140,141
 121.066666667 332.933333333 121.066666667 332.933333333 120 333 c 1,142,-1
 120 333 l 1,123,124
199 333 m 1,143,144
 197.866666667 332.933333333 197.866666667 332.933333333 196.76 332.933333333 c 0,145,146
 181.266666667 332.933333333 181.266666667 332.933333333 171 346 c 0,147,148
 159.923076923 358.923076923 159.923076923 358.923076923 159.923076923 376.106508876 c 0,149,150
 159.923076923 397.909090909 159.923076923 397.909090909 171 411 c 0,151,152
 183 424 183 424 199 424 c 256,153,154
 216 424 216 424 228 411 c 0,155,156
 240 397 240 397 240 379 c 256,157,158
 240 360 240 360 228 346 c 0,159,160
 216.8 332.933333333 216.8 332.933333333 201.244444444 332.933333333 c 0,161,162
 200.133333333 332.933333333 200.133333333 332.933333333 199 333 c 1,163,-1
 199 333 l 1,143,144
40 333 m 1,164,165
 38.8666666667 332.933333333 38.8666666667 332.933333333 37.76 332.933333333 c 0,166,167
 22.2666666667 332.933333333 22.2666666667 332.933333333 12 346 c 0,168,169
 0 360 0 360 0 379 c 256,170,171
 0 398 0 398 12 411 c 0,172,173
 17 417 17 417 23 421 c 1,174,-1
 23 421 l 1,175,176
 17 424 17 424 12 430 c 0,177,178
 0 444 0 444 0 462 c 0,179,180
 0 481 0 481 12 495 c 0,181,182
 17 501 17 501 23 504 c 1,183,-1
 23 504 l 1,184,185
 17 507 17 507 12 513 c 0,186,187
 0 527 0 527 0 546 c 256,188,189
 0 565 0 565 12 578 c 0,190,191
 24 592 24 592 40 592 c 256,192,193
 57 592 57 592 68 578 c 0,194,195
 80 564 80 564 80 546 c 256,196,197
 80 527 80 527 68 513 c 0,198,199
 63 507 63 507 57 504 c 1,200,-1
 57 504 l 1,201,202
 63 501 63 501 68 495 c 0,203,204
 80 481 80 481 80 462 c 128,-1,205
 80 443 80 443 68 430 c 0,206,207
 63 424 63 424 57 421 c 1,208,-1
 57 421 l 1,209,210
 63 418 63 418 68 411 c 0,211,212
 80 397 80 397 80 379 c 256,213,214
 80 360 80 360 68 346 c 0,215,216
 56.8 332.933333333 56.8 332.933333333 42.1155555556 332.933333333 c 0,217,218
 41.0666666667 332.933333333 41.0666666667 332.933333333 40 333 c 1,219,-1
 40 333 l 1,164,165
120 500 m 1,220,221
 103 500 103 500 91 513 c 0,222,223
 79.9230769231 525.923076923 79.9230769231 525.923076923 79.9230769231 543.106508876 c 0,224,225
 79.9230769231 564.909090909 79.9230769231 564.909090909 91 578 c 0,226,227
 103 592 103 592 120 592 c 256,228,229
 137 592 137 592 148 578 c 0,230,231
 160 564 160 564 160 546 c 256,232,233
 160 527 160 527 148 513 c 0,234,235
 136.8 499.933333333 136.8 499.933333333 122.115555556 499.933333333 c 0,236,237
 121.066666667 499.933333333 121.066666667 499.933333333 120 500 c 1,238,-1
 120 500 l 1,220,221
199 500 m 1,239,240
 182 500 182 500 171 513 c 128,-1,241
 159.923076923 525.923076923 159.923076923 525.923076923 159.923076923 543.106508876 c 0,242,243
 159.923076923 564.909090909 159.923076923 564.909090909 171 578 c 0,244,245
 183 592 183 592 199 592 c 256,246,247
 216 592 216 592 228 578 c 128,-1,248
 240 564 240 564 240 546 c 256,249,250
 240 527 240 527 228 513 c 0,251,252
 216.8 499.933333333 216.8 499.933333333 201.244444444 499.933333333 c 0,253,254
 200.133333333 499.933333333 200.133333333 499.933333333 199 500 c 1,255,-1
 199 500 l 1,239,240
280 500 m 1,256,257
 263 500 263 500 251 513 c 0,258,259
 239.923076923 525.923076923 239.923076923 525.923076923 239.923076923 543.106508876 c 0,260,261
 239.923076923 564.909090909 239.923076923 564.909090909 251 578 c 0,262,263
 263 592 263 592 280 592 c 256,264,265
 297 592 297 592 308 578 c 0,266,267
 320 564 320 564 320 546 c 256,268,269
 320 527 320 527 308 513 c 0,270,271
 296.8 499.933333333 296.8 499.933333333 282.115555556 499.933333333 c 0,272,273
 281.066666667 499.933333333 281.066666667 499.933333333 280 500 c 1,274,-1
 280 500 l 1,256,257
EndSplineSet
EndChar

StartChar: six
Encoding: 54 54 22
Width: 360
VWidth: 750
Flags: W
LayerCount: 2
Fore
SplineSet
80 0 m 1,0,1
 63 0 63 0 52 14 c 0,2,3
 40 28 40 28 40 46 c 0,4,5
 40 65 40 65 52 78 c 0,6,7
 64 92 64 92 80 92 c 256,8,9
 97 92 97 92 108 78 c 0,10,11
 120 64 120 64 120 46 c 128,-1,12
 120 28 120 28 108 14 c 128,-1,13
 96 0 96 0 80 0 c 1,14,-1
 80 0 l 1,0,1
160 0 m 1,15,16
 143 0 143 0 132 14 c 0,17,18
 120 28 120 28 120 46 c 0,19,20
 120 65 120 65 132 78 c 0,21,22
 144 92 144 92 160 92 c 256,23,24
 177 92 177 92 188 78 c 256,25,26
 199.076923077 65.0769230769 199.076923077 65.0769230769 199.076923077 48.7455621302 c 0,27,28
 199.076923077 28.0979020979 199.076923077 28.0979020979 188 14 c 0,29,30
 176 0 176 0 160 0 c 1,31,-1
 160 0 l 1,15,16
240 0 m 1,32,33
 223 0 223 0 212 14 c 0,34,35
 200 28 200 28 199 46 c 0,36,37
 199 65 199 65 212 78 c 0,38,39
 224 92 224 92 240 92 c 256,40,41
 257 92 257 92 269 78 c 0,42,43
 280.076923077 65.0769230769 280.076923077 65.0769230769 280.076923077 48.7455621302 c 0,44,45
 280.076923077 28.0979020979 280.076923077 28.0979020979 269 14 c 0,46,47
 257 0 257 0 240 0 c 1,48,-1
 240 0 l 1,32,33
40 83 m 1,49,50
 23 83 23 83 12 97 c 0,51,52
 0 111 0 111 0 129 c 256,53,54
 0 148 0 148 12 161 c 0,55,56
 17 167 17 167 23 171 c 1,57,-1
 23 171 l 1,58,59
 17 174 17 174 12 180 c 0,60,61
 0 194 0 194 0 212 c 256,62,63
 0 230 0 230 12 244 c 128,-1,64
 24 258 24 258 40 258 c 256,65,66
 57 258 57 258 68 244 c 0,67,68
 80 230 80 230 80 212 c 256,69,70
 80 193 80 193 68 180 c 0,71,72
 63 174 63 174 57 171 c 1,73,-1
 57 171 l 1,74,75
 63 168 63 168 68 161 c 0,76,77
 80 147 80 147 80 129 c 256,78,79
 80 110 80 110 68 97 c 0,80,81
 56 83 56 83 40 83 c 1,82,-1
 40 83 l 1,49,50
280 83 m 1,83,84
 263 83 263 83 251 97 c 0,85,86
 239.923076923 109.923076923 239.923076923 109.923076923 239.923076923 126.25443787 c 0,87,88
 239.923076923 147.909090909 239.923076923 147.909090909 251 161 c 0,89,90
 256 167 256 167 263 171 c 1,91,-1
 263 171 l 1,92,93
 257 174 257 174 251 180 c 0,94,95
 239.923076923 192.923076923 239.923076923 192.923076923 239.923076923 209.25443787 c 0,96,97
 239.923076923 229.902097902 239.923076923 229.902097902 251 244 c 0,98,99
 263 258 263 258 280 258 c 256,100,101
 297 258 297 258 308 244 c 0,102,103
 320 230 320 230 320 212 c 256,104,105
 320 193 320 193 308 180 c 0,106,107
 303 174 303 174 297 171 c 1,108,-1
 297 171 l 1,109,110
 303 168 303 168 308 161 c 0,111,112
 320 147 320 147 320 129 c 256,113,114
 320 110 320 110 308 97 c 0,115,116
 296 83 296 83 280 83 c 1,117,-1
 280 83 l 1,83,84
80 250 m 1,118,119
 63 250 63 250 52 263 c 0,120,121
 40 278 40 278 40 296 c 0,122,123
 40 316 40 316 52 328 c 0,124,125
 63.2 341.066666667 63.2 341.066666667 77.8844444444 341.066666667 c 0,126,127
 78.9333333333 341.066666667 78.9333333333 341.066666667 80 341 c 256,128,129
 81.1333333333 341.066666667 81.1333333333 341.066666667 82.24 341.066666667 c 0,130,131
 97.7333333333 341.066666667 97.7333333333 341.066666667 108 328 c 0,132,133
 120 314 120 314 120 296 c 0,134,135
 120 277 120 277 108 263 c 0,136,137
 96.8 249.933333333 96.8 249.933333333 82.1155555556 249.933333333 c 0,138,139
 81.0666666667 249.933333333 81.0666666667 249.933333333 80 250 c 1,140,-1
 80 250 l 1,118,119
160 250 m 1,141,142
 143 250 143 250 132 263 c 0,143,144
 120 278 120 278 120 296 c 0,145,146
 120 316 120 316 132 328 c 0,147,148
 143.2 341.066666667 143.2 341.066666667 157.884444444 341.066666667 c 0,149,150
 158.933333333 341.066666667 158.933333333 341.066666667 160 341 c 256,151,152
 161.133333333 341.066666667 161.133333333 341.066666667 162.24 341.066666667 c 0,153,154
 177.733333333 341.066666667 177.733333333 341.066666667 188 328 c 0,155,156
 199.076923077 315.076923077 199.076923077 315.076923077 199.076923077 298.74556213 c 0,157,158
 199.076923077 277.097902098 199.076923077 277.097902098 188 263 c 256,159,160
 176.8 249.933333333 176.8 249.933333333 162.115555556 249.933333333 c 0,161,162
 161.066666667 249.933333333 161.066666667 249.933333333 160 250 c 1,163,-1
 160 250 l 1,141,142
240 250 m 1,164,165
 223 250 223 250 212 263 c 0,166,167
 200 278 200 278 199 296 c 0,168,169
 199 316 199 316 212 328 c 0,170,171
 223.2 341.066666667 223.2 341.066666667 237.884444444 341.066666667 c 0,172,173
 238.933333333 341.066666667 238.933333333 341.066666667 240 341 c 256,174,175
 241.133333333 341.066666667 241.133333333 341.066666667 242.244444444 341.066666667 c 0,176,177
 257.8 341.066666667 257.8 341.066666667 269 328 c 128,-1,178
 280.076923077 315.076923077 280.076923077 315.076923077 280.076923077 298.74556213 c 0,179,180
 280.076923077 277.097902098 280.076923077 277.097902098 269 263 c 0,181,182
 257.8 249.933333333 257.8 249.933333333 242.244444444 249.933333333 c 0,183,184
 241.133333333 249.933333333 241.133333333 249.933333333 240 250 c 1,185,-1
 240 250 l 1,164,165
120 333 m 1,186,187
 118.866666667 332.933333333 118.866666667 332.933333333 117.755555556 332.933333333 c 0,188,189
 102.2 332.933333333 102.2 332.933333333 91 346 c 128,-1,190
 79.9230769231 358.923076923 79.9230769231 358.923076923 79.9230769231 376.106508876 c 0,191,192
 79.9230769231 397.909090909 79.9230769231 397.909090909 91 411 c 0,193,194
 103 424 103 424 120 424 c 256,195,196
 137 424 137 424 148 411 c 0,197,198
 160 397 160 397 160 379 c 256,199,200
 160 360 160 360 148 346 c 0,201,202
 136.8 332.933333333 136.8 332.933333333 122.115555556 332.933333333 c 0,203,204
 121.066666667 332.933333333 121.066666667 332.933333333 120 333 c 1,205,-1
 120 333 l 1,186,187
160 416 m 1,206,207
 143 416 143 416 132 430 c 0,208,209
 120 444 120 444 120 462 c 0,210,211
 120 481 120 481 132 495 c 0,212,213
 144 508 144 508 160 508 c 256,214,215
 177 508 177 508 188 495 c 256,216,217
 199.076923077 482.076923077 199.076923077 482.076923077 199.076923077 464.893491124 c 0,218,219
 199.076923077 443.090909091 199.076923077 443.090909091 188 430 c 256,220,221
 176 416 176 416 160 416 c 1,222,-1
 160 416 l 1,206,207
199 500 m 1,223,224
 182 500 182 500 171 513 c 128,-1,225
 159.923076923 525.923076923 159.923076923 525.923076923 159.923076923 543.106508876 c 0,226,227
 159.923076923 564.909090909 159.923076923 564.909090909 171 578 c 0,228,229
 183 592 183 592 199 592 c 256,230,231
 216 592 216 592 228 578 c 128,-1,232
 240 564 240 564 240 546 c 256,233,234
 240 527 240 527 228 513 c 0,235,236
 216.8 499.933333333 216.8 499.933333333 201.244444444 499.933333333 c 0,237,238
 200.133333333 499.933333333 200.133333333 499.933333333 199 500 c 1,239,-1
 199 500 l 1,223,224
EndSplineSet
EndChar

StartChar: seven
Encoding: 55 55 23
Width: 360
VWidth: 750
Flags: W
LayerCount: 2
Fore
SplineSet
40 0 m 1,0,1
 23 0 23 0 12 14 c 0,2,3
 0 28 0 28 0 46 c 0,4,5
 0 65 0 65 12 78 c 256,6,7
 24 92 24 92 40 92 c 256,8,9
 57 92 57 92 68 78 c 0,10,11
 80 64 80 64 80 46 c 128,-1,12
 80 28 80 28 68 14 c 128,-1,13
 56 0 56 0 40 0 c 1,14,-1
 40 0 l 1,0,1
80 83 m 1,15,16
 63 83 63 83 52 97 c 0,17,18
 40 111 40 111 40 129 c 256,19,20
 40 148 40 148 52 161 c 0,21,22
 64 175 64 175 80 175 c 256,23,24
 97 175 97 175 108 161 c 0,25,26
 120 147 120 147 120 129 c 256,27,28
 120 110 120 110 108 97 c 0,29,30
 96 83 96 83 80 83 c 1,31,-1
 80 83 l 1,15,16
120 166 m 1,32,33
 103 166 103 166 91 180 c 0,34,35
 79.9230769231 192.923076923 79.9230769231 192.923076923 79.9230769231 209.25443787 c 0,36,37
 79.9230769231 229.902097902 79.9230769231 229.902097902 91 244 c 0,38,39
 103 258 103 258 120 258 c 256,40,41
 137 258 137 258 148 244 c 0,42,43
 160 230 160 230 160 212 c 256,44,45
 160 193 160 193 148 180 c 0,46,47
 136 166 136 166 120 166 c 1,48,-1
 120 166 l 1,32,33
160 250 m 1,49,50
 143 250 143 250 132 263 c 0,51,52
 120 278 120 278 120 296 c 0,53,54
 120 316 120 316 132 328 c 0,55,56
 143.2 341.066666667 143.2 341.066666667 157.884444444 341.066666667 c 0,57,58
 158.933333333 341.066666667 158.933333333 341.066666667 160 341 c 256,59,60
 161.133333333 341.066666667 161.133333333 341.066666667 162.24 341.066666667 c 0,61,62
 177.733333333 341.066666667 177.733333333 341.066666667 188 328 c 0,63,64
 199.076923077 315.076923077 199.076923077 315.076923077 199.076923077 298.74556213 c 0,65,66
 199.076923077 277.097902098 199.076923077 277.097902098 188 263 c 256,67,68
 176.8 249.933333333 176.8 249.933333333 162.115555556 249.933333333 c 0,69,70
 161.066666667 249.933333333 161.066666667 249.933333333 160 250 c 1,71,-1
 160 250 l 1,49,50
199 333 m 1,72,73
 197.866666667 332.933333333 197.866666667 332.933333333 196.76 332.933333333 c 0,74,75
 181.266666667 332.933333333 181.266666667 332.933333333 171 346 c 0,76,77
 159.923076923 358.923076923 159.923076923 358.923076923 159.923076923 376.106508876 c 0,78,79
 159.923076923 397.909090909 159.923076923 397.909090909 171 411 c 0,80,81
 183 424 183 424 199 424 c 256,82,83
 216 424 216 424 228 411 c 0,84,85
 240 397 240 397 240 379 c 256,86,87
 240 360 240 360 228 346 c 0,88,89
 216.8 332.933333333 216.8 332.933333333 201.244444444 332.933333333 c 0,90,91
 200.133333333 332.933333333 200.133333333 332.933333333 199 333 c 1,92,-1
 199 333 l 1,72,73
240 416 m 1,93,94
 223 416 223 416 212 430 c 0,95,96
 200 444 200 444 199 462 c 0,97,98
 199 481 199 481 212 495 c 0,99,100
 224 508 224 508 240 508 c 256,101,102
 257 508 257 508 269 495 c 0,103,104
 280.076923077 482.076923077 280.076923077 482.076923077 280.076923077 464.893491124 c 0,105,106
 280.076923077 443.090909091 280.076923077 443.090909091 269 430 c 0,107,108
 257 416 257 416 240 416 c 1,109,-1
 240 416 l 1,93,94
40 500 m 1,110,111
 23 500 23 500 12 513 c 0,112,113
 0 527 0 527 0 546 c 256,114,115
 0 565 0 565 12 578 c 0,116,117
 24 592 24 592 40 592 c 256,118,119
 57 592 57 592 68 578 c 0,120,121
 80 564 80 564 80 546 c 256,122,123
 80 527 80 527 68 513 c 0,124,125
 56.8 499.933333333 56.8 499.933333333 42.1155555556 499.933333333 c 0,126,127
 41.0666666667 499.933333333 41.0666666667 499.933333333 40 500 c 1,128,-1
 40 500 l 1,110,111
120 500 m 1,129,130
 103 500 103 500 91 513 c 0,131,132
 79.9230769231 525.923076923 79.9230769231 525.923076923 79.9230769231 543.106508876 c 0,133,134
 79.9230769231 564.909090909 79.9230769231 564.909090909 91 578 c 0,135,136
 103 592 103 592 120 592 c 256,137,138
 137 592 137 592 148 578 c 0,139,140
 160 564 160 564 160 546 c 256,141,142
 160 527 160 527 148 513 c 0,143,144
 136.8 499.933333333 136.8 499.933333333 122.115555556 499.933333333 c 0,145,146
 121.066666667 499.933333333 121.066666667 499.933333333 120 500 c 1,147,-1
 120 500 l 1,129,130
199 500 m 1,148,149
 182 500 182 500 171 513 c 128,-1,150
 159.923076923 525.923076923 159.923076923 525.923076923 159.923076923 543.106508876 c 0,151,152
 159.923076923 564.909090909 159.923076923 564.909090909 171 578 c 0,153,154
 183 592 183 592 199 592 c 256,155,156
 216 592 216 592 228 578 c 128,-1,157
 240 564 240 564 240 546 c 256,158,159
 240 527 240 527 228 513 c 0,160,161
 216.8 499.933333333 216.8 499.933333333 201.244444444 499.933333333 c 0,162,163
 200.133333333 499.933333333 200.133333333 499.933333333 199 500 c 1,164,-1
 199 500 l 1,148,149
280 500 m 1,165,166
 263 500 263 500 251 513 c 0,167,168
 239.923076923 525.923076923 239.923076923 525.923076923 239.923076923 543.106508876 c 0,169,170
 239.923076923 564.909090909 239.923076923 564.909090909 251 578 c 0,171,172
 263 592 263 592 280 592 c 256,173,174
 297 592 297 592 308 578 c 0,175,176
 320 564 320 564 320 546 c 256,177,178
 320 527 320 527 308 513 c 0,179,180
 296.8 499.933333333 296.8 499.933333333 282.115555556 499.933333333 c 0,181,182
 281.066666667 499.933333333 281.066666667 499.933333333 280 500 c 1,183,-1
 280 500 l 1,165,166
EndSplineSet
EndChar

StartChar: eight
Encoding: 56 56 24
Width: 360
VWidth: 750
Flags: W
LayerCount: 2
Fore
SplineSet
80 0 m 1,0,1
 63 0 63 0 52 14 c 0,2,3
 40 28 40 28 40 46 c 0,4,5
 40 65 40 65 52 78 c 0,6,7
 64 92 64 92 80 92 c 256,8,9
 97 92 97 92 108 78 c 0,10,11
 120 64 120 64 120 46 c 128,-1,12
 120 28 120 28 108 14 c 128,-1,13
 96 0 96 0 80 0 c 1,14,-1
 80 0 l 1,0,1
160 0 m 1,15,16
 143 0 143 0 132 14 c 0,17,18
 120 28 120 28 120 46 c 0,19,20
 120 65 120 65 132 78 c 0,21,22
 144 92 144 92 160 92 c 256,23,24
 177 92 177 92 188 78 c 256,25,26
 199.076923077 65.0769230769 199.076923077 65.0769230769 199.076923077 48.7455621302 c 0,27,28
 199.076923077 28.0979020979 199.076923077 28.0979020979 188 14 c 0,29,30
 176 0 176 0 160 0 c 1,31,-1
 160 0 l 1,15,16
240 0 m 1,32,33
 223 0 223 0 212 14 c 0,34,35
 200 28 200 28 199 46 c 0,36,37
 199 65 199 65 212 78 c 0,38,39
 224 92 224 92 240 92 c 256,40,41
 257 92 257 92 269 78 c 0,42,43
 280.076923077 65.0769230769 280.076923077 65.0769230769 280.076923077 48.7455621302 c 0,44,45
 280.076923077 28.0979020979 280.076923077 28.0979020979 269 14 c 0,46,47
 257 0 257 0 240 0 c 1,48,-1
 240 0 l 1,32,33
40 83 m 1,49,50
 23 83 23 83 12 97 c 0,51,52
 0 111 0 111 0 129 c 256,53,54
 0 148 0 148 12 161 c 0,55,56
 17 167 17 167 23 171 c 1,57,-1
 23 171 l 1,58,59
 17 174 17 174 12 180 c 0,60,61
 0 194 0 194 0 212 c 256,62,63
 0 230 0 230 12 244 c 128,-1,64
 24 258 24 258 40 258 c 256,65,66
 57 258 57 258 68 244 c 0,67,68
 80 230 80 230 80 212 c 256,69,70
 80 193 80 193 68 180 c 0,71,72
 63 174 63 174 57 171 c 1,73,-1
 57 171 l 1,74,75
 63 168 63 168 68 161 c 0,76,77
 80 147 80 147 80 129 c 256,78,79
 80 110 80 110 68 97 c 0,80,81
 56 83 56 83 40 83 c 1,82,-1
 40 83 l 1,49,50
280 83 m 1,83,84
 263 83 263 83 251 97 c 0,85,86
 239.923076923 109.923076923 239.923076923 109.923076923 239.923076923 126.25443787 c 0,87,88
 239.923076923 147.909090909 239.923076923 147.909090909 251 161 c 0,89,90
 256 167 256 167 263 171 c 1,91,-1
 263 171 l 1,92,93
 257 174 257 174 251 180 c 0,94,95
 239.923076923 192.923076923 239.923076923 192.923076923 239.923076923 209.25443787 c 0,96,97
 239.923076923 229.902097902 239.923076923 229.902097902 251 244 c 0,98,99
 263 258 263 258 280 258 c 256,100,101
 297 258 297 258 308 244 c 0,102,103
 320 230 320 230 320 212 c 256,104,105
 320 193 320 193 308 180 c 0,106,107
 303 174 303 174 297 171 c 1,108,-1
 297 171 l 1,109,110
 303 168 303 168 308 161 c 0,111,112
 320 147 320 147 320 129 c 256,113,114
 320 110 320 110 308 97 c 0,115,116
 296 83 296 83 280 83 c 1,117,-1
 280 83 l 1,83,84
80 250 m 1,118,119
 63 250 63 250 52 263 c 0,120,121
 40 278 40 278 40 296 c 0,122,123
 40 316 40 316 52 328 c 0,124,125
 63.2 341.066666667 63.2 341.066666667 77.8844444444 341.066666667 c 0,126,127
 78.9333333333 341.066666667 78.9333333333 341.066666667 80 341 c 256,128,129
 81.1333333333 341.066666667 81.1333333333 341.066666667 82.24 341.066666667 c 0,130,131
 97.7333333333 341.066666667 97.7333333333 341.066666667 108 328 c 0,132,133
 120 314 120 314 120 296 c 0,134,135
 120 277 120 277 108 263 c 0,136,137
 96.8 249.933333333 96.8 249.933333333 82.1155555556 249.933333333 c 0,138,139
 81.0666666667 249.933333333 81.0666666667 249.933333333 80 250 c 1,140,-1
 80 250 l 1,118,119
160 250 m 1,141,142
 143 250 143 250 132 263 c 0,143,144
 120 278 120 278 120 296 c 0,145,146
 120 316 120 316 132 328 c 0,147,148
 143.2 341.066666667 143.2 341.066666667 157.884444444 341.066666667 c 0,149,150
 158.933333333 341.066666667 158.933333333 341.066666667 160 341 c 256,151,152
 161.133333333 341.066666667 161.133333333 341.066666667 162.24 341.066666667 c 0,153,154
 177.733333333 341.066666667 177.733333333 341.066666667 188 328 c 0,155,156
 199.076923077 315.076923077 199.076923077 315.076923077 199.076923077 298.74556213 c 0,157,158
 199.076923077 277.097902098 199.076923077 277.097902098 188 263 c 256,159,160
 176.8 249.933333333 176.8 249.933333333 162.115555556 249.933333333 c 0,161,162
 161.066666667 249.933333333 161.066666667 249.933333333 160 250 c 1,163,-1
 160 250 l 1,141,142
240 250 m 1,164,165
 223 250 223 250 212 263 c 0,166,167
 200 278 200 278 199 296 c 0,168,169
 199 316 199 316 212 328 c 0,170,171
 223.2 341.066666667 223.2 341.066666667 237.884444444 341.066666667 c 0,172,173
 238.933333333 341.066666667 238.933333333 341.066666667 240 341 c 256,174,175
 241.133333333 341.066666667 241.133333333 341.066666667 242.244444444 341.066666667 c 0,176,177
 257.8 341.066666667 257.8 341.066666667 269 328 c 128,-1,178
 280.076923077 315.076923077 280.076923077 315.076923077 280.076923077 298.74556213 c 0,179,180
 280.076923077 277.097902098 280.076923077 277.097902098 269 263 c 0,181,182
 257.8 249.933333333 257.8 249.933333333 242.244444444 249.933333333 c 0,183,184
 241.133333333 249.933333333 241.133333333 249.933333333 240 250 c 1,185,-1
 240 250 l 1,164,165
40 333 m 1,186,187
 38.8666666667 332.933333333 38.8666666667 332.933333333 37.76 332.933333333 c 0,188,189
 22.2666666667 332.933333333 22.2666666667 332.933333333 12 346 c 0,190,191
 0 360 0 360 0 379 c 256,192,193
 0 398 0 398 12 411 c 0,194,195
 17 417 17 417 23 421 c 1,196,-1
 23 421 l 1,197,198
 17 424 17 424 12 430 c 0,199,200
 0 444 0 444 0 462 c 0,201,202
 0 481 0 481 12 495 c 256,203,204
 24 508 24 508 40 508 c 256,205,206
 57 508 57 508 68 495 c 0,207,208
 80 481 80 481 80 462 c 128,-1,209
 80 443 80 443 68 430 c 0,210,211
 63 424 63 424 57 421 c 1,212,-1
 57 421 l 1,213,214
 63 418 63 418 68 411 c 0,215,216
 80 397 80 397 80 379 c 256,217,218
 80 360 80 360 68 346 c 0,219,220
 56.8 332.933333333 56.8 332.933333333 42.1155555556 332.933333333 c 0,221,222
 41.0666666667 332.933333333 41.0666666667 332.933333333 40 333 c 1,223,-1
 40 333 l 1,186,187
280 333 m 1,224,225
 278.866666667 332.933333333 278.866666667 332.933333333 277.755555556 332.933333333 c 0,226,227
 262.2 332.933333333 262.2 332.933333333 251 346 c 128,-1,228
 239.923076923 358.923076923 239.923076923 358.923076923 239.923076923 376.106508876 c 0,229,230
 239.923076923 397.909090909 239.923076923 397.909090909 251 411 c 0,231,232
 256 417 256 417 263 421 c 1,233,-1
 263 421 l 1,234,235
 257 424 257 424 251 430 c 0,236,237
 239.923076923 442.923076923 239.923076923 442.923076923 239.923076923 459.25443787 c 0,238,239
 239.923076923 480.902097902 239.923076923 480.902097902 251 495 c 0,240,241
 263 508 263 508 280 508 c 256,242,243
 297 508 297 508 308 495 c 0,244,245
 320 481 320 481 320 462 c 128,-1,246
 320 443 320 443 308 430 c 0,247,248
 303 424 303 424 297 421 c 1,249,-1
 297 421 l 1,250,251
 303 418 303 418 308 411 c 0,252,253
 320 397 320 397 320 379 c 256,254,255
 320 360 320 360 308 346 c 0,256,257
 296.8 332.933333333 296.8 332.933333333 282.115555556 332.933333333 c 0,258,259
 281.066666667 332.933333333 281.066666667 332.933333333 280 333 c 1,260,-1
 280 333 l 1,224,225
80 500 m 1,261,262
 63 500 63 500 52 513 c 0,263,264
 40 527 40 527 40 546 c 256,265,266
 40 565 40 565 52 578 c 0,267,268
 64 592 64 592 80 592 c 256,269,270
 97 592 97 592 108 578 c 0,271,272
 120 564 120 564 120 546 c 256,273,274
 120 527 120 527 108 513 c 0,275,276
 96.8 499.933333333 96.8 499.933333333 82.1155555556 499.933333333 c 0,277,278
 81.0666666667 499.933333333 81.0666666667 499.933333333 80 500 c 1,279,-1
 80 500 l 1,261,262
160 500 m 1,280,281
 143 500 143 500 132 513 c 0,282,283
 120 527 120 527 120 546 c 256,284,285
 120 565 120 565 132 578 c 0,286,287
 144 592 144 592 160 592 c 256,288,289
 177 592 177 592 188 578 c 0,290,291
 199.076923077 565.076923077 199.076923077 565.076923077 199.076923077 548.74556213 c 0,292,293
 199.076923077 527.097902098 199.076923077 527.097902098 188 513 c 0,294,295
 176.8 499.933333333 176.8 499.933333333 162.115555556 499.933333333 c 0,296,297
 161.066666667 499.933333333 161.066666667 499.933333333 160 500 c 1,298,-1
 160 500 l 1,280,281
240 500 m 1,299,300
 223 500 223 500 212 513 c 0,301,302
 200 527 200 527 199 546 c 256,303,304
 199 565 199 565 212 578 c 0,305,306
 224 592 224 592 240 592 c 256,307,308
 257 592 257 592 269 578 c 0,309,310
 280.076923077 565.076923077 280.076923077 565.076923077 280.076923077 548.74556213 c 0,311,312
 280.076923077 527.097902098 280.076923077 527.097902098 269 513 c 0,313,314
 257.8 499.933333333 257.8 499.933333333 242.244444444 499.933333333 c 0,315,316
 241.133333333 499.933333333 241.133333333 499.933333333 240 500 c 1,317,-1
 240 500 l 1,299,300
EndSplineSet
EndChar

StartChar: nine
Encoding: 57 57 25
Width: 360
VWidth: 750
Flags: W
LayerCount: 2
Fore
SplineSet
120 0 m 1,0,1
 103 0 103 0 91 14 c 0,2,3
 79.9230769231 26.9230769231 79.9230769231 26.9230769231 79.9230769231 43.2544378698 c 0,4,5
 79.9230769231 64.9090909091 79.9230769231 64.9090909091 91 78 c 0,6,7
 103 92 103 92 120 92 c 256,8,9
 137 92 137 92 148 78 c 0,10,11
 160 64 160 64 160 46 c 128,-1,12
 160 28 160 28 148 14 c 128,-1,13
 136 0 136 0 120 0 c 1,14,-1
 120 0 l 1,0,1
160 83 m 1,15,16
 143 83 143 83 132 97 c 0,17,18
 120 111 120 111 120 129 c 256,19,20
 120 148 120 148 132 161 c 0,21,22
 144 175 144 175 160 175 c 256,23,24
 177 175 177 175 188 161 c 0,25,26
 199.076923077 148.076923077 199.076923077 148.076923077 199.076923077 131.74556213 c 0,27,28
 199.076923077 110.090909091 199.076923077 110.090909091 188 97 c 0,29,30
 176 83 176 83 160 83 c 1,31,-1
 160 83 l 1,15,16
199 166 m 1,32,33
 182 166 182 166 171 180 c 0,34,35
 159.923076923 192.923076923 159.923076923 192.923076923 159.923076923 209.25443787 c 0,36,37
 159.923076923 229.902097902 159.923076923 229.902097902 171 244 c 0,38,39
 183 258 183 258 199 258 c 256,40,41
 216 258 216 258 228 244 c 128,-1,42
 240 230 240 230 240 212 c 256,43,44
 240 193 240 193 228 180 c 0,45,46
 216 166 216 166 199 166 c 1,47,-1
 199 166 l 1,32,33
80 250 m 1,48,49
 63 250 63 250 52 263 c 0,50,51
 40 278 40 278 40 296 c 0,52,53
 40 316 40 316 52 328 c 0,54,55
 63.2 341.066666667 63.2 341.066666667 77.8844444444 341.066666667 c 0,56,57
 78.9333333333 341.066666667 78.9333333333 341.066666667 80 341 c 256,58,59
 81.1333333333 341.066666667 81.1333333333 341.066666667 82.24 341.066666667 c 0,60,61
 97.7333333333 341.066666667 97.7333333333 341.066666667 108 328 c 0,62,63
 120 314 120 314 120 296 c 0,64,65
 120 277 120 277 108 263 c 0,66,67
 96.8 249.933333333 96.8 249.933333333 82.1155555556 249.933333333 c 0,68,69
 81.0666666667 249.933333333 81.0666666667 249.933333333 80 250 c 1,70,-1
 80 250 l 1,48,49
160 250 m 1,71,72
 143 250 143 250 132 263 c 0,73,74
 120 278 120 278 120 296 c 0,75,76
 120 316 120 316 132 328 c 0,77,78
 143.2 341.066666667 143.2 341.066666667 157.884444444 341.066666667 c 0,79,80
 158.933333333 341.066666667 158.933333333 341.066666667 160 341 c 256,81,82
 161.133333333 341.066666667 161.133333333 341.066666667 162.24 341.066666667 c 0,83,84
 177.733333333 341.066666667 177.733333333 341.066666667 188 328 c 0,85,86
 199.076923077 315.076923077 199.076923077 315.076923077 199.076923077 298.74556213 c 0,87,88
 199.076923077 277.097902098 199.076923077 277.097902098 188 263 c 256,89,90
 176.8 249.933333333 176.8 249.933333333 162.115555556 249.933333333 c 0,91,92
 161.066666667 249.933333333 161.066666667 249.933333333 160 250 c 1,93,-1
 160 250 l 1,71,72
240 250 m 1,94,95
 223 250 223 250 212 263 c 0,96,97
 200 278 200 278 199 296 c 0,98,99
 199 316 199 316 212 328 c 0,100,101
 223.2 341.066666667 223.2 341.066666667 237.884444444 341.066666667 c 0,102,103
 238.933333333 341.066666667 238.933333333 341.066666667 240 341 c 256,104,105
 241.133333333 341.066666667 241.133333333 341.066666667 242.244444444 341.066666667 c 0,106,107
 257.8 341.066666667 257.8 341.066666667 269 328 c 128,-1,108
 280.076923077 315.076923077 280.076923077 315.076923077 280.076923077 298.74556213 c 0,109,110
 280.076923077 277.097902098 280.076923077 277.097902098 269 263 c 0,111,112
 257.8 249.933333333 257.8 249.933333333 242.244444444 249.933333333 c 0,113,114
 241.133333333 249.933333333 241.133333333 249.933333333 240 250 c 1,115,-1
 240 250 l 1,94,95
40 333 m 1,116,117
 38.8666666667 332.933333333 38.8666666667 332.933333333 37.76 332.933333333 c 0,118,119
 22.2666666667 332.933333333 22.2666666667 332.933333333 12 346 c 0,120,121
 0 360 0 360 0 379 c 256,122,123
 0 398 0 398 12 411 c 0,124,125
 17 417 17 417 23 421 c 1,126,-1
 23 421 l 1,127,128
 17 424 17 424 12 430 c 0,129,130
 0 444 0 444 0 462 c 0,131,132
 0 481 0 481 12 495 c 256,133,134
 24 508 24 508 40 508 c 256,135,136
 57 508 57 508 68 495 c 0,137,138
 80 481 80 481 80 462 c 128,-1,139
 80 443 80 443 68 430 c 0,140,141
 63 424 63 424 57 421 c 1,142,-1
 57 421 l 1,143,144
 63 418 63 418 68 411 c 0,145,146
 80 397 80 397 80 379 c 256,147,148
 80 360 80 360 68 346 c 0,149,150
 56.8 332.933333333 56.8 332.933333333 42.1155555556 332.933333333 c 0,151,152
 41.0666666667 332.933333333 41.0666666667 332.933333333 40 333 c 1,153,-1
 40 333 l 1,116,117
280 333 m 1,154,155
 278.866666667 332.933333333 278.866666667 332.933333333 277.755555556 332.933333333 c 0,156,157
 262.2 332.933333333 262.2 332.933333333 251 346 c 128,-1,158
 239.923076923 358.923076923 239.923076923 358.923076923 239.923076923 376.106508876 c 0,159,160
 239.923076923 397.909090909 239.923076923 397.909090909 251 411 c 0,161,162
 256 417 256 417 263 421 c 1,163,-1
 263 421 l 1,164,165
 257 424 257 424 251 430 c 0,166,167
 239.923076923 442.923076923 239.923076923 442.923076923 239.923076923 459.25443787 c 0,168,169
 239.923076923 480.902097902 239.923076923 480.902097902 251 495 c 0,170,171
 263 508 263 508 280 508 c 256,172,173
 297 508 297 508 308 495 c 0,174,175
 320 481 320 481 320 462 c 128,-1,176
 320 443 320 443 308 430 c 0,177,178
 303 424 303 424 297 421 c 1,179,-1
 297 421 l 1,180,181
 303 418 303 418 308 411 c 0,182,183
 320 397 320 397 320 379 c 256,184,185
 320 360 320 360 308 346 c 0,186,187
 296.8 332.933333333 296.8 332.933333333 282.115555556 332.933333333 c 0,188,189
 281.066666667 332.933333333 281.066666667 332.933333333 280 333 c 1,190,-1
 280 333 l 1,154,155
80 500 m 1,191,192
 63 500 63 500 52 513 c 0,193,194
 40 527 40 527 40 546 c 256,195,196
 40 565 40 565 52 578 c 0,197,198
 64 592 64 592 80 592 c 256,199,200
 97 592 97 592 108 578 c 0,201,202
 120 564 120 564 120 546 c 256,203,204
 120 527 120 527 108 513 c 0,205,206
 96.8 499.933333333 96.8 499.933333333 82.1155555556 499.933333333 c 0,207,208
 81.0666666667 499.933333333 81.0666666667 499.933333333 80 500 c 1,209,-1
 80 500 l 1,191,192
160 500 m 1,210,211
 143 500 143 500 132 513 c 0,212,213
 120 527 120 527 120 546 c 256,214,215
 120 565 120 565 132 578 c 0,216,217
 144 592 144 592 160 592 c 256,218,219
 177 592 177 592 188 578 c 0,220,221
 199.076923077 565.076923077 199.076923077 565.076923077 199.076923077 548.74556213 c 0,222,223
 199.076923077 527.097902098 199.076923077 527.097902098 188 513 c 0,224,225
 176.8 499.933333333 176.8 499.933333333 162.115555556 499.933333333 c 0,226,227
 161.066666667 499.933333333 161.066666667 499.933333333 160 500 c 1,228,-1
 160 500 l 1,210,211
240 500 m 1,229,230
 223 500 223 500 212 513 c 0,231,232
 200 527 200 527 199 546 c 256,233,234
 199 565 199 565 212 578 c 0,235,236
 224 592 224 592 240 592 c 256,237,238
 257 592 257 592 269 578 c 0,239,240
 280.076923077 565.076923077 280.076923077 565.076923077 280.076923077 548.74556213 c 0,241,242
 280.076923077 527.097902098 280.076923077 527.097902098 269 513 c 0,243,244
 257.8 499.933333333 257.8 499.933333333 242.244444444 499.933333333 c 0,245,246
 241.133333333 499.933333333 241.133333333 499.933333333 240 500 c 1,247,-1
 240 500 l 1,229,230
EndSplineSet
EndChar

StartChar: colon
Encoding: 58 58 26
Width: 360
VWidth: 750
Flags: W
LayerCount: 2
Fore
SplineSet
160 0 m 1,0,1
 143 0 143 0 132 14 c 0,2,3
 120 28 120 28 120 46 c 0,4,5
 120 65 120 65 132 78 c 0,6,7
 144 92 144 92 160 92 c 256,8,9
 177 92 177 92 188 78 c 256,10,11
 199.076923077 65.0769230769 199.076923077 65.0769230769 199.076923077 48.7455621302 c 0,12,13
 199.076923077 28.0979020979 199.076923077 28.0979020979 188 14 c 0,14,15
 176 0 176 0 160 0 c 1,16,-1
 160 0 l 1,0,1
120 83 m 1,17,18
 103 83 103 83 91 97 c 0,19,20
 79.9230769231 109.923076923 79.9230769231 109.923076923 79.9230769231 126.25443787 c 0,21,22
 79.9230769231 147.909090909 79.9230769231 147.909090909 91 161 c 0,23,24
 103 175 103 175 120 175 c 256,25,26
 137 175 137 175 148 161 c 0,27,28
 160 147 160 147 160 129 c 256,29,30
 160 110 160 110 148 97 c 0,31,32
 136 83 136 83 120 83 c 1,33,-1
 120 83 l 1,17,18
199 83 m 1,34,35
 182 83 182 83 171 97 c 0,36,37
 159.923076923 109.923076923 159.923076923 109.923076923 159.923076923 126.25443787 c 0,38,39
 159.923076923 147.909090909 159.923076923 147.909090909 171 161 c 0,40,41
 183 175 183 175 199 175 c 256,42,43
 216 175 216 175 228 161 c 128,-1,44
 240 147 240 147 240 129 c 256,45,46
 240 110 240 110 228 97 c 0,47,48
 216 83 216 83 199 83 c 1,49,-1
 199 83 l 1,34,35
160 166 m 1,50,51
 143 166 143 166 132 180 c 0,52,53
 120 194 120 194 120 212 c 256,54,55
 120 230 120 230 132 244 c 128,-1,56
 144 258 144 258 160 258 c 256,57,58
 177 258 177 258 188 244 c 0,59,60
 199.076923077 231.076923077 199.076923077 231.076923077 199.076923077 214.74556213 c 0,61,62
 199.076923077 193.090909091 199.076923077 193.090909091 188 180 c 0,63,64
 176 166 176 166 160 166 c 1,65,-1
 160 166 l 1,50,51
160 333 m 1,66,67
 158.866666667 332.933333333 158.866666667 332.933333333 157.76 332.933333333 c 0,68,69
 142.266666667 332.933333333 142.266666667 332.933333333 132 346 c 0,70,71
 120 360 120 360 120 379 c 256,72,73
 120 398 120 398 132 411 c 128,-1,74
 144 424 144 424 160 424 c 256,75,76
 177 424 177 424 188 411 c 128,-1,77
 199.076923077 398.076923077 199.076923077 398.076923077 199.076923077 381.74556213 c 0,78,79
 199.076923077 360.097902098 199.076923077 360.097902098 188 346 c 0,80,81
 176.8 332.933333333 176.8 332.933333333 162.115555556 332.933333333 c 0,82,83
 161.066666667 332.933333333 161.066666667 332.933333333 160 333 c 1,84,-1
 160 333 l 1,66,67
120 416 m 1,85,86
 103 416 103 416 91 430 c 0,87,88
 79.9230769231 442.923076923 79.9230769231 442.923076923 79.9230769231 459.25443787 c 0,89,90
 79.9230769231 480.902097902 79.9230769231 480.902097902 91 495 c 0,91,92
 103 508 103 508 120 508 c 256,93,94
 137 508 137 508 148 495 c 0,95,96
 160 481 160 481 160 462 c 128,-1,97
 160 443 160 443 148 430 c 0,98,99
 136 416 136 416 120 416 c 1,100,-1
 120 416 l 1,85,86
199 416 m 1,101,102
 182 416 182 416 171 430 c 256,103,104
 159.923076923 442.923076923 159.923076923 442.923076923 159.923076923 459.25443787 c 0,105,106
 159.923076923 480.902097902 159.923076923 480.902097902 171 495 c 256,107,108
 183 508 183 508 199 508 c 256,109,110
 216 508 216 508 228 495 c 0,111,112
 240 481 240 481 240 462 c 128,-1,113
 240 443 240 443 228 430 c 0,114,115
 216 416 216 416 199 416 c 1,116,-1
 199 416 l 1,101,102
160 500 m 1,117,118
 143 500 143 500 132 513 c 0,119,120
 120 527 120 527 120 546 c 256,121,122
 120 565 120 565 132 578 c 0,123,124
 144 592 144 592 160 592 c 256,125,126
 177 592 177 592 188 578 c 0,127,128
 199.076923077 565.076923077 199.076923077 565.076923077 199.076923077 548.74556213 c 0,129,130
 199.076923077 527.097902098 199.076923077 527.097902098 188 513 c 0,131,132
 176.8 499.933333333 176.8 499.933333333 162.115555556 499.933333333 c 0,133,134
 161.066666667 499.933333333 161.066666667 499.933333333 160 500 c 1,135,-1
 160 500 l 1,117,118
EndSplineSet
EndChar

StartChar: semicolon
Encoding: 59 59 27
Width: 360
VWidth: 750
Flags: W
LayerCount: 2
Fore
SplineSet
120 -83 m 1,0,1
 103 -83 103 -83 91 -70 c 0,2,3
 79.9230769231 -57.0769230769 79.9230769231 -57.0769230769 79.9230769231 -40.7455621302 c 0,4,5
 79.9230769231 -18.0979020979 79.9230769231 -18.0979020979 91 -4 c 0,6,7
 102.142857143 8.07142857143 102.142857143 8.07142857143 117.596938776 8.07142857143 c 0,8,9
 118.785714286 8.07142857143 118.785714286 8.07142857143 120 8 c 256,10,11
 137 8 137 8 148 -4 c 0,12,13
 160 -18 160 -18 160 -38 c 256,14,15
 160 -57 160 -57 148 -70 c 0,16,17
 136.8 -83.0666666667 136.8 -83.0666666667 122.115555556 -83.0666666667 c 0,18,19
 121.066666667 -83.0666666667 121.066666667 -83.0666666667 120 -83 c 1,20,-1
 120 -83 l 1,0,1
160 0 m 1,21,22
 143 0 143 0 132 14 c 0,23,24
 120 28 120 28 120 46 c 0,25,26
 120 65 120 65 132 78 c 0,27,28
 144 92 144 92 160 92 c 256,29,30
 177 92 177 92 188 78 c 256,31,32
 199.076923077 65.0769230769 199.076923077 65.0769230769 199.076923077 48.7455621302 c 0,33,34
 199.076923077 28.0979020979 199.076923077 28.0979020979 188 14 c 0,35,36
 176 0 176 0 160 0 c 1,37,-1
 160 0 l 1,21,22
120 83 m 1,38,39
 103 83 103 83 91 97 c 0,40,41
 79.9230769231 109.923076923 79.9230769231 109.923076923 79.9230769231 126.25443787 c 0,42,43
 79.9230769231 147.909090909 79.9230769231 147.909090909 91 161 c 0,44,45
 103 175 103 175 120 175 c 256,46,47
 137 175 137 175 148 161 c 0,48,49
 160 147 160 147 160 129 c 256,50,51
 160 110 160 110 148 97 c 0,52,53
 136 83 136 83 120 83 c 1,54,-1
 120 83 l 1,38,39
199 83 m 1,55,56
 182 83 182 83 171 97 c 0,57,58
 159.923076923 109.923076923 159.923076923 109.923076923 159.923076923 126.25443787 c 0,59,60
 159.923076923 147.909090909 159.923076923 147.909090909 171 161 c 0,61,62
 183 175 183 175 199 175 c 256,63,64
 216 175 216 175 228 161 c 128,-1,65
 240 147 240 147 240 129 c 256,66,67
 240 110 240 110 228 97 c 0,68,69
 216 83 216 83 199 83 c 1,70,-1
 199 83 l 1,55,56
160 166 m 1,71,72
 143 166 143 166 132 180 c 0,73,74
 120 194 120 194 120 212 c 256,75,76
 120 230 120 230 132 244 c 128,-1,77
 144 258 144 258 160 258 c 256,78,79
 177 258 177 258 188 244 c 0,80,81
 199.076923077 231.076923077 199.076923077 231.076923077 199.076923077 214.74556213 c 0,82,83
 199.076923077 193.090909091 199.076923077 193.090909091 188 180 c 0,84,85
 176 166 176 166 160 166 c 1,86,-1
 160 166 l 1,71,72
160 333 m 1,87,88
 158.866666667 332.933333333 158.866666667 332.933333333 157.76 332.933333333 c 0,89,90
 142.266666667 332.933333333 142.266666667 332.933333333 132 346 c 0,91,92
 120 360 120 360 120 379 c 256,93,94
 120 398 120 398 132 411 c 128,-1,95
 144 424 144 424 160 424 c 256,96,97
 177 424 177 424 188 411 c 128,-1,98
 199.076923077 398.076923077 199.076923077 398.076923077 199.076923077 381.74556213 c 0,99,100
 199.076923077 360.097902098 199.076923077 360.097902098 188 346 c 0,101,102
 176.8 332.933333333 176.8 332.933333333 162.115555556 332.933333333 c 0,103,104
 161.066666667 332.933333333 161.066666667 332.933333333 160 333 c 1,105,-1
 160 333 l 1,87,88
120 416 m 1,106,107
 103 416 103 416 91 430 c 0,108,109
 79.9230769231 442.923076923 79.9230769231 442.923076923 79.9230769231 459.25443787 c 0,110,111
 79.9230769231 480.902097902 79.9230769231 480.902097902 91 495 c 0,112,113
 103 508 103 508 120 508 c 256,114,115
 137 508 137 508 148 495 c 0,116,117
 160 481 160 481 160 462 c 128,-1,118
 160 443 160 443 148 430 c 0,119,120
 136 416 136 416 120 416 c 1,121,-1
 120 416 l 1,106,107
199 416 m 1,122,123
 182 416 182 416 171 430 c 256,124,125
 159.923076923 442.923076923 159.923076923 442.923076923 159.923076923 459.25443787 c 0,126,127
 159.923076923 480.902097902 159.923076923 480.902097902 171 495 c 256,128,129
 183 508 183 508 199 508 c 256,130,131
 216 508 216 508 228 495 c 0,132,133
 240 481 240 481 240 462 c 128,-1,134
 240 443 240 443 228 430 c 0,135,136
 216 416 216 416 199 416 c 1,137,-1
 199 416 l 1,122,123
160 500 m 1,138,139
 143 500 143 500 132 513 c 0,140,141
 120 527 120 527 120 546 c 256,142,143
 120 565 120 565 132 578 c 0,144,145
 144 592 144 592 160 592 c 256,146,147
 177 592 177 592 188 578 c 0,148,149
 199.076923077 565.076923077 199.076923077 565.076923077 199.076923077 548.74556213 c 0,150,151
 199.076923077 527.097902098 199.076923077 527.097902098 188 513 c 0,152,153
 176.8 499.933333333 176.8 499.933333333 162.115555556 499.933333333 c 0,154,155
 161.066666667 499.933333333 161.066666667 499.933333333 160 500 c 1,156,-1
 160 500 l 1,138,139
EndSplineSet
EndChar

StartChar: less
Encoding: 60 60 28
Width: 360
VWidth: 750
Flags: W
LayerCount: 2
Fore
SplineSet
320 0 m 1,0,1
 303 0 303 0 292 14 c 0,2,3
 280 28 280 28 280 46 c 0,4,5
 280 65 280 65 292 78 c 0,6,7
 304 92 304 92 320 92 c 256,8,9
 337 92 337 92 348 78 c 0,10,11
 360 64 360 64 360 46 c 128,-1,12
 360 28 360 28 348 14 c 128,-1,13
 336 0 336 0 320 0 c 1,14,-1
 320 0 l 1,0,1
240 83 m 1,15,16
 223 83 223 83 212 97 c 0,17,18
 200 111 200 111 199 129 c 256,19,20
 199 148 199 148 212 161 c 0,21,22
 224 175 224 175 240 175 c 256,23,24
 257 175 257 175 269 161 c 0,25,26
 280.076923077 148.076923077 280.076923077 148.076923077 280.076923077 131.74556213 c 0,27,28
 280.076923077 110.090909091 280.076923077 110.090909091 269 97 c 0,29,30
 257 83 257 83 240 83 c 1,31,-1
 240 83 l 1,15,16
160 166 m 1,32,33
 143 166 143 166 132 180 c 0,34,35
 120 194 120 194 120 212 c 256,36,37
 120 230 120 230 132 244 c 128,-1,38
 144 258 144 258 160 258 c 256,39,40
 177 258 177 258 188 244 c 0,41,42
 199.076923077 231.076923077 199.076923077 231.076923077 199.076923077 214.74556213 c 0,43,44
 199.076923077 193.090909091 199.076923077 193.090909091 188 180 c 0,45,46
 176 166 176 166 160 166 c 1,47,-1
 160 166 l 1,32,33
80 250 m 1,48,49
 63 250 63 250 52 263 c 0,50,51
 40 278 40 278 40 296 c 0,52,53
 40 316 40 316 52 328 c 0,54,55
 63.2 341.066666667 63.2 341.066666667 77.8844444444 341.066666667 c 0,56,57
 78.9333333333 341.066666667 78.9333333333 341.066666667 80 341 c 256,58,59
 81.1333333333 341.066666667 81.1333333333 341.066666667 82.24 341.066666667 c 0,60,61
 97.7333333333 341.066666667 97.7333333333 341.066666667 108 328 c 0,62,63
 120 314 120 314 120 296 c 0,64,65
 120 277 120 277 108 263 c 0,66,67
 96.8 249.933333333 96.8 249.933333333 82.1155555556 249.933333333 c 0,68,69
 81.0666666667 249.933333333 81.0666666667 249.933333333 80 250 c 1,70,-1
 80 250 l 1,48,49
160 333 m 1,71,72
 158.866666667 332.933333333 158.866666667 332.933333333 157.76 332.933333333 c 0,73,74
 142.266666667 332.933333333 142.266666667 332.933333333 132 346 c 0,75,76
 120 360 120 360 120 379 c 256,77,78
 120 398 120 398 132 411 c 128,-1,79
 144 424 144 424 160 424 c 256,80,81
 177 424 177 424 188 411 c 128,-1,82
 199.076923077 398.076923077 199.076923077 398.076923077 199.076923077 381.74556213 c 0,83,84
 199.076923077 360.097902098 199.076923077 360.097902098 188 346 c 0,85,86
 176.8 332.933333333 176.8 332.933333333 162.115555556 332.933333333 c 0,87,88
 161.066666667 332.933333333 161.066666667 332.933333333 160 333 c 1,89,-1
 160 333 l 1,71,72
240 416 m 1,90,91
 223 416 223 416 212 430 c 0,92,93
 200 444 200 444 199 462 c 0,94,95
 199 481 199 481 212 495 c 0,96,97
 224 508 224 508 240 508 c 256,98,99
 257 508 257 508 269 495 c 0,100,101
 280.076923077 482.076923077 280.076923077 482.076923077 280.076923077 464.893491124 c 0,102,103
 280.076923077 443.090909091 280.076923077 443.090909091 269 430 c 0,104,105
 257 416 257 416 240 416 c 1,106,-1
 240 416 l 1,90,91
320 500 m 1,107,108
 303 500 303 500 292 513 c 0,109,110
 280 527 280 527 280 546 c 256,111,112
 280 565 280 565 292 578 c 0,113,114
 304 592 304 592 320 592 c 256,115,116
 337 592 337 592 348 578 c 0,117,118
 360 564 360 564 360 546 c 256,119,120
 360 527 360 527 348 513 c 0,121,122
 336.8 499.933333333 336.8 499.933333333 322.115555556 499.933333333 c 0,123,124
 321.066666667 499.933333333 321.066666667 499.933333333 320 500 c 1,125,-1
 320 500 l 1,107,108
EndSplineSet
EndChar

StartChar: equal
Encoding: 61 61 29
Width: 360
VWidth: 750
Flags: W
LayerCount: 2
Fore
SplineSet
40 166 m 1,0,1
 23 166 23 166 12 180 c 0,2,3
 0 194 0 194 0 212 c 256,4,5
 0 230 0 230 12 244 c 128,-1,6
 24 258 24 258 40 258 c 256,7,8
 57 258 57 258 68 244 c 0,9,10
 80 230 80 230 80 212 c 256,11,12
 80 193 80 193 68 180 c 0,13,14
 56 166 56 166 40 166 c 1,15,-1
 40 166 l 1,0,1
120 166 m 1,16,17
 103 166 103 166 91 180 c 0,18,19
 79.9230769231 192.923076923 79.9230769231 192.923076923 79.9230769231 209.25443787 c 0,20,21
 79.9230769231 229.902097902 79.9230769231 229.902097902 91 244 c 0,22,23
 103 258 103 258 120 258 c 256,24,25
 137 258 137 258 148 244 c 0,26,27
 160 230 160 230 160 212 c 256,28,29
 160 193 160 193 148 180 c 0,30,31
 136 166 136 166 120 166 c 1,32,-1
 120 166 l 1,16,17
199 166 m 1,33,34
 182 166 182 166 171 180 c 0,35,36
 159.923076923 192.923076923 159.923076923 192.923076923 159.923076923 209.25443787 c 0,37,38
 159.923076923 229.902097902 159.923076923 229.902097902 171 244 c 0,39,40
 183 258 183 258 199 258 c 256,41,42
 216 258 216 258 228 244 c 128,-1,43
 240 230 240 230 240 212 c 256,44,45
 240 193 240 193 228 180 c 0,46,47
 216 166 216 166 199 166 c 1,48,-1
 199 166 l 1,33,34
280 166 m 1,49,50
 263 166 263 166 251 180 c 0,51,52
 239.923076923 192.923076923 239.923076923 192.923076923 239.923076923 209.25443787 c 0,53,54
 239.923076923 229.902097902 239.923076923 229.902097902 251 244 c 0,55,56
 263 258 263 258 280 258 c 256,57,58
 297 258 297 258 308 244 c 0,59,60
 320 230 320 230 320 212 c 256,61,62
 320 193 320 193 308 180 c 0,63,64
 296 166 296 166 280 166 c 1,65,-1
 280 166 l 1,49,50
40 333 m 1,66,67
 38.8666666667 332.933333333 38.8666666667 332.933333333 37.76 332.933333333 c 0,68,69
 22.2666666667 332.933333333 22.2666666667 332.933333333 12 346 c 0,70,71
 0 360 0 360 0 379 c 256,72,73
 0 398 0 398 12 411 c 128,-1,74
 24 424 24 424 40 424 c 256,75,76
 57 424 57 424 68 411 c 0,77,78
 80 397 80 397 80 379 c 256,79,80
 80 360 80 360 68 346 c 0,81,82
 56.8 332.933333333 56.8 332.933333333 42.1155555556 332.933333333 c 0,83,84
 41.0666666667 332.933333333 41.0666666667 332.933333333 40 333 c 1,85,-1
 40 333 l 1,66,67
120 333 m 1,86,87
 118.866666667 332.933333333 118.866666667 332.933333333 117.755555556 332.933333333 c 0,88,89
 102.2 332.933333333 102.2 332.933333333 91 346 c 128,-1,90
 79.9230769231 358.923076923 79.9230769231 358.923076923 79.9230769231 376.106508876 c 0,91,92
 79.9230769231 397.909090909 79.9230769231 397.909090909 91 411 c 0,93,94
 103 424 103 424 120 424 c 256,95,96
 137 424 137 424 148 411 c 0,97,98
 160 397 160 397 160 379 c 256,99,100
 160 360 160 360 148 346 c 0,101,102
 136.8 332.933333333 136.8 332.933333333 122.115555556 332.933333333 c 0,103,104
 121.066666667 332.933333333 121.066666667 332.933333333 120 333 c 1,105,-1
 120 333 l 1,86,87
199 333 m 1,106,107
 197.866666667 332.933333333 197.866666667 332.933333333 196.76 332.933333333 c 0,108,109
 181.266666667 332.933333333 181.266666667 332.933333333 171 346 c 0,110,111
 159.923076923 358.923076923 159.923076923 358.923076923 159.923076923 376.106508876 c 0,112,113
 159.923076923 397.909090909 159.923076923 397.909090909 171 411 c 0,114,115
 183 424 183 424 199 424 c 256,116,117
 216 424 216 424 228 411 c 0,118,119
 240 397 240 397 240 379 c 256,120,121
 240 360 240 360 228 346 c 0,122,123
 216.8 332.933333333 216.8 332.933333333 201.244444444 332.933333333 c 0,124,125
 200.133333333 332.933333333 200.133333333 332.933333333 199 333 c 1,126,-1
 199 333 l 1,106,107
280 333 m 1,127,128
 278.866666667 332.933333333 278.866666667 332.933333333 277.755555556 332.933333333 c 0,129,130
 262.2 332.933333333 262.2 332.933333333 251 346 c 128,-1,131
 239.923076923 358.923076923 239.923076923 358.923076923 239.923076923 376.106508876 c 0,132,133
 239.923076923 397.909090909 239.923076923 397.909090909 251 411 c 0,134,135
 263 424 263 424 280 424 c 256,136,137
 297 424 297 424 308 411 c 0,138,139
 320 397 320 397 320 379 c 256,140,141
 320 360 320 360 308 346 c 0,142,143
 296.8 332.933333333 296.8 332.933333333 282.115555556 332.933333333 c 0,144,145
 281.066666667 332.933333333 281.066666667 332.933333333 280 333 c 1,146,-1
 280 333 l 1,127,128
EndSplineSet
EndChar

StartChar: greater
Encoding: 62 62 30
Width: 360
VWidth: 750
Flags: W
LayerCount: 2
Fore
SplineSet
80 0 m 1,0,1
 63 0 63 0 52 14 c 0,2,3
 40 28 40 28 40 46 c 0,4,5
 40 65 40 65 52 78 c 0,6,7
 64 92 64 92 80 92 c 256,8,9
 97 92 97 92 108 78 c 0,10,11
 120 64 120 64 120 46 c 128,-1,12
 120 28 120 28 108 14 c 128,-1,13
 96 0 96 0 80 0 c 1,14,-1
 80 0 l 1,0,1
160 83 m 1,15,16
 143 83 143 83 132 97 c 0,17,18
 120 111 120 111 120 129 c 256,19,20
 120 148 120 148 132 161 c 0,21,22
 144 175 144 175 160 175 c 256,23,24
 177 175 177 175 188 161 c 0,25,26
 199.076923077 148.076923077 199.076923077 148.076923077 199.076923077 131.74556213 c 0,27,28
 199.076923077 110.090909091 199.076923077 110.090909091 188 97 c 0,29,30
 176 83 176 83 160 83 c 1,31,-1
 160 83 l 1,15,16
240 166 m 1,32,33
 223 166 223 166 212 180 c 0,34,35
 200 194 200 194 199 212 c 256,36,37
 199 230 199 230 212 244 c 0,38,39
 224 258 224 258 240 258 c 256,40,41
 257 258 257 258 269 244 c 0,42,43
 280.076923077 231.076923077 280.076923077 231.076923077 280.076923077 214.74556213 c 0,44,45
 280.076923077 193.090909091 280.076923077 193.090909091 269 180 c 0,46,47
 257 166 257 166 240 166 c 1,48,-1
 240 166 l 1,32,33
320 250 m 1,49,50
 303 250 303 250 292 263 c 0,51,52
 280 278 280 278 280 296 c 0,53,54
 280 316 280 316 292 328 c 0,55,56
 303.2 341.066666667 303.2 341.066666667 317.884444444 341.066666667 c 0,57,58
 318.933333333 341.066666667 318.933333333 341.066666667 320 341 c 256,59,60
 321.133333333 341.066666667 321.133333333 341.066666667 322.24 341.066666667 c 0,61,62
 337.733333333 341.066666667 337.733333333 341.066666667 348 328 c 0,63,64
 360 314 360 314 360 296 c 0,65,66
 360 277 360 277 348 263 c 0,67,68
 336.8 249.933333333 336.8 249.933333333 322.115555556 249.933333333 c 0,69,70
 321.066666667 249.933333333 321.066666667 249.933333333 320 250 c 1,71,-1
 320 250 l 1,49,50
240 333 m 1,72,73
 238.866666667 332.933333333 238.866666667 332.933333333 237.76 332.933333333 c 0,74,75
 222.266666667 332.933333333 222.266666667 332.933333333 212 346 c 0,76,77
 200 360 200 360 199 379 c 256,78,79
 199 398 199 398 212 411 c 0,80,81
 224 424 224 424 240 424 c 256,82,83
 257 424 257 424 269 411 c 0,84,85
 280.076923077 398.076923077 280.076923077 398.076923077 280.076923077 381.74556213 c 0,86,87
 280.076923077 360.097902098 280.076923077 360.097902098 269 346 c 0,88,89
 257.8 332.933333333 257.8 332.933333333 242.244444444 332.933333333 c 0,90,91
 241.133333333 332.933333333 241.133333333 332.933333333 240 333 c 1,92,-1
 240 333 l 1,72,73
160 416 m 1,93,94
 143 416 143 416 132 430 c 0,95,96
 120 444 120 444 120 462 c 0,97,98
 120 481 120 481 132 495 c 0,99,100
 144 508 144 508 160 508 c 256,101,102
 177 508 177 508 188 495 c 256,103,104
 199.076923077 482.076923077 199.076923077 482.076923077 199.076923077 464.893491124 c 0,105,106
 199.076923077 443.090909091 199.076923077 443.090909091 188 430 c 256,107,108
 176 416 176 416 160 416 c 1,109,-1
 160 416 l 1,93,94
80 500 m 1,110,111
 63 500 63 500 52 513 c 0,112,113
 40 527 40 527 40 546 c 256,114,115
 40 565 40 565 52 578 c 0,116,117
 64 592 64 592 80 592 c 256,118,119
 97 592 97 592 108 578 c 0,120,121
 120 564 120 564 120 546 c 256,122,123
 120 527 120 527 108 513 c 0,124,125
 96.8 499.933333333 96.8 499.933333333 82.1155555556 499.933333333 c 0,126,127
 81.0666666667 499.933333333 81.0666666667 499.933333333 80 500 c 1,128,-1
 80 500 l 1,110,111
EndSplineSet
EndChar

StartChar: question
Encoding: 63 63 31
Width: 360
VWidth: 750
Flags: W
LayerCount: 2
Fore
SplineSet
160 0 m 1,0,1
 143 0 143 0 132 14 c 0,2,3
 120 28 120 28 120 46 c 0,4,5
 120 65 120 65 132 78 c 0,6,7
 144 92 144 92 160 92 c 256,8,9
 177 92 177 92 188 78 c 256,10,11
 199.076923077 65.0769230769 199.076923077 65.0769230769 199.076923077 48.7455621302 c 0,12,13
 199.076923077 28.0979020979 199.076923077 28.0979020979 188 14 c 0,14,15
 176 0 176 0 160 0 c 1,16,-1
 160 0 l 1,0,1
160 166 m 1,17,18
 143 166 143 166 132 180 c 0,19,20
 120 194 120 194 120 212 c 256,21,22
 120 230 120 230 132 244 c 0,23,24
 137 250 137 250 143 254 c 1,25,-1
 143 254 l 1,26,27
 137 257 137 257 132 263 c 0,28,29
 120 278 120 278 120 296 c 0,30,31
 120 316 120 316 132 328 c 0,32,33
 143.2 341.066666667 143.2 341.066666667 157.884444444 341.066666667 c 0,34,35
 158.933333333 341.066666667 158.933333333 341.066666667 160 341 c 256,36,37
 161.133333333 341.066666667 161.133333333 341.066666667 162.24 341.066666667 c 0,38,39
 177.733333333 341.066666667 177.733333333 341.066666667 188 328 c 0,40,41
 199.076923077 315.076923077 199.076923077 315.076923077 199.076923077 298.74556213 c 0,42,43
 199.076923077 277.097902098 199.076923077 277.097902098 188 263 c 0,44,45
 183 257 183 257 177 254 c 1,46,-1
 177 254 l 1,47,48
 183 250 183 250 188 244 c 0,49,50
 199.076923077 231.076923077 199.076923077 231.076923077 199.076923077 214.74556213 c 0,51,52
 199.076923077 193.090909091 199.076923077 193.090909091 188 180 c 0,53,54
 176 166 176 166 160 166 c 1,55,-1
 160 166 l 1,17,18
240 250 m 1,56,57
 223 250 223 250 212 263 c 0,58,59
 200 278 200 278 199 296 c 0,60,61
 199 316 199 316 212 328 c 0,62,63
 223.2 341.066666667 223.2 341.066666667 237.884444444 341.066666667 c 0,64,65
 238.933333333 341.066666667 238.933333333 341.066666667 240 341 c 256,66,67
 241.133333333 341.066666667 241.133333333 341.066666667 242.244444444 341.066666667 c 0,68,69
 257.8 341.066666667 257.8 341.066666667 269 328 c 128,-1,70
 280.076923077 315.076923077 280.076923077 315.076923077 280.076923077 298.74556213 c 0,71,72
 280.076923077 277.097902098 280.076923077 277.097902098 269 263 c 0,73,74
 257.8 249.933333333 257.8 249.933333333 242.244444444 249.933333333 c 0,75,76
 241.133333333 249.933333333 241.133333333 249.933333333 240 250 c 1,77,-1
 240 250 l 1,56,57
40 416 m 1,78,79
 23 416 23 416 12 430 c 256,80,81
 0 444 0 444 0 462 c 0,82,83
 0 481 0 481 12 495 c 256,84,85
 24 508 24 508 40 508 c 256,86,87
 57 508 57 508 68 495 c 0,88,89
 80 481 80 481 80 462 c 128,-1,90
 80 443 80 443 68 430 c 0,91,92
 56 416 56 416 40 416 c 1,93,-1
 40 416 l 1,78,79
280 333 m 1,94,95
 278.866666667 332.933333333 278.866666667 332.933333333 277.755555556 332.933333333 c 0,96,97
 262.2 332.933333333 262.2 332.933333333 251 346 c 128,-1,98
 239.923076923 358.923076923 239.923076923 358.923076923 239.923076923 376.106508876 c 0,99,100
 239.923076923 397.909090909 239.923076923 397.909090909 251 411 c 0,101,102
 256 417 256 417 263 421 c 1,103,-1
 263 421 l 1,104,105
 257 424 257 424 251 430 c 0,106,107
 239.923076923 442.923076923 239.923076923 442.923076923 239.923076923 459.25443787 c 0,108,109
 239.923076923 480.902097902 239.923076923 480.902097902 251 495 c 0,110,111
 263 508 263 508 280 508 c 256,112,113
 297 508 297 508 308 495 c 0,114,115
 320 481 320 481 320 462 c 128,-1,116
 320 443 320 443 308 430 c 0,117,118
 303 424 303 424 297 421 c 1,119,-1
 297 421 l 1,120,121
 303 418 303 418 308 411 c 0,122,123
 320 397 320 397 320 379 c 256,124,125
 320 360 320 360 308 346 c 0,126,127
 296.8 332.933333333 296.8 332.933333333 282.115555556 332.933333333 c 0,128,129
 281.066666667 332.933333333 281.066666667 332.933333333 280 333 c 1,130,-1
 280 333 l 1,94,95
80 500 m 1,131,132
 63 500 63 500 52 513 c 0,133,134
 40 527 40 527 40 546 c 256,135,136
 40 565 40 565 52 578 c 0,137,138
 64 592 64 592 80 592 c 256,139,140
 97 592 97 592 108 578 c 0,141,142
 120 564 120 564 120 546 c 256,143,144
 120 527 120 527 108 513 c 0,145,146
 96.8 499.933333333 96.8 499.933333333 82.1155555556 499.933333333 c 0,147,148
 81.0666666667 499.933333333 81.0666666667 499.933333333 80 500 c 1,149,-1
 80 500 l 1,131,132
160 500 m 1,150,151
 143 500 143 500 132 513 c 0,152,153
 120 527 120 527 120 546 c 256,154,155
 120 565 120 565 132 578 c 0,156,157
 144 592 144 592 160 592 c 256,158,159
 177 592 177 592 188 578 c 0,160,161
 199.076923077 565.076923077 199.076923077 565.076923077 199.076923077 548.74556213 c 0,162,163
 199.076923077 527.097902098 199.076923077 527.097902098 188 513 c 0,164,165
 176.8 499.933333333 176.8 499.933333333 162.115555556 499.933333333 c 0,166,167
 161.066666667 499.933333333 161.066666667 499.933333333 160 500 c 1,168,-1
 160 500 l 1,150,151
240 500 m 1,169,170
 223 500 223 500 212 513 c 0,171,172
 200 527 200 527 199 546 c 256,173,174
 199 565 199 565 212 578 c 0,175,176
 224 592 224 592 240 592 c 256,177,178
 257 592 257 592 269 578 c 0,179,180
 280.076923077 565.076923077 280.076923077 565.076923077 280.076923077 548.74556213 c 0,181,182
 280.076923077 527.097902098 280.076923077 527.097902098 269 513 c 0,183,184
 257.8 499.933333333 257.8 499.933333333 242.244444444 499.933333333 c 0,185,186
 241.133333333 499.933333333 241.133333333 499.933333333 240 500 c 1,187,-1
 240 500 l 1,169,170
EndSplineSet
EndChar

StartChar: at
Encoding: 64 64 32
Width: 360
VWidth: 750
Flags: W
LayerCount: 2
Fore
SplineSet
80 0 m 1,0,1
 63 0 63 0 52 14 c 0,2,3
 40 28 40 28 40 46 c 0,4,5
 40 65 40 65 52 78 c 0,6,7
 64 92 64 92 80 92 c 256,8,9
 97 92 97 92 108 78 c 0,10,11
 120 64 120 64 120 46 c 128,-1,12
 120 28 120 28 108 14 c 128,-1,13
 96 0 96 0 80 0 c 1,14,-1
 80 0 l 1,0,1
160 0 m 1,15,16
 143 0 143 0 132 14 c 0,17,18
 120 28 120 28 120 46 c 0,19,20
 120 65 120 65 132 78 c 0,21,22
 144 92 144 92 160 92 c 256,23,24
 177 92 177 92 188 78 c 256,25,26
 199.076923077 65.0769230769 199.076923077 65.0769230769 199.076923077 48.7455621302 c 0,27,28
 199.076923077 28.0979020979 199.076923077 28.0979020979 188 14 c 0,29,30
 176 0 176 0 160 0 c 1,31,-1
 160 0 l 1,15,16
240 0 m 1,32,33
 223 0 223 0 212 14 c 0,34,35
 200 28 200 28 199 46 c 0,36,37
 199 65 199 65 212 78 c 0,38,39
 224 92 224 92 240 92 c 256,40,41
 257 92 257 92 269 78 c 0,42,43
 280.076923077 65.0769230769 280.076923077 65.0769230769 280.076923077 48.7455621302 c 0,44,45
 280.076923077 28.0979020979 280.076923077 28.0979020979 269 14 c 0,46,47
 257 0 257 0 240 0 c 1,48,-1
 240 0 l 1,32,33
240 166 m 1,49,50
 223 166 223 166 212 180 c 0,51,52
 200 194 200 194 199 212 c 256,53,54
 199 230 199 230 212 244 c 0,55,56
 224 258 224 258 240 258 c 256,57,58
 257 258 257 258 269 244 c 0,59,60
 280.076923077 231.076923077 280.076923077 231.076923077 280.076923077 214.74556213 c 0,61,62
 280.076923077 193.090909091 280.076923077 193.090909091 269 180 c 0,63,64
 257 166 257 166 240 166 c 1,65,-1
 240 166 l 1,49,50
160 166 m 1,66,67
 143 166 143 166 132 180 c 0,68,69
 120 194 120 194 120 212 c 256,70,71
 120 230 120 230 132 244 c 0,72,73
 137 250 137 250 143 254 c 1,74,-1
 143 254 l 1,75,76
 137 257 137 257 132 263 c 0,77,78
 120 278 120 278 120 296 c 0,79,80
 120 316 120 316 132 328 c 0,81,82
 143.2 341.066666667 143.2 341.066666667 157.884444444 341.066666667 c 0,83,84
 158.933333333 341.066666667 158.933333333 341.066666667 160 341 c 256,85,86
 161.133333333 341.066666667 161.133333333 341.066666667 162.24 341.066666667 c 0,87,88
 177.733333333 341.066666667 177.733333333 341.066666667 188 328 c 0,89,90
 199.076923077 315.076923077 199.076923077 315.076923077 199.076923077 298.74556213 c 0,91,92
 199.076923077 277.097902098 199.076923077 277.097902098 188 263 c 0,93,94
 183 257 183 257 177 254 c 1,95,-1
 177 254 l 1,96,97
 183 250 183 250 188 244 c 0,98,99
 199.076923077 231.076923077 199.076923077 231.076923077 199.076923077 214.74556213 c 0,100,101
 199.076923077 193.090909091 199.076923077 193.090909091 188 180 c 0,102,103
 176 166 176 166 160 166 c 1,104,-1
 160 166 l 1,66,67
199 333 m 1,105,106
 197.866666667 332.933333333 197.866666667 332.933333333 196.76 332.933333333 c 0,107,108
 181.266666667 332.933333333 181.266666667 332.933333333 171 346 c 0,109,110
 159.923076923 358.923076923 159.923076923 358.923076923 159.923076923 376.106508876 c 0,111,112
 159.923076923 397.909090909 159.923076923 397.909090909 171 411 c 0,113,114
 183 424 183 424 199 424 c 256,115,116
 216 424 216 424 228 411 c 0,117,118
 240 397 240 397 240 379 c 256,119,120
 240 360 240 360 228 346 c 0,121,122
 216.8 332.933333333 216.8 332.933333333 201.244444444 332.933333333 c 0,123,124
 200.133333333 332.933333333 200.133333333 332.933333333 199 333 c 1,125,-1
 199 333 l 1,105,106
40 83 m 1,126,127
 23 83 23 83 12 97 c 0,128,129
 0 111 0 111 0 129 c 256,130,131
 0 148 0 148 12 161 c 0,132,133
 17 167 17 167 23 171 c 1,134,-1
 23 171 l 1,135,136
 17 174 17 174 12 180 c 0,137,138
 0 194 0 194 0 212 c 256,139,140
 0 230 0 230 12 244 c 0,141,142
 17 250 17 250 23 254 c 1,143,-1
 23 254 l 1,144,145
 17 257 17 257 12 263 c 0,146,147
 0 278 0 278 0 296 c 0,148,149
 0 316 0 316 12 328 c 0,150,151
 17 334 17 334 23 338 c 1,152,-1
 23 338 l 1,153,154
 17 340 17 340 12 346 c 0,155,156
 0 360 0 360 0 379 c 256,157,158
 0 398 0 398 12 411 c 0,159,160
 17 417 17 417 23 421 c 1,161,-1
 23 421 l 1,162,163
 17 424 17 424 12 430 c 0,164,165
 0 444 0 444 0 462 c 0,166,167
 0 481 0 481 12 495 c 256,168,169
 24 508 24 508 40 508 c 256,170,171
 57 508 57 508 68 495 c 0,172,173
 80 481 80 481 80 462 c 128,-1,174
 80 443 80 443 68 430 c 0,175,176
 63 424 63 424 57 421 c 1,177,-1
 57 421 l 1,178,179
 63 418 63 418 68 411 c 0,180,181
 80 397 80 397 80 379 c 256,182,183
 80 360 80 360 68 346 c 0,184,185
 63 340 63 340 57 338 c 1,186,-1
 57 338 l 1,187,188
 63 334 63 334 68 328 c 0,189,190
 80 314 80 314 80 296 c 0,191,192
 80 277 80 277 68 263 c 0,193,194
 63 257 63 257 57 254 c 1,195,-1
 57 254 l 1,196,197
 63 250 63 250 68 244 c 0,198,199
 80 230 80 230 80 212 c 256,200,201
 80 193 80 193 68 180 c 0,202,203
 63 174 63 174 57 171 c 1,204,-1
 57 171 l 1,205,206
 63 168 63 168 68 161 c 0,207,208
 80 147 80 147 80 129 c 256,209,210
 80 110 80 110 68 97 c 0,211,212
 56 83 56 83 40 83 c 1,213,-1
 40 83 l 1,126,127
280 250 m 1,214,215
 263 250 263 250 251 263 c 0,216,217
 239.923076923 276.846153846 239.923076923 276.846153846 239.923076923 293.24852071 c 0,218,219
 239.923076923 315.916083916 239.923076923 315.916083916 251 328 c 0,220,221
 256 334 256 334 263 338 c 1,222,-1
 263 338 l 1,223,224
 257 340 257 340 251 346 c 0,225,226
 239.923076923 358.923076923 239.923076923 358.923076923 239.923076923 376.106508876 c 0,227,228
 239.923076923 397.909090909 239.923076923 397.909090909 251 411 c 0,229,230
 256 417 256 417 263 421 c 1,231,-1
 263 421 l 1,232,233
 257 424 257 424 251 430 c 0,234,235
 239.923076923 442.923076923 239.923076923 442.923076923 239.923076923 459.25443787 c 0,236,237
 239.923076923 480.902097902 239.923076923 480.902097902 251 495 c 0,238,239
 263 508 263 508 280 508 c 256,240,241
 297 508 297 508 308 495 c 0,242,243
 320 481 320 481 320 462 c 128,-1,244
 320 443 320 443 308 430 c 0,245,246
 303 424 303 424 297 421 c 1,247,-1
 297 421 l 1,248,249
 303 418 303 418 308 411 c 0,250,251
 320 397 320 397 320 379 c 256,252,253
 320 360 320 360 308 346 c 0,254,255
 303 340 303 340 297 338 c 1,256,-1
 297 338 l 1,257,258
 303 334 303 334 308 328 c 0,259,260
 320 314 320 314 320 296 c 0,261,262
 320 277 320 277 308 263 c 0,263,264
 296.8 249.933333333 296.8 249.933333333 282.115555556 249.933333333 c 0,265,266
 281.066666667 249.933333333 281.066666667 249.933333333 280 250 c 1,267,-1
 280 250 l 1,214,215
80 500 m 1,268,269
 63 500 63 500 52 513 c 0,270,271
 40 527 40 527 40 546 c 256,272,273
 40 565 40 565 52 578 c 0,274,275
 64 592 64 592 80 592 c 256,276,277
 97 592 97 592 108 578 c 0,278,279
 120 564 120 564 120 546 c 256,280,281
 120 527 120 527 108 513 c 0,282,283
 96.8 499.933333333 96.8 499.933333333 82.1155555556 499.933333333 c 0,284,285
 81.0666666667 499.933333333 81.0666666667 499.933333333 80 500 c 1,286,-1
 80 500 l 1,268,269
160 500 m 1,287,288
 143 500 143 500 132 513 c 0,289,290
 120 527 120 527 120 546 c 256,291,292
 120 565 120 565 132 578 c 0,293,294
 144 592 144 592 160 592 c 256,295,296
 177 592 177 592 188 578 c 0,297,298
 199.076923077 565.076923077 199.076923077 565.076923077 199.076923077 548.74556213 c 0,299,300
 199.076923077 527.097902098 199.076923077 527.097902098 188 513 c 0,301,302
 176.8 499.933333333 176.8 499.933333333 162.115555556 499.933333333 c 0,303,304
 161.066666667 499.933333333 161.066666667 499.933333333 160 500 c 1,305,-1
 160 500 l 1,287,288
240 500 m 1,306,307
 223 500 223 500 212 513 c 0,308,309
 200 527 200 527 199 546 c 256,310,311
 199 565 199 565 212 578 c 0,312,313
 224 592 224 592 240 592 c 256,314,315
 257 592 257 592 269 578 c 0,316,317
 280.076923077 565.076923077 280.076923077 565.076923077 280.076923077 548.74556213 c 0,318,319
 280.076923077 527.097902098 280.076923077 527.097902098 269 513 c 0,320,321
 257.8 499.933333333 257.8 499.933333333 242.244444444 499.933333333 c 0,322,323
 241.133333333 499.933333333 241.133333333 499.933333333 240 500 c 1,324,-1
 240 500 l 1,306,307
EndSplineSet
EndChar

StartChar: A
Encoding: 65 65 33
Width: 360
VWidth: 750
Flags: W
LayerCount: 2
Fore
SplineSet
120 166 m 1,0,1
 103 166 103 166 91 180 c 0,2,3
 79.9230769231 192.923076923 79.9230769231 192.923076923 79.9230769231 209.25443787 c 0,4,5
 79.9230769231 229.902097902 79.9230769231 229.902097902 91 244 c 0,6,7
 103 258 103 258 120 258 c 256,8,9
 137 258 137 258 148 244 c 0,10,11
 160 230 160 230 160 212 c 256,12,13
 160 193 160 193 148 180 c 0,14,15
 136 166 136 166 120 166 c 1,16,-1
 120 166 l 1,0,1
199 166 m 1,17,18
 182 166 182 166 171 180 c 0,19,20
 159.923076923 192.923076923 159.923076923 192.923076923 159.923076923 209.25443787 c 0,21,22
 159.923076923 229.902097902 159.923076923 229.902097902 171 244 c 0,23,24
 183 258 183 258 199 258 c 256,25,26
 216 258 216 258 228 244 c 128,-1,27
 240 230 240 230 240 212 c 256,28,29
 240 193 240 193 228 180 c 0,30,31
 216 166 216 166 199 166 c 1,32,-1
 199 166 l 1,17,18
40 0 m 1,33,34
 23 0 23 0 12 14 c 0,35,36
 0 28 0 28 0 46 c 0,37,38
 0 65 0 65 12 78 c 0,39,40
 17 84 17 84 23 87 c 1,41,-1
 23 87 l 1,42,43
 17 90 17 90 12 97 c 0,44,45
 0 111 0 111 0 129 c 256,46,47
 0 148 0 148 12 161 c 0,48,49
 17 167 17 167 23 171 c 1,50,-1
 23 171 l 1,51,52
 17 174 17 174 12 180 c 0,53,54
 0 194 0 194 0 212 c 256,55,56
 0 230 0 230 12 244 c 0,57,58
 17 250 17 250 23 254 c 1,59,-1
 23 254 l 1,60,61
 17 257 17 257 12 263 c 0,62,63
 0 278 0 278 0 296 c 0,64,65
 0 316 0 316 12 328 c 0,66,67
 23.2 341.066666667 23.2 341.066666667 37.8844444444 341.066666667 c 0,68,69
 38.9333333333 341.066666667 38.9333333333 341.066666667 40 341 c 256,70,71
 41.1333333333 341.066666667 41.1333333333 341.066666667 42.24 341.066666667 c 0,72,73
 57.7333333333 341.066666667 57.7333333333 341.066666667 68 328 c 0,74,75
 80 314 80 314 80 296 c 0,76,77
 80 277 80 277 68 263 c 0,78,79
 63 257 63 257 57 254 c 1,80,-1
 57 254 l 1,81,82
 63 250 63 250 68 244 c 0,83,84
 80 230 80 230 80 212 c 256,85,86
 80 193 80 193 68 180 c 0,87,88
 63 174 63 174 57 171 c 1,89,-1
 57 171 l 1,90,91
 63 168 63 168 68 161 c 0,92,93
 80 147 80 147 80 129 c 256,94,95
 80 110 80 110 68 97 c 0,96,97
 63 91 63 91 57 87 c 1,98,-1
 57 87 l 1,99,100
 63 84 63 84 68 78 c 0,101,102
 80 64 80 64 80 46 c 128,-1,103
 80 28 80 28 68 14 c 128,-1,104
 56 0 56 0 40 0 c 1,105,-1
 40 0 l 1,33,34
280 0 m 1,106,107
 263 0 263 0 251 14 c 0,108,109
 239.923076923 26.9230769231 239.923076923 26.9230769231 239.923076923 43.2544378698 c 0,110,111
 239.923076923 64.9090909091 239.923076923 64.9090909091 251 78 c 0,112,113
 256 84 256 84 263 87 c 1,114,-1
 263 87 l 1,115,116
 257 90 257 90 251 97 c 0,117,118
 239.923076923 109.923076923 239.923076923 109.923076923 239.923076923 126.25443787 c 0,119,120
 239.923076923 147.909090909 239.923076923 147.909090909 251 161 c 0,121,122
 256 167 256 167 263 171 c 1,123,-1
 263 171 l 1,124,125
 257 174 257 174 251 180 c 0,126,127
 239.923076923 192.923076923 239.923076923 192.923076923 239.923076923 209.25443787 c 0,128,129
 239.923076923 229.902097902 239.923076923 229.902097902 251 244 c 0,130,131
 256 250 256 250 263 254 c 1,132,-1
 263 254 l 1,133,134
 257 257 257 257 251 263 c 0,135,136
 239.923076923 276.846153846 239.923076923 276.846153846 239.923076923 293.24852071 c 0,137,138
 239.923076923 315.916083916 239.923076923 315.916083916 251 328 c 0,139,140
 262.2 341.066666667 262.2 341.066666667 277.755555556 341.066666667 c 0,141,142
 278.866666667 341.066666667 278.866666667 341.066666667 280 341 c 256,143,144
 281.133333333 341.066666667 281.133333333 341.066666667 282.24 341.066666667 c 0,145,146
 297.733333333 341.066666667 297.733333333 341.066666667 308 328 c 0,147,148
 320 314 320 314 320 296 c 0,149,150
 320 277 320 277 308 263 c 0,151,152
 303 257 303 257 297 254 c 1,153,-1
 297 254 l 1,154,155
 303 250 303 250 308 244 c 0,156,157
 320 230 320 230 320 212 c 256,158,159
 320 193 320 193 308 180 c 0,160,161
 303 174 303 174 297 171 c 1,162,-1
 297 171 l 1,163,164
 303 168 303 168 308 161 c 0,165,166
 320 147 320 147 320 129 c 256,167,168
 320 110 320 110 308 97 c 0,169,170
 303 91 303 91 297 87 c 1,171,-1
 297 87 l 1,172,173
 303 84 303 84 308 78 c 0,174,175
 320 64 320 64 320 46 c 128,-1,176
 320 28 320 28 308 14 c 128,-1,177
 296 0 296 0 280 0 c 1,178,-1
 280 0 l 1,106,107
80 333 m 1,179,180
 78.8666666667 332.933333333 78.8666666667 332.933333333 77.76 332.933333333 c 0,181,182
 62.2666666667 332.933333333 62.2666666667 332.933333333 52 346 c 0,183,184
 40 360 40 360 40 379 c 256,185,186
 40 398 40 398 52 411 c 128,-1,187
 64 424 64 424 80 424 c 256,188,189
 97 424 97 424 108 411 c 0,190,191
 120 397 120 397 120 379 c 256,192,193
 120 360 120 360 108 346 c 0,194,195
 96.8 332.933333333 96.8 332.933333333 82.1155555556 332.933333333 c 0,196,197
 81.0666666667 332.933333333 81.0666666667 332.933333333 80 333 c 1,198,-1
 80 333 l 1,179,180
240 333 m 1,199,200
 238.866666667 332.933333333 238.866666667 332.933333333 237.76 332.933333333 c 0,201,202
 222.266666667 332.933333333 222.266666667 332.933333333 212 346 c 0,203,204
 200 360 200 360 199 379 c 256,205,206
 199 398 199 398 212 411 c 0,207,208
 224 424 224 424 240 424 c 256,209,210
 257 424 257 424 269 411 c 0,211,212
 280.076923077 398.076923077 280.076923077 398.076923077 280.076923077 381.74556213 c 0,213,214
 280.076923077 360.097902098 280.076923077 360.097902098 269 346 c 0,215,216
 257.8 332.933333333 257.8 332.933333333 242.244444444 332.933333333 c 0,217,218
 241.133333333 332.933333333 241.133333333 332.933333333 240 333 c 1,219,-1
 240 333 l 1,199,200
120 416 m 1,220,221
 103 416 103 416 91 430 c 0,222,223
 79.9230769231 442.923076923 79.9230769231 442.923076923 79.9230769231 459.25443787 c 0,224,225
 79.9230769231 480.902097902 79.9230769231 480.902097902 91 495 c 0,226,227
 103 508 103 508 120 508 c 256,228,229
 137 508 137 508 148 495 c 0,230,231
 160 481 160 481 160 462 c 128,-1,232
 160 443 160 443 148 430 c 0,233,234
 136 416 136 416 120 416 c 1,235,-1
 120 416 l 1,220,221
199 416 m 1,236,237
 182 416 182 416 171 430 c 256,238,239
 159.923076923 442.923076923 159.923076923 442.923076923 159.923076923 459.25443787 c 0,240,241
 159.923076923 480.902097902 159.923076923 480.902097902 171 495 c 256,242,243
 183 508 183 508 199 508 c 256,244,245
 216 508 216 508 228 495 c 0,246,247
 240 481 240 481 240 462 c 128,-1,248
 240 443 240 443 228 430 c 0,249,250
 216 416 216 416 199 416 c 1,251,-1
 199 416 l 1,236,237
160 500 m 1,252,253
 143 500 143 500 132 513 c 0,254,255
 120 527 120 527 120 546 c 256,256,257
 120 565 120 565 132 578 c 0,258,259
 144 592 144 592 160 592 c 256,260,261
 177 592 177 592 188 578 c 0,262,263
 199.076923077 565.076923077 199.076923077 565.076923077 199.076923077 548.74556213 c 0,264,265
 199.076923077 527.097902098 199.076923077 527.097902098 188 513 c 0,266,267
 176.8 499.933333333 176.8 499.933333333 162.115555556 499.933333333 c 0,268,269
 161.066666667 499.933333333 161.066666667 499.933333333 160 500 c 1,270,-1
 160 500 l 1,252,253
EndSplineSet
EndChar

StartChar: B
Encoding: 66 66 34
Width: 360
VWidth: 750
Flags: W
LayerCount: 2
Fore
SplineSet
120 0 m 1,0,1
 103 0 103 0 91 14 c 0,2,3
 79.9230769231 26.9230769231 79.9230769231 26.9230769231 79.9230769231 43.2544378698 c 0,4,5
 79.9230769231 64.9090909091 79.9230769231 64.9090909091 91 78 c 0,6,7
 103 92 103 92 120 92 c 256,8,9
 137 92 137 92 148 78 c 0,10,11
 160 64 160 64 160 46 c 128,-1,12
 160 28 160 28 148 14 c 128,-1,13
 136 0 136 0 120 0 c 1,14,-1
 120 0 l 1,0,1
199 0 m 1,15,16
 182 0 182 0 171 14 c 0,17,18
 159.923076923 26.9230769231 159.923076923 26.9230769231 159.923076923 43.2544378698 c 0,19,20
 159.923076923 64.9090909091 159.923076923 64.9090909091 171 78 c 256,21,22
 183 92 183 92 199 92 c 256,23,24
 216 92 216 92 228 78 c 128,-1,25
 240 64 240 64 240 46 c 128,-1,26
 240 28 240 28 228 14 c 128,-1,27
 216 0 216 0 199 0 c 1,28,-1
 199 0 l 1,15,16
280 83 m 1,29,30
 263 83 263 83 251 97 c 0,31,32
 239.923076923 109.923076923 239.923076923 109.923076923 239.923076923 126.25443787 c 0,33,34
 239.923076923 147.909090909 239.923076923 147.909090909 251 161 c 0,35,36
 256 167 256 167 263 171 c 1,37,-1
 263 171 l 1,38,39
 257 174 257 174 251 180 c 0,40,41
 239.923076923 192.923076923 239.923076923 192.923076923 239.923076923 209.25443787 c 0,42,43
 239.923076923 229.902097902 239.923076923 229.902097902 251 244 c 0,44,45
 263 258 263 258 280 258 c 256,46,47
 297 258 297 258 308 244 c 0,48,49
 320 230 320 230 320 212 c 256,50,51
 320 193 320 193 308 180 c 0,52,53
 303 174 303 174 297 171 c 1,54,-1
 297 171 l 1,55,56
 303 168 303 168 308 161 c 0,57,58
 320 147 320 147 320 129 c 256,59,60
 320 110 320 110 308 97 c 0,61,62
 296 83 296 83 280 83 c 1,63,-1
 280 83 l 1,29,30
120 250 m 1,64,65
 103 250 103 250 91 263 c 0,66,67
 79.9230769231 276.846153846 79.9230769231 276.846153846 79.9230769231 293.24852071 c 0,68,69
 79.9230769231 315.916083916 79.9230769231 315.916083916 91 328 c 0,70,71
 102.2 341.066666667 102.2 341.066666667 117.755555556 341.066666667 c 0,72,73
 118.866666667 341.066666667 118.866666667 341.066666667 120 341 c 256,74,75
 121.133333333 341.066666667 121.133333333 341.066666667 122.24 341.066666667 c 0,76,77
 137.733333333 341.066666667 137.733333333 341.066666667 148 328 c 0,78,79
 160 314 160 314 160 296 c 0,80,81
 160 277 160 277 148 263 c 0,82,83
 136.8 249.933333333 136.8 249.933333333 122.115555556 249.933333333 c 0,84,85
 121.066666667 249.933333333 121.066666667 249.933333333 120 250 c 1,86,-1
 120 250 l 1,64,65
199 250 m 1,87,88
 182 250 182 250 171 263 c 256,89,90
 159.923076923 276.846153846 159.923076923 276.846153846 159.923076923 293.24852071 c 0,91,92
 159.923076923 315.916083916 159.923076923 315.916083916 171 328 c 0,93,94
 182.2 341.066666667 182.2 341.066666667 196.884444444 341.066666667 c 0,95,96
 197.933333333 341.066666667 197.933333333 341.066666667 199 341 c 256,97,98
 200.133333333 341.066666667 200.133333333 341.066666667 201.244444444 341.066666667 c 0,99,100
 216.8 341.066666667 216.8 341.066666667 228 328 c 0,101,102
 240 314 240 314 240 296 c 0,103,104
 240 277 240 277 228 263 c 0,105,106
 216.8 249.933333333 216.8 249.933333333 201.244444444 249.933333333 c 0,107,108
 200.133333333 249.933333333 200.133333333 249.933333333 199 250 c 1,109,-1
 199 250 l 1,87,88
280 333 m 1,110,111
 278.866666667 332.933333333 278.866666667 332.933333333 277.755555556 332.933333333 c 0,112,113
 262.2 332.933333333 262.2 332.933333333 251 346 c 128,-1,114
 239.923076923 358.923076923 239.923076923 358.923076923 239.923076923 376.106508876 c 0,115,116
 239.923076923 397.909090909 239.923076923 397.909090909 251 411 c 0,117,118
 256 417 256 417 263 421 c 1,119,-1
 263 421 l 1,120,121
 257 424 257 424 251 430 c 0,122,123
 239.923076923 442.923076923 239.923076923 442.923076923 239.923076923 459.25443787 c 0,124,125
 239.923076923 480.902097902 239.923076923 480.902097902 251 495 c 0,126,127
 263 508 263 508 280 508 c 256,128,129
 297 508 297 508 308 495 c 0,130,131
 320 481 320 481 320 462 c 128,-1,132
 320 443 320 443 308 430 c 0,133,134
 303 424 303 424 297 421 c 1,135,-1
 297 421 l 1,136,137
 303 418 303 418 308 411 c 0,138,139
 320 397 320 397 320 379 c 256,140,141
 320 360 320 360 308 346 c 0,142,143
 296.8 332.933333333 296.8 332.933333333 282.115555556 332.933333333 c 0,144,145
 281.066666667 332.933333333 281.066666667 332.933333333 280 333 c 1,146,-1
 280 333 l 1,110,111
40 0 m 1,147,148
 23 0 23 0 12 14 c 0,149,150
 0 28 0 28 0 46 c 0,151,152
 0 65 0 65 12 78 c 0,153,154
 17 84 17 84 23 87 c 1,155,-1
 23 87 l 1,156,157
 17 90 17 90 12 97 c 0,158,159
 0 111 0 111 0 129 c 256,160,161
 0 148 0 148 12 161 c 0,162,163
 17 167 17 167 23 171 c 1,164,-1
 23 171 l 1,165,166
 17 174 17 174 12 180 c 0,167,168
 0 194 0 194 0 212 c 256,169,170
 0 230 0 230 12 244 c 0,171,172
 17 250 17 250 23 254 c 1,173,-1
 23 254 l 1,174,175
 17 257 17 257 12 263 c 0,176,177
 0 278 0 278 0 296 c 0,178,179
 0 316 0 316 12 328 c 0,180,181
 17 334 17 334 23 338 c 1,182,-1
 23 338 l 1,183,184
 17 340 17 340 12 346 c 0,185,186
 0 360 0 360 0 379 c 256,187,188
 0 398 0 398 12 411 c 0,189,190
 17 417 17 417 23 421 c 1,191,-1
 23 421 l 1,192,193
 17 424 17 424 12 430 c 0,194,195
 0 444 0 444 0 462 c 0,196,197
 0 481 0 481 12 495 c 0,198,199
 17 501 17 501 23 504 c 1,200,-1
 23 504 l 1,201,202
 17 507 17 507 12 513 c 0,203,204
 0 527 0 527 0 546 c 256,205,206
 0 565 0 565 12 578 c 0,207,208
 24 592 24 592 40 592 c 256,209,210
 57 592 57 592 68 578 c 0,211,212
 80 564 80 564 80 546 c 256,213,214
 80 527 80 527 68 513 c 0,215,216
 63 507 63 507 57 504 c 1,217,-1
 57 504 l 1,218,219
 63 501 63 501 68 495 c 0,220,221
 80 481 80 481 80 462 c 128,-1,222
 80 443 80 443 68 430 c 0,223,224
 63 424 63 424 57 421 c 1,225,-1
 57 421 l 1,226,227
 63 418 63 418 68 411 c 0,228,229
 80 397 80 397 80 379 c 256,230,231
 80 360 80 360 68 346 c 0,232,233
 63 340 63 340 57 338 c 1,234,-1
 57 338 l 1,235,236
 63 334 63 334 68 328 c 0,237,238
 80 314 80 314 80 296 c 0,239,240
 80 277 80 277 68 263 c 0,241,242
 63 257 63 257 57 254 c 1,243,-1
 57 254 l 1,244,245
 63 250 63 250 68 244 c 0,246,247
 80 230 80 230 80 212 c 256,248,249
 80 193 80 193 68 180 c 0,250,251
 63 174 63 174 57 171 c 1,252,-1
 57 171 l 1,253,254
 63 168 63 168 68 161 c 0,255,256
 80 147 80 147 80 129 c 256,257,258
 80 110 80 110 68 97 c 0,259,260
 63 91 63 91 57 87 c 1,261,-1
 57 87 l 1,262,263
 63 84 63 84 68 78 c 0,264,265
 80 64 80 64 80 46 c 128,-1,266
 80 28 80 28 68 14 c 128,-1,267
 56 0 56 0 40 0 c 1,268,-1
 40 0 l 1,147,148
120 500 m 1,269,270
 103 500 103 500 91 513 c 0,271,272
 79.9230769231 525.923076923 79.9230769231 525.923076923 79.9230769231 543.106508876 c 0,273,274
 79.9230769231 564.909090909 79.9230769231 564.909090909 91 578 c 0,275,276
 103 592 103 592 120 592 c 256,277,278
 137 592 137 592 148 578 c 0,279,280
 160 564 160 564 160 546 c 256,281,282
 160 527 160 527 148 513 c 0,283,284
 136.8 499.933333333 136.8 499.933333333 122.115555556 499.933333333 c 0,285,286
 121.066666667 499.933333333 121.066666667 499.933333333 120 500 c 1,287,-1
 120 500 l 1,269,270
199 500 m 1,288,289
 182 500 182 500 171 513 c 128,-1,290
 159.923076923 525.923076923 159.923076923 525.923076923 159.923076923 543.106508876 c 0,291,292
 159.923076923 564.909090909 159.923076923 564.909090909 171 578 c 0,293,294
 183 592 183 592 199 592 c 256,295,296
 216 592 216 592 228 578 c 128,-1,297
 240 564 240 564 240 546 c 256,298,299
 240 527 240 527 228 513 c 0,300,301
 216.8 499.933333333 216.8 499.933333333 201.244444444 499.933333333 c 0,302,303
 200.133333333 499.933333333 200.133333333 499.933333333 199 500 c 1,304,-1
 199 500 l 1,288,289
EndSplineSet
EndChar

StartChar: C
Encoding: 67 67 35
Width: 360
VWidth: 750
Flags: W
LayerCount: 2
Fore
SplineSet
80 0 m 1,0,1
 63 0 63 0 52 14 c 0,2,3
 40 28 40 28 40 46 c 0,4,5
 40 65 40 65 52 78 c 0,6,7
 64 92 64 92 80 92 c 256,8,9
 97 92 97 92 108 78 c 0,10,11
 120 64 120 64 120 46 c 128,-1,12
 120 28 120 28 108 14 c 128,-1,13
 96 0 96 0 80 0 c 1,14,-1
 80 0 l 1,0,1
160 0 m 1,15,16
 143 0 143 0 132 14 c 0,17,18
 120 28 120 28 120 46 c 0,19,20
 120 65 120 65 132 78 c 0,21,22
 144 92 144 92 160 92 c 256,23,24
 177 92 177 92 188 78 c 256,25,26
 199.076923077 65.0769230769 199.076923077 65.0769230769 199.076923077 48.7455621302 c 0,27,28
 199.076923077 28.0979020979 199.076923077 28.0979020979 188 14 c 0,29,30
 176 0 176 0 160 0 c 1,31,-1
 160 0 l 1,15,16
240 0 m 1,32,33
 223 0 223 0 212 14 c 0,34,35
 200 28 200 28 199 46 c 0,36,37
 199 65 199 65 212 78 c 0,38,39
 224 92 224 92 240 92 c 256,40,41
 257 92 257 92 269 78 c 0,42,43
 280.076923077 65.0769230769 280.076923077 65.0769230769 280.076923077 48.7455621302 c 0,44,45
 280.076923077 28.0979020979 280.076923077 28.0979020979 269 14 c 0,46,47
 257 0 257 0 240 0 c 1,48,-1
 240 0 l 1,32,33
280 83 m 1,49,50
 263 83 263 83 251 97 c 0,51,52
 239.923076923 109.923076923 239.923076923 109.923076923 239.923076923 126.25443787 c 0,53,54
 239.923076923 147.909090909 239.923076923 147.909090909 251 161 c 0,55,56
 263 175 263 175 280 175 c 256,57,58
 297 175 297 175 308 161 c 0,59,60
 320 147 320 147 320 129 c 256,61,62
 320 110 320 110 308 97 c 0,63,64
 296 83 296 83 280 83 c 1,65,-1
 280 83 l 1,49,50
40 83 m 1,66,67
 23 83 23 83 12 97 c 0,68,69
 0 111 0 111 0 129 c 256,70,71
 0 148 0 148 12 161 c 0,72,73
 17 167 17 167 23 171 c 1,74,-1
 23 171 l 1,75,76
 17 174 17 174 12 180 c 0,77,78
 0 194 0 194 0 212 c 256,79,80
 0 230 0 230 12 244 c 0,81,82
 17 250 17 250 23 254 c 1,83,-1
 23 254 l 1,84,85
 17 257 17 257 12 263 c 0,86,87
 0 278 0 278 0 296 c 0,88,89
 0 316 0 316 12 328 c 0,90,91
 17 334 17 334 23 338 c 1,92,-1
 23 338 l 1,93,94
 17 340 17 340 12 346 c 0,95,96
 0 360 0 360 0 379 c 256,97,98
 0 398 0 398 12 411 c 0,99,100
 17 417 17 417 23 421 c 1,101,-1
 23 421 l 1,102,103
 17 424 17 424 12 430 c 0,104,105
 0 444 0 444 0 462 c 0,106,107
 0 481 0 481 12 495 c 256,108,109
 24 508 24 508 40 508 c 256,110,111
 57 508 57 508 68 495 c 0,112,113
 80 481 80 481 80 462 c 128,-1,114
 80 443 80 443 68 430 c 0,115,116
 63 424 63 424 57 421 c 1,117,-1
 57 421 l 1,118,119
 63 418 63 418 68 411 c 0,120,121
 80 397 80 397 80 379 c 256,122,123
 80 360 80 360 68 346 c 0,124,125
 63 340 63 340 57 338 c 1,126,-1
 57 338 l 1,127,128
 63 334 63 334 68 328 c 0,129,130
 80 314 80 314 80 296 c 0,131,132
 80 277 80 277 68 263 c 0,133,134
 63 257 63 257 57 254 c 1,135,-1
 57 254 l 1,136,137
 63 250 63 250 68 244 c 0,138,139
 80 230 80 230 80 212 c 256,140,141
 80 193 80 193 68 180 c 0,142,143
 63 174 63 174 57 171 c 1,144,-1
 57 171 l 1,145,146
 63 168 63 168 68 161 c 0,147,148
 80 147 80 147 80 129 c 256,149,150
 80 110 80 110 68 97 c 0,151,152
 56 83 56 83 40 83 c 1,153,-1
 40 83 l 1,66,67
280 416 m 1,154,155
 263 416 263 416 251 430 c 0,156,157
 239.923076923 442.923076923 239.923076923 442.923076923 239.923076923 459.25443787 c 0,158,159
 239.923076923 480.902097902 239.923076923 480.902097902 251 495 c 0,160,161
 263 508 263 508 280 508 c 256,162,163
 297 508 297 508 308 495 c 0,164,165
 320 481 320 481 320 462 c 128,-1,166
 320 443 320 443 308 430 c 0,167,168
 296 416 296 416 280 416 c 1,169,-1
 280 416 l 1,154,155
80 500 m 1,170,171
 63 500 63 500 52 513 c 0,172,173
 40 527 40 527 40 546 c 256,174,175
 40 565 40 565 52 578 c 0,176,177
 64 592 64 592 80 592 c 256,178,179
 97 592 97 592 108 578 c 0,180,181
 120 564 120 564 120 546 c 256,182,183
 120 527 120 527 108 513 c 0,184,185
 96.8 499.933333333 96.8 499.933333333 82.1155555556 499.933333333 c 0,186,187
 81.0666666667 499.933333333 81.0666666667 499.933333333 80 500 c 1,188,-1
 80 500 l 1,170,171
160 500 m 1,189,190
 143 500 143 500 132 513 c 0,191,192
 120 527 120 527 120 546 c 256,193,194
 120 565 120 565 132 578 c 0,195,196
 144 592 144 592 160 592 c 256,197,198
 177 592 177 592 188 578 c 0,199,200
 199.076923077 565.076923077 199.076923077 565.076923077 199.076923077 548.74556213 c 0,201,202
 199.076923077 527.097902098 199.076923077 527.097902098 188 513 c 0,203,204
 176.8 499.933333333 176.8 499.933333333 162.115555556 499.933333333 c 0,205,206
 161.066666667 499.933333333 161.066666667 499.933333333 160 500 c 1,207,-1
 160 500 l 1,189,190
240 500 m 1,208,209
 223 500 223 500 212 513 c 0,210,211
 200 527 200 527 199 546 c 256,212,213
 199 565 199 565 212 578 c 0,214,215
 224 592 224 592 240 592 c 256,216,217
 257 592 257 592 269 578 c 0,218,219
 280.076923077 565.076923077 280.076923077 565.076923077 280.076923077 548.74556213 c 0,220,221
 280.076923077 527.097902098 280.076923077 527.097902098 269 513 c 0,222,223
 257.8 499.933333333 257.8 499.933333333 242.244444444 499.933333333 c 0,224,225
 241.133333333 499.933333333 241.133333333 499.933333333 240 500 c 1,226,-1
 240 500 l 1,208,209
EndSplineSet
EndChar

StartChar: D
Encoding: 68 68 36
Width: 360
VWidth: 750
Flags: W
LayerCount: 2
Fore
SplineSet
120 0 m 1,0,1
 103 0 103 0 91 14 c 0,2,3
 79.9230769231 26.9230769231 79.9230769231 26.9230769231 79.9230769231 43.2544378698 c 0,4,5
 79.9230769231 64.9090909091 79.9230769231 64.9090909091 91 78 c 0,6,7
 103 92 103 92 120 92 c 256,8,9
 137 92 137 92 148 78 c 0,10,11
 160 64 160 64 160 46 c 128,-1,12
 160 28 160 28 148 14 c 128,-1,13
 136 0 136 0 120 0 c 1,14,-1
 120 0 l 1,0,1
199 0 m 1,15,16
 182 0 182 0 171 14 c 0,17,18
 159.923076923 26.9230769231 159.923076923 26.9230769231 159.923076923 43.2544378698 c 0,19,20
 159.923076923 64.9090909091 159.923076923 64.9090909091 171 78 c 256,21,22
 183 92 183 92 199 92 c 256,23,24
 216 92 216 92 228 78 c 128,-1,25
 240 64 240 64 240 46 c 128,-1,26
 240 28 240 28 228 14 c 128,-1,27
 216 0 216 0 199 0 c 1,28,-1
 199 0 l 1,15,16
240 83 m 1,29,30
 223 83 223 83 212 97 c 0,31,32
 200 111 200 111 199 129 c 256,33,34
 199 148 199 148 212 161 c 0,35,36
 224 175 224 175 240 175 c 256,37,38
 257 175 257 175 269 161 c 0,39,40
 280.076923077 148.076923077 280.076923077 148.076923077 280.076923077 131.74556213 c 0,41,42
 280.076923077 110.090909091 280.076923077 110.090909091 269 97 c 0,43,44
 257 83 257 83 240 83 c 1,45,-1
 240 83 l 1,29,30
280 166 m 1,46,47
 263 166 263 166 251 180 c 0,48,49
 239.923076923 192.923076923 239.923076923 192.923076923 239.923076923 209.25443787 c 0,50,51
 239.923076923 229.902097902 239.923076923 229.902097902 251 244 c 0,52,53
 256 250 256 250 263 254 c 1,54,-1
 263 254 l 1,55,56
 257 257 257 257 251 263 c 0,57,58
 239.923076923 276.846153846 239.923076923 276.846153846 239.923076923 293.24852071 c 0,59,60
 239.923076923 315.916083916 239.923076923 315.916083916 251 328 c 0,61,62
 256 334 256 334 263 338 c 1,63,-1
 263 338 l 1,64,65
 257 340 257 340 251 346 c 0,66,67
 239.923076923 358.923076923 239.923076923 358.923076923 239.923076923 376.106508876 c 0,68,69
 239.923076923 397.909090909 239.923076923 397.909090909 251 411 c 0,70,71
 263 424 263 424 280 424 c 256,72,73
 297 424 297 424 308 411 c 0,74,75
 320 397 320 397 320 379 c 256,76,77
 320 360 320 360 308 346 c 0,78,79
 303 340 303 340 297 338 c 1,80,-1
 297 338 l 1,81,82
 303 334 303 334 308 328 c 0,83,84
 320 314 320 314 320 296 c 0,85,86
 320 277 320 277 308 263 c 0,87,88
 303 257 303 257 297 254 c 1,89,-1
 297 254 l 1,90,91
 303 250 303 250 308 244 c 0,92,93
 320 230 320 230 320 212 c 256,94,95
 320 193 320 193 308 180 c 0,96,97
 296 166 296 166 280 166 c 1,98,-1
 280 166 l 1,46,47
240 416 m 1,99,100
 223 416 223 416 212 430 c 0,101,102
 200 444 200 444 199 462 c 0,103,104
 199 481 199 481 212 495 c 0,105,106
 224 508 224 508 240 508 c 256,107,108
 257 508 257 508 269 495 c 0,109,110
 280.076923077 482.076923077 280.076923077 482.076923077 280.076923077 464.893491124 c 0,111,112
 280.076923077 443.090909091 280.076923077 443.090909091 269 430 c 0,113,114
 257 416 257 416 240 416 c 1,115,-1
 240 416 l 1,99,100
40 0 m 1,116,117
 23 0 23 0 12 14 c 0,118,119
 0 28 0 28 0 46 c 0,120,121
 0 65 0 65 12 78 c 0,122,123
 17 84 17 84 23 87 c 1,124,-1
 23 87 l 1,125,126
 17 90 17 90 12 97 c 0,127,128
 0 111 0 111 0 129 c 256,129,130
 0 148 0 148 12 161 c 0,131,132
 17 167 17 167 23 171 c 1,133,-1
 23 171 l 1,134,135
 17 174 17 174 12 180 c 0,136,137
 0 194 0 194 0 212 c 256,138,139
 0 230 0 230 12 244 c 0,140,141
 17 250 17 250 23 254 c 1,142,-1
 23 254 l 1,143,144
 17 257 17 257 12 263 c 0,145,146
 0 278 0 278 0 296 c 0,147,148
 0 316 0 316 12 328 c 0,149,150
 17 334 17 334 23 338 c 1,151,-1
 23 338 l 1,152,153
 17 340 17 340 12 346 c 0,154,155
 0 360 0 360 0 379 c 256,156,157
 0 398 0 398 12 411 c 0,158,159
 17 417 17 417 23 421 c 1,160,-1
 23 421 l 1,161,162
 17 424 17 424 12 430 c 0,163,164
 0 444 0 444 0 462 c 0,165,166
 0 481 0 481 12 495 c 0,167,168
 17 501 17 501 23 504 c 1,169,-1
 23 504 l 1,170,171
 17 507 17 507 12 513 c 0,172,173
 0 527 0 527 0 546 c 256,174,175
 0 565 0 565 12 578 c 0,176,177
 24 592 24 592 40 592 c 256,178,179
 57 592 57 592 68 578 c 0,180,181
 80 564 80 564 80 546 c 256,182,183
 80 527 80 527 68 513 c 0,184,185
 63 507 63 507 57 504 c 1,186,-1
 57 504 l 1,187,188
 63 501 63 501 68 495 c 0,189,190
 80 481 80 481 80 462 c 128,-1,191
 80 443 80 443 68 430 c 0,192,193
 63 424 63 424 57 421 c 1,194,-1
 57 421 l 1,195,196
 63 418 63 418 68 411 c 0,197,198
 80 397 80 397 80 379 c 256,199,200
 80 360 80 360 68 346 c 0,201,202
 63 340 63 340 57 338 c 1,203,-1
 57 338 l 1,204,205
 63 334 63 334 68 328 c 0,206,207
 80 314 80 314 80 296 c 0,208,209
 80 277 80 277 68 263 c 0,210,211
 63 257 63 257 57 254 c 1,212,-1
 57 254 l 1,213,214
 63 250 63 250 68 244 c 0,215,216
 80 230 80 230 80 212 c 256,217,218
 80 193 80 193 68 180 c 0,219,220
 63 174 63 174 57 171 c 1,221,-1
 57 171 l 1,222,223
 63 168 63 168 68 161 c 0,224,225
 80 147 80 147 80 129 c 256,226,227
 80 110 80 110 68 97 c 0,228,229
 63 91 63 91 57 87 c 1,230,-1
 57 87 l 1,231,232
 63 84 63 84 68 78 c 0,233,234
 80 64 80 64 80 46 c 128,-1,235
 80 28 80 28 68 14 c 128,-1,236
 56 0 56 0 40 0 c 1,237,-1
 40 0 l 1,116,117
120 500 m 1,238,239
 103 500 103 500 91 513 c 0,240,241
 79.9230769231 525.923076923 79.9230769231 525.923076923 79.9230769231 543.106508876 c 0,242,243
 79.9230769231 564.909090909 79.9230769231 564.909090909 91 578 c 0,244,245
 103 592 103 592 120 592 c 256,246,247
 137 592 137 592 148 578 c 0,248,249
 160 564 160 564 160 546 c 256,250,251
 160 527 160 527 148 513 c 0,252,253
 136.8 499.933333333 136.8 499.933333333 122.115555556 499.933333333 c 0,254,255
 121.066666667 499.933333333 121.066666667 499.933333333 120 500 c 1,256,-1
 120 500 l 1,238,239
199 500 m 1,257,258
 182 500 182 500 171 513 c 128,-1,259
 159.923076923 525.923076923 159.923076923 525.923076923 159.923076923 543.106508876 c 0,260,261
 159.923076923 564.909090909 159.923076923 564.909090909 171 578 c 0,262,263
 183 592 183 592 199 592 c 256,264,265
 216 592 216 592 228 578 c 128,-1,266
 240 564 240 564 240 546 c 256,267,268
 240 527 240 527 228 513 c 0,269,270
 216.8 499.933333333 216.8 499.933333333 201.244444444 499.933333333 c 0,271,272
 200.133333333 499.933333333 200.133333333 499.933333333 199 500 c 1,273,-1
 199 500 l 1,257,258
EndSplineSet
EndChar

StartChar: E
Encoding: 69 69 37
Width: 360
VWidth: 750
Flags: W
LayerCount: 2
Fore
SplineSet
120 0 m 1,0,1
 103 0 103 0 91 14 c 0,2,3
 79.9230769231 26.9230769231 79.9230769231 26.9230769231 79.9230769231 43.2544378698 c 0,4,5
 79.9230769231 64.9090909091 79.9230769231 64.9090909091 91 78 c 0,6,7
 103 92 103 92 120 92 c 256,8,9
 137 92 137 92 148 78 c 0,10,11
 160 64 160 64 160 46 c 128,-1,12
 160 28 160 28 148 14 c 128,-1,13
 136 0 136 0 120 0 c 1,14,-1
 120 0 l 1,0,1
199 0 m 1,15,16
 182 0 182 0 171 14 c 0,17,18
 159.923076923 26.9230769231 159.923076923 26.9230769231 159.923076923 43.2544378698 c 0,19,20
 159.923076923 64.9090909091 159.923076923 64.9090909091 171 78 c 256,21,22
 183 92 183 92 199 92 c 256,23,24
 216 92 216 92 228 78 c 128,-1,25
 240 64 240 64 240 46 c 128,-1,26
 240 28 240 28 228 14 c 128,-1,27
 216 0 216 0 199 0 c 1,28,-1
 199 0 l 1,15,16
280 0 m 1,29,30
 263 0 263 0 251 14 c 0,31,32
 239.923076923 26.9230769231 239.923076923 26.9230769231 239.923076923 43.2544378698 c 0,33,34
 239.923076923 64.9090909091 239.923076923 64.9090909091 251 78 c 0,35,36
 263 92 263 92 280 92 c 256,37,38
 297 92 297 92 308 78 c 0,39,40
 320 64 320 64 320 46 c 128,-1,41
 320 28 320 28 308 14 c 128,-1,42
 296 0 296 0 280 0 c 1,43,-1
 280 0 l 1,29,30
120 250 m 1,44,45
 103 250 103 250 91 263 c 0,46,47
 79.9230769231 276.846153846 79.9230769231 276.846153846 79.9230769231 293.24852071 c 0,48,49
 79.9230769231 315.916083916 79.9230769231 315.916083916 91 328 c 0,50,51
 102.2 341.066666667 102.2 341.066666667 117.755555556 341.066666667 c 0,52,53
 118.866666667 341.066666667 118.866666667 341.066666667 120 341 c 256,54,55
 121.133333333 341.066666667 121.133333333 341.066666667 122.24 341.066666667 c 0,56,57
 137.733333333 341.066666667 137.733333333 341.066666667 148 328 c 0,58,59
 160 314 160 314 160 296 c 0,60,61
 160 277 160 277 148 263 c 0,62,63
 136.8 249.933333333 136.8 249.933333333 122.115555556 249.933333333 c 0,64,65
 121.066666667 249.933333333 121.066666667 249.933333333 120 250 c 1,66,-1
 120 250 l 1,44,45
199 250 m 1,67,68
 182 250 182 250 171 263 c 256,69,70
 159.923076923 276.846153846 159.923076923 276.846153846 159.923076923 293.24852071 c 0,71,72
 159.923076923 315.916083916 159.923076923 315.916083916 171 328 c 0,73,74
 182.2 341.066666667 182.2 341.066666667 196.884444444 341.066666667 c 0,75,76
 197.933333333 341.066666667 197.933333333 341.066666667 199 341 c 256,77,78
 200.133333333 341.066666667 200.133333333 341.066666667 201.244444444 341.066666667 c 0,79,80
 216.8 341.066666667 216.8 341.066666667 228 328 c 0,81,82
 240 314 240 314 240 296 c 0,83,84
 240 277 240 277 228 263 c 0,85,86
 216.8 249.933333333 216.8 249.933333333 201.244444444 249.933333333 c 0,87,88
 200.133333333 249.933333333 200.133333333 249.933333333 199 250 c 1,89,-1
 199 250 l 1,67,68
40 0 m 1,90,91
 23 0 23 0 12 14 c 0,92,93
 0 28 0 28 0 46 c 0,94,95
 0 65 0 65 12 78 c 0,96,97
 17 84 17 84 23 87 c 1,98,-1
 23 87 l 1,99,100
 17 90 17 90 12 97 c 0,101,102
 0 111 0 111 0 129 c 256,103,104
 0 148 0 148 12 161 c 0,105,106
 17 167 17 167 23 171 c 1,107,-1
 23 171 l 1,108,109
 17 174 17 174 12 180 c 0,110,111
 0 194 0 194 0 212 c 256,112,113
 0 230 0 230 12 244 c 0,114,115
 17 250 17 250 23 254 c 1,116,-1
 23 254 l 1,117,118
 17 257 17 257 12 263 c 0,119,120
 0 278 0 278 0 296 c 0,121,122
 0 316 0 316 12 328 c 0,123,124
 17 334 17 334 23 338 c 1,125,-1
 23 338 l 1,126,127
 17 340 17 340 12 346 c 0,128,129
 0 360 0 360 0 379 c 256,130,131
 0 398 0 398 12 411 c 0,132,133
 17 417 17 417 23 421 c 1,134,-1
 23 421 l 1,135,136
 17 424 17 424 12 430 c 0,137,138
 0 444 0 444 0 462 c 0,139,140
 0 481 0 481 12 495 c 0,141,142
 17 501 17 501 23 504 c 1,143,-1
 23 504 l 1,144,145
 17 507 17 507 12 513 c 0,146,147
 0 527 0 527 0 546 c 256,148,149
 0 565 0 565 12 578 c 0,150,151
 24 592 24 592 40 592 c 256,152,153
 57 592 57 592 68 578 c 0,154,155
 80 564 80 564 80 546 c 256,156,157
 80 527 80 527 68 513 c 0,158,159
 63 507 63 507 57 504 c 1,160,-1
 57 504 l 1,161,162
 63 501 63 501 68 495 c 0,163,164
 80 481 80 481 80 462 c 128,-1,165
 80 443 80 443 68 430 c 0,166,167
 63 424 63 424 57 421 c 1,168,-1
 57 421 l 1,169,170
 63 418 63 418 68 411 c 0,171,172
 80 397 80 397 80 379 c 256,173,174
 80 360 80 360 68 346 c 0,175,176
 63 340 63 340 57 338 c 1,177,-1
 57 338 l 1,178,179
 63 334 63 334 68 328 c 0,180,181
 80 314 80 314 80 296 c 0,182,183
 80 277 80 277 68 263 c 0,184,185
 63 257 63 257 57 254 c 1,186,-1
 57 254 l 1,187,188
 63 250 63 250 68 244 c 0,189,190
 80 230 80 230 80 212 c 256,191,192
 80 193 80 193 68 180 c 0,193,194
 63 174 63 174 57 171 c 1,195,-1
 57 171 l 1,196,197
 63 168 63 168 68 161 c 0,198,199
 80 147 80 147 80 129 c 256,200,201
 80 110 80 110 68 97 c 0,202,203
 63 91 63 91 57 87 c 1,204,-1
 57 87 l 1,205,206
 63 84 63 84 68 78 c 0,207,208
 80 64 80 64 80 46 c 128,-1,209
 80 28 80 28 68 14 c 128,-1,210
 56 0 56 0 40 0 c 1,211,-1
 40 0 l 1,90,91
120 500 m 1,212,213
 103 500 103 500 91 513 c 0,214,215
 79.9230769231 525.923076923 79.9230769231 525.923076923 79.9230769231 543.106508876 c 0,216,217
 79.9230769231 564.909090909 79.9230769231 564.909090909 91 578 c 0,218,219
 103 592 103 592 120 592 c 256,220,221
 137 592 137 592 148 578 c 0,222,223
 160 564 160 564 160 546 c 256,224,225
 160 527 160 527 148 513 c 0,226,227
 136.8 499.933333333 136.8 499.933333333 122.115555556 499.933333333 c 0,228,229
 121.066666667 499.933333333 121.066666667 499.933333333 120 500 c 1,230,-1
 120 500 l 1,212,213
199 500 m 1,231,232
 182 500 182 500 171 513 c 128,-1,233
 159.923076923 525.923076923 159.923076923 525.923076923 159.923076923 543.106508876 c 0,234,235
 159.923076923 564.909090909 159.923076923 564.909090909 171 578 c 0,236,237
 183 592 183 592 199 592 c 256,238,239
 216 592 216 592 228 578 c 128,-1,240
 240 564 240 564 240 546 c 256,241,242
 240 527 240 527 228 513 c 0,243,244
 216.8 499.933333333 216.8 499.933333333 201.244444444 499.933333333 c 0,245,246
 200.133333333 499.933333333 200.133333333 499.933333333 199 500 c 1,247,-1
 199 500 l 1,231,232
280 500 m 1,248,249
 263 500 263 500 251 513 c 0,250,251
 239.923076923 525.923076923 239.923076923 525.923076923 239.923076923 543.106508876 c 0,252,253
 239.923076923 564.909090909 239.923076923 564.909090909 251 578 c 0,254,255
 263 592 263 592 280 592 c 256,256,257
 297 592 297 592 308 578 c 0,258,259
 320 564 320 564 320 546 c 256,260,261
 320 527 320 527 308 513 c 0,262,263
 296.8 499.933333333 296.8 499.933333333 282.115555556 499.933333333 c 0,264,265
 281.066666667 499.933333333 281.066666667 499.933333333 280 500 c 1,266,-1
 280 500 l 1,248,249
EndSplineSet
EndChar

